LeutkirchSans-Black.ufo
<glyph name="exclam" format="2">
	<unicode hex="0021"/>
	<advance width="301"/>
	<outline>
		<contour>
			<point x="206" y="773" type="line"/>
			<point x="76" y="773" type="line"/>
			<point x="82" y="188" type="line"/>
			<point x="200" y="188" type="line"/>
		</contour>
		<contour>
			<point x="215" y="-13" type="line"/>
			<point x="215" y="138" type="line"/>
			<point x="69" y="138" type="line"/>
			<point x="69" y="-13" type="line"/>
		</contour>
	</outline>
</glyph>
<glyph name="quotedbl" format="2">
	<unicode hex="0022"/>
	<advance width="370"/>
	<outline>
		<contour>
			<point x="323" y="793" type="line"/>
			<point x="196" y="793" type="line"/>
			<point x="210" y="526" type="line"/>
			<point x="307" y="526" type="line"/>
		</contour>
		<contour>
			<point x="177" y="793" type="line"/>
			<point x="49" y="793" type="line"/>
			<point x="67" y="526" type="line"/>
			<point x="163" y="526" type="line"/>
		</contour>
	</outline>
</glyph>
<glyph name="numbersign" format="2">
	<unicode hex="0023"/>
	<advance width="573"/>
	<outline>
		<contour>
			<point x="557" y="472" type="line"/>
			<point x="451" y="472" type="line"/>
			<point x="503" y="694" type="line"/>
			<point x="391" y="694" type="line"/>
			<point x="341" y="472" type="line"/>
			<point x="284" y="472" type="line"/>
			<point x="334" y="694" type="line"/>
			<point x="223" y="694" type="line"/>
			<point x="173" y="472" type="line"/>
			<point x="70" y="472" type="line"/>
			<point x="46" y="369" type="line"/>
			<point x="150" y="369" type="line"/>
			<point x="139" y="317" type="line"/>
			<point x="35" y="317" type="line"/>
			<point x="14" y="215" type="line"/>
			<point x="116" y="215" type="line"/>
			<point x="66" y="-5" type="line"/>
			<point x="177" y="-5" type="line"/>
			<point x="227" y="215" type="line"/>
			<point x="284" y="215" type="line"/>
			<point x="235" y="-5" type="line"/>
			<point x="344" y="-5" type="line"/>
			<point x="394" y="215" type="line"/>
			<point x="501" y="215" type="line"/>
			<point x="525" y="318" type="line"/>
			<point x="417" y="318" type="line"/>
			<point x="429" y="369" type="line"/>
			<point x="536" y="369" type="line"/>
		</contour>
		<contour>
			<point x="318" y="369" type="line"/>
			<point x="307" y="318" type="line"/>
			<point x="250" y="318" type="line"/>
			<point x="261" y="369" type="line"/>
		</contour>
	</outline>
</glyph>
<glyph name="dollar" format="2">
	<unicode hex="0024"/>
	<advance width="519"/>
	<outline>
		<contour>
			<point x="191" y="804" type="line"/>
			<point x="191" y="725" type="line"/>
			<point x="99.1286" y="699.944"/>
			<point x="33" y="646.449"/>
			<point x="33" y="532" type="curve" smooth="yes"/>
			<point x="33" y="406.262"/>
			<point x="99.5271" y="357.302"/>
			<point x="191" y="323" type="curve"/>
			<point x="191" y="86" type="line"/>
			<point x="161.47" y="98.6558"/>
			<point x="151" y="131.255"/>
			<point x="151" y="179" type="curve"/>
			<point x="21" y="179" type="line"/>
			<point x="31.3476" y="61.7276"/>
			<point x="80.9281" y="-4.94826"/>
			<point x="191" y="-19" type="curve"/>
			<point x="191" y="-106" type="line"/>
			<point x="286" y="-106" type="line"/>
			<point x="286" y="-18" type="line"/>
			<point x="388.529" y="7.63231"/>
			<point x="458" y="60.8985"/>
			<point x="458" y="190" type="curve" smooth="yes"/>
			<point x="458" y="320.72"/>
			<point x="374.067" y="355.967"/>
			<point x="286" y="400" type="curve"/>
			<point x="286" y="619" type="line"/>
			<point x="308.237" y="596.763"/>
			<point x="320.6" y="579.595"/>
			<point x="322" y="532" type="curve"/>
			<point x="447" y="532" type="line"/>
			<point x="447" y="639.959"/>
			<point x="379.738" y="714.283"/>
			<point x="286" y="726" type="curve"/>
			<point x="286" y="804" type="line"/>
		</contour>
		<contour>
			<point x="286" y="280" type="line"/>
			<point x="314.055" y="258.179"/>
			<point x="338" y="231.181"/>
			<point x="338" y="183" type="curve" smooth="yes"/>
			<point x="338" y="135.247"/>
			<point x="315.759" y="101.005"/>
			<point x="286" y="84" type="curve"/>
		</contour>
		<contour>
			<point x="191" y="441" type="line"/>
			<point x="163.875" y="454.562"/>
			<point x="152" y="493.197"/>
			<point x="152" y="536" type="curve" smooth="yes"/>
			<point x="152" y="578.684"/>
			<point x="165.511" y="605.008"/>
			<point x="191" y="622" type="curve"/>
		</contour>
	</outline>
</glyph>
<glyph name="percent" format="2">
	<unicode hex="0025"/>
	<advance width="766"/>
	<outline>
		<contour>
			<point x="575" y="700" type="line"/>
			<point x="468" y="700" type="line"/>
			<point x="190" y="-2" type="line"/>
			<point x="297" y="-2" type="line"/>
		</contour>
		<contour>
			<point x="232" y="475" type="curve" smooth="yes"/>
			<point x="232" y="435"/>
			<point x="226" y="404"/>
			<point x="215" y="384" type="curve" smooth="yes"/>
			<point x="203" y="363"/>
			<point x="190" y="353"/>
			<point x="176" y="353" type="curve" smooth="yes"/>
			<point x="162" y="353"/>
			<point x="149" y="363"/>
			<point x="139" y="384" type="curve" smooth="yes"/>
			<point x="127" y="404"/>
			<point x="122" y="435"/>
			<point x="122" y="475" type="curve" smooth="yes"/>
			<point x="122" y="516"/>
			<point x="127" y="547"/>
			<point x="139" y="569" type="curve" smooth="yes"/>
			<point x="150" y="590"/>
			<point x="162" y="601"/>
			<point x="176" y="601" type="curve" smooth="yes"/>
			<point x="190" y="601"/>
			<point x="203" y="590"/>
			<point x="215" y="569" type="curve" smooth="yes"/>
			<point x="226" y="547"/>
			<point x="232" y="516"/>
		</contour>
		<contour>
			<point x="346" y="475" type="curve" smooth="yes"/>
			<point x="346" y="505"/>
			<point x="342" y="535"/>
			<point x="334" y="564" type="curve" smooth="yes"/>
			<point x="325" y="592"/>
			<point x="313" y="617"/>
			<point x="299" y="637" type="curve" smooth="yes"/>
			<point x="283" y="657"/>
			<point x="265" y="672"/>
			<point x="244" y="684" type="curve" smooth="yes"/>
			<point x="222" y="694"/>
			<point x="200" y="700"/>
			<point x="176" y="700" type="curve" smooth="yes"/>
			<point x="152" y="700"/>
			<point x="130" y="694"/>
			<point x="109" y="684" type="curve" smooth="yes"/>
			<point x="87" y="672"/>
			<point x="69" y="657"/>
			<point x="54" y="637" type="curve" smooth="yes"/>
			<point x="39" y="617"/>
			<point x="28" y="592"/>
			<point x="20" y="564" type="curve" smooth="yes"/>
			<point x="12" y="535"/>
			<point x="8" y="505"/>
			<point x="8" y="475" type="curve" smooth="yes"/>
			<point x="8" y="445"/>
			<point x="12" y="416"/>
			<point x="20" y="388" type="curve" smooth="yes"/>
			<point x="28" y="359"/>
			<point x="39" y="334"/>
			<point x="54" y="314" type="curve" smooth="yes"/>
			<point x="69" y="294"/>
			<point x="87" y="279"/>
			<point x="109" y="269" type="curve" smooth="yes"/>
			<point x="130" y="259"/>
			<point x="152" y="254"/>
			<point x="176" y="254" type="curve" smooth="yes"/>
			<point x="200" y="254"/>
			<point x="222" y="259"/>
			<point x="244" y="269" type="curve" smooth="yes"/>
			<point x="265" y="279"/>
			<point x="283" y="294"/>
			<point x="299" y="314" type="curve" smooth="yes"/>
			<point x="313" y="334"/>
			<point x="325" y="359"/>
			<point x="334" y="388" type="curve" smooth="yes"/>
			<point x="342" y="416"/>
			<point x="346" y="445"/>
		</contour>
		<contour>
			<point x="645" y="219" type="curve" smooth="yes"/>
			<point x="645" y="179"/>
			<point x="639" y="148"/>
			<point x="628" y="128" type="curve" smooth="yes"/>
			<point x="616" y="107"/>
			<point x="603" y="97"/>
			<point x="589" y="97" type="curve" smooth="yes"/>
			<point x="575" y="97"/>
			<point x="562" y="107"/>
			<point x="552" y="128" type="curve" smooth="yes"/>
			<point x="540" y="148"/>
			<point x="535" y="179"/>
			<point x="535" y="219" type="curve" smooth="yes"/>
			<point x="535" y="260"/>
			<point x="540" y="291"/>
			<point x="552" y="313" type="curve" smooth="yes"/>
			<point x="563" y="334"/>
			<point x="575" y="345"/>
			<point x="589" y="345" type="curve" smooth="yes"/>
			<point x="603" y="345"/>
			<point x="616" y="334"/>
			<point x="628" y="313" type="curve" smooth="yes"/>
			<point x="639" y="291"/>
			<point x="645" y="260"/>
		</contour>
		<contour>
			<point x="759" y="219" type="curve" smooth="yes"/>
			<point x="759" y="249"/>
			<point x="755" y="279"/>
			<point x="747" y="308" type="curve" smooth="yes"/>
			<point x="738" y="336"/>
			<point x="726" y="361"/>
			<point x="712" y="381" type="curve" smooth="yes"/>
			<point x="696" y="401"/>
			<point x="678" y="416"/>
			<point x="657" y="428" type="curve" smooth="yes"/>
			<point x="635" y="438"/>
			<point x="613" y="444"/>
			<point x="589" y="444" type="curve" smooth="yes"/>
			<point x="565" y="444"/>
			<point x="543" y="438"/>
			<point x="522" y="428" type="curve" smooth="yes"/>
			<point x="500" y="416"/>
			<point x="482" y="401"/>
			<point x="467" y="381" type="curve" smooth="yes"/>
			<point x="452" y="361"/>
			<point x="441" y="336"/>
			<point x="433" y="308" type="curve" smooth="yes"/>
			<point x="425" y="279"/>
			<point x="421" y="249"/>
			<point x="421" y="219" type="curve" smooth="yes"/>
			<point x="421" y="189"/>
			<point x="425" y="160"/>
			<point x="433" y="132" type="curve" smooth="yes"/>
			<point x="441" y="103"/>
			<point x="452" y="78"/>
			<point x="467" y="58" type="curve" smooth="yes"/>
			<point x="482" y="38"/>
			<point x="500" y="23"/>
			<point x="522" y="13" type="curve" smooth="yes"/>
			<point x="543" y="3"/>
			<point x="565" y="-2"/>
			<point x="589" y="-2" type="curve" smooth="yes"/>
			<point x="613" y="-2"/>
			<point x="635" y="3"/>
			<point x="657" y="13" type="curve" smooth="yes"/>
			<point x="678" y="23"/>
			<point x="696" y="38"/>
			<point x="712" y="58" type="curve" smooth="yes"/>
			<point x="726" y="78"/>
			<point x="738" y="103"/>
			<point x="747" y="132" type="curve" smooth="yes"/>
			<point x="755" y="160"/>
			<point x="759" y="189"/>
		</contour>
	</outline>
</glyph>
<glyph name="ampersand" format="2">
	<unicode hex="0026"/>
	<advance width="688"/>
	<outline>
		<contour>
			<point x="704" y="-15" type="line"/>
			<point x="571" y="161" type="line"/>
			<point x="658" y="258" type="line"/>
			<point x="570" y="338" type="line"/>
			<point x="499" y="255" type="line"/>
			<point x="381" y="409" type="line"/>
			<point x="432.48" y="438.417"/>
			<point x="502" y="505.957"/>
			<point x="502" y="585" type="curve" smooth="yes"/>
			<point x="498.129" y="685.639"/>
			<point x="421.579" y="743"/>
			<point x="320" y="743" type="curve" smooth="yes"/>
			<point x="222.209" y="743"/>
			<point x="144.4" y="679.94"/>
			<point x="144.4" y="583.168" type="curve" smooth="yes"/>
			<point x="144.4" y="516.78"/>
			<point x="180.207" y="468.011"/>
			<point x="215" y="428" type="curve"/>
			<point x="145" y="395"/>
			<point x="41.9122" y="269.387"/>
			<point x="41.9122" y="180.857" type="curve" smooth="yes"/>
			<point x="41.9122" y="57.4097"/>
			<point x="138.484" y="-26.2712"/>
			<point x="259.17" y="-26.2712" type="curve" smooth="yes"/>
			<point x="352.75" y="-26.2712"/>
			<point x="444.959" y="26.9591"/>
			<point x="488" y="70" type="curve"/>
			<point x="553" y="-15" type="line"/>
		</contour>
		<contour>
			<point x="377" y="591" type="curve" smooth="yes"/>
			<point x="377" y="550.139"/>
			<point x="333.25" y="513.323"/>
			<point x="311" y="495" type="curve"/>
			<point x="311" y="504.872"/>
			<point x="272" y="562.67"/>
			<point x="272" y="584" type="curve" smooth="yes"/>
			<point x="272" y="614.521"/>
			<point x="293.367" y="647"/>
			<point x="322" y="647" type="curve" smooth="yes"/>
			<point x="349.217" y="647"/>
			<point x="377" y="618.66"/>
		</contour>
		<contour>
			<point x="421" y="160" type="line"/>
			<point x="394.449" y="130.499"/>
			<point x="318.883" y="77"/>
			<point x="268" y="77" type="curve" smooth="yes"/>
			<point x="215.223" y="77"/>
			<point x="169.625" y="128.432"/>
			<point x="169.625" y="182.316" type="curve" smooth="yes"/>
			<point x="169.625" y="254.869"/>
			<point x="245.716" y="314.943"/>
			<point x="281" y="339" type="curve"/>
		</contour>
	</outline>
</glyph>
<glyph name="quotesingle" format="2">
	<unicode hex="0027"/>
	<advance width="291"/>
	<outline>
		<contour>
			<point x="187" y="793" type="line"/>
			<point x="48" y="793" type="line"/>
			<point x="64" y="526" type="line"/>
			<point x="173" y="526" type="line"/>
		</contour>
	</outline>
</glyph>
<glyph name="parenleft" format="2">
	<unicode hex="0028"/>
	<advance width="363"/>
	<outline>
		<contour>
			<point x="102" y="389" type="curve" smooth="yes"/>
			<point x="102" y="611"/>
			<point x="134" y="781"/>
			<point x="322" y="827" type="curve"/>
			<point x="322" y="737" type="line"/>
			<point x="241" y="697"/>
			<point x="229" y="542"/>
			<point x="229" y="421" type="curve" smooth="yes"/>
			<point x="229" y="238" type="line" smooth="yes"/>
			<point x="229" y="116"/>
			<point x="241" y="-38"/>
			<point x="322" y="-78" type="curve"/>
			<point x="322" y="-168" type="line"/>
			<point x="148.871" y="-125.659"/>
			<point x="101.459" y="30.0044"/>
			<point x="101.459" y="231.515" type="curve" smooth="yes"/>
			<point x="101.459" y="283.094"/>
			<point x="102" y="336.572"/>
		</contour>
	</outline>
</glyph>
<glyph name="parenright" format="2">
  <advance width="340"/>
  <unicode hex="0029"/>
  <outline>
    <contour>
      <point x="238" y="270" type="curve" smooth="yes"/>
      <point x="238" y="389" type="line" smooth="yes"/>
      <point x="238" y="424"/>
      <point x="236" y="463"/>
      <point x="233" y="507" type="curve" smooth="yes"/>
      <point x="229" y="549"/>
      <point x="222" y="591"/>
      <point x="212" y="631" type="curve" smooth="yes"/>
      <point x="200" y="673"/>
      <point x="182" y="713"/>
      <point x="156" y="750" type="curve" smooth="yes"/>
      <point x="130" y="786"/>
      <point x="84" y="811"/>
      <point x="18" y="827" type="curve"/>
      <point x="18" y="737" type="line"/>
      <point x="38" y="727"/>
      <point x="53" y="712"/>
      <point x="63" y="694" type="curve" smooth="yes"/>
      <point x="72" y="674"/>
      <point x="80" y="651"/>
      <point x="88" y="623" type="curve" smooth="yes"/>
      <point x="95" y="595"/>
      <point x="101" y="564"/>
      <point x="105" y="530" type="curve" smooth="yes"/>
      <point x="109" y="495"/>
      <point x="111" y="459"/>
      <point x="111" y="421" type="curve" smooth="yes"/>
      <point x="111" y="238" type="line" smooth="yes"/>
      <point x="111" y="200"/>
      <point x="109" y="164"/>
      <point x="105" y="130" type="curve" smooth="yes"/>
      <point x="101" y="95"/>
      <point x="95" y="64"/>
      <point x="88" y="36" type="curve" smooth="yes"/>
      <point x="80" y="8"/>
      <point x="72" y="-15"/>
      <point x="63" y="-35" type="curve" smooth="yes"/>
      <point x="53" y="-53"/>
      <point x="38" y="-68"/>
      <point x="18" y="-78" type="curve"/>
      <point x="18" y="-168" type="line"/>
      <point x="84" y="-152"/>
      <point x="130" y="-127"/>
      <point x="156" y="-91" type="curve" smooth="yes"/>
      <point x="182" y="-54"/>
      <point x="200" y="-14"/>
      <point x="212" y="28" type="curve" smooth="yes"/>
      <point x="222" y="68"/>
      <point x="230" y="109"/>
      <point x="234" y="153" type="curve" smooth="yes"/>
      <point x="237" y="196"/>
      <point x="238" y="235"/>
    </contour>
  </outline>
</glyph>
<glyph name="asterisk" format="2">
	<unicode hex="002A"/>
	<advance width="385"/>
	<outline>
		<contour>
			<point x="255" y="608" type="line"/>
			<point x="272" y="625" type="line"/>
			<point x="310" y="687" type="line"/>
			<point x="226" y="737" type="line"/>
			<point x="188" y="669" type="line"/>
			<point x="181" y="640" type="line"/>
			<point x="173" y="669" type="line"/>
			<point x="135" y="737" type="line"/>
			<point x="51" y="688" type="line"/>
			<point x="90" y="624" type="line"/>
			<point x="107" y="607" type="line"/>
			<point x="79" y="615" type="line"/>
			<point x="10" y="615" type="line"/>
			<point x="10" y="519" type="line"/>
			<point x="79" y="519" type="line"/>
			<point x="109" y="527" type="line"/>
			<point x="90" y="510" type="line"/>
			<point x="51" y="445" type="line"/>
			<point x="132" y="396" type="line"/>
			<point x="172" y="462" type="line"/>
			<point x="181" y="492" type="line"/>
			<point x="189" y="462" type="line"/>
			<point x="229" y="396" type="line"/>
			<point x="310" y="445" type="line"/>
			<point x="271" y="510" type="line"/>
			<point x="252" y="527" type="line"/>
			<point x="280" y="519" type="line"/>
			<point x="351" y="519" type="line"/>
			<point x="351" y="615" type="line"/>
			<point x="280" y="615" type="line"/>
		</contour>
	</outline>
</glyph>
<glyph name="plus" format="2">
	<unicode hex="002B"/>
	<advance width="536"/>
	<outline>
		<contour>
			<point x="496" y="307" type="line"/>
			<point x="496" y="416" type="line"/>
			<point x="317" y="416" type="line"/>
			<point x="317" y="618" type="line"/>
			<point x="199" y="618" type="line"/>
			<point x="199" y="416" type="line"/>
			<point x="21" y="416" type="line"/>
			<point x="21" y="307" type="line"/>
			<point x="199" y="307" type="line"/>
			<point x="199" y="106" type="line"/>
			<point x="317" y="106" type="line"/>
			<point x="317" y="307" type="line"/>
		</contour>
	</outline>
</glyph>
<glyph name="comma" format="2">
	<unicode hex="002C"/>
	<advance width="238"/>
	<outline>
		<contour>
			<point x="194" y="138" type="line"/>
			<point x="52" y="138" type="line"/>
			<point x="25" y="-130" type="line"/>
			<point x="136" y="-130" type="line"/>
		</contour>
	</outline>
</glyph>
<glyph name="hyphen" format="2">
	<unicode hex="002D"/>
	<advance width="405"/>
	<outline>
		<contour>
			<point x="359" y="303" type="line"/>
			<point x="359" y="419" type="line"/>
			<point x="18" y="419" type="line"/>
			<point x="18" y="303" type="line"/>
		</contour>
	</outline>
</glyph>
<glyph name="period" format="2">
	<unicode hex="002E"/>
	<advance width="238"/>
	<outline>
		<contour>
			<point x="185" y="-13" type="line"/>
			<point x="185" y="138" type="line"/>
			<point x="39" y="138" type="line"/>
			<point x="39" y="-13" type="line"/>
		</contour>
	</outline>
</glyph>
<glyph name="slash" format="2">
  <advance width="344"/>
  <unicode hex="002F"/>
  <outline>
    <contour>
      <point x="340" y="814" type="line"/>
      <point x="224" y="814" type="line"/>
      <point x="4" y="-155" type="line"/>
      <point x="119" y="-155" type="line"/>
    </contour>
  </outline>
</glyph>
<glyph name="zero" format="2">
	<unicode hex="0030"/>
	<advance width="490"/>
	<outline>
		<contour>
			<point x="245" y="76" type="curve" smooth="yes"/>
			<point x="235" y="76"/>
			<point x="224" y="80"/>
			<point x="212" y="90" type="curve" smooth="yes"/>
			<point x="199" y="99"/>
			<point x="188" y="116"/>
			<point x="178" y="140" type="curve" smooth="yes"/>
			<point x="168" y="165"/>
			<point x="161" y="196"/>
			<point x="157" y="234" type="curve" smooth="yes"/>
			<point x="151" y="271"/>
			<point x="149" y="310"/>
			<point x="149" y="350" type="curve" smooth="yes"/>
			<point x="149" y="390"/>
			<point x="151" y="429"/>
			<point x="157" y="467" type="curve" smooth="yes"/>
			<point x="162" y="503"/>
			<point x="169" y="534"/>
			<point x="179" y="560" type="curve" smooth="yes"/>
			<point x="188" y="585"/>
			<point x="199" y="602"/>
			<point x="212" y="612" type="curve" smooth="yes"/>
			<point x="224" y="621"/>
			<point x="235" y="626"/>
			<point x="245" y="626" type="curve" smooth="yes"/>
			<point x="254" y="626"/>
			<point x="265" y="621"/>
			<point x="278" y="612" type="curve" smooth="yes"/>
			<point x="290" y="602"/>
			<point x="301" y="585"/>
			<point x="311" y="560" type="curve" smooth="yes"/>
			<point x="320" y="534"/>
			<point x="327" y="503"/>
			<point x="333" y="467" type="curve" smooth="yes"/>
			<point x="338" y="429"/>
			<point x="341" y="390"/>
			<point x="341" y="350" type="curve" smooth="yes"/>
			<point x="341" y="310"/>
			<point x="338" y="271"/>
			<point x="334" y="234" type="curve" smooth="yes"/>
			<point x="328" y="196"/>
			<point x="321" y="165"/>
			<point x="311" y="140" type="curve" smooth="yes"/>
			<point x="301" y="116"/>
			<point x="290" y="99"/>
			<point x="278" y="90" type="curve" smooth="yes"/>
			<point x="265" y="80"/>
			<point x="254" y="76"/>
		</contour>
		<contour>
			<point x="245" y="-33" type="curve" smooth="yes"/>
			<point x="277" y="-33"/>
			<point x="308" y="-24"/>
			<point x="340" y="-7" type="curve" smooth="yes"/>
			<point x="370" y="11"/>
			<point x="395" y="38"/>
			<point x="414" y="74" type="curve" smooth="yes"/>
			<point x="432" y="109"/>
			<point x="446" y="151"/>
			<point x="455" y="200" type="curve" smooth="yes"/>
			<point x="463" y="248"/>
			<point x="468" y="298"/>
			<point x="468" y="350" type="curve" smooth="yes"/>
			<point x="468" y="402"/>
			<point x="463" y="452"/>
			<point x="455" y="501" type="curve" smooth="yes"/>
			<point x="446" y="549"/>
			<point x="432" y="591"/>
			<point x="414" y="627" type="curve" smooth="yes"/>
			<point x="394" y="663"/>
			<point x="369" y="690"/>
			<point x="339" y="708" type="curve" smooth="yes"/>
			<point x="308" y="726"/>
			<point x="277" y="735"/>
			<point x="245" y="735" type="curve" smooth="yes"/>
			<point x="213" y="735"/>
			<point x="181" y="726"/>
			<point x="151" y="708" type="curve" smooth="yes"/>
			<point x="120" y="690"/>
			<point x="95" y="663"/>
			<point x="76" y="627" type="curve" smooth="yes"/>
			<point x="57" y="591"/>
			<point x="43" y="549"/>
			<point x="35" y="501" type="curve" smooth="yes"/>
			<point x="26" y="452"/>
			<point x="22" y="402"/>
			<point x="22" y="350" type="curve" smooth="yes"/>
			<point x="22" y="298"/>
			<point x="26" y="248"/>
			<point x="35" y="200" type="curve" smooth="yes"/>
			<point x="43" y="151"/>
			<point x="57" y="109"/>
			<point x="76" y="74" type="curve" smooth="yes"/>
			<point x="94" y="38"/>
			<point x="119" y="11"/>
			<point x="151" y="-7" type="curve" smooth="yes"/>
			<point x="181" y="-24"/>
			<point x="213" y="-33"/>
		</contour>
	</outline>
</glyph>
<glyph name="one" format="2">
	<unicode hex="0031"/>
	<advance width="490"/>
	<outline>
		<contour>
			<point x="328" y="-24" type="line"/>
			<point x="328" y="727" type="line"/>
			<point x="229" y="727" type="line"/>
			<point x="80" y="630" type="line"/>
			<point x="80" y="503" type="line"/>
			<point x="204" y="578" type="line"/>
			<point x="204" y="-24" type="line"/>
		</contour>
	</outline>
</glyph>
<glyph name="two" format="2">
	<unicode hex="0032"/>
	<advance width="509"/>
	<outline>
		<contour>
			<point x="463" y="-16" type="line"/>
			<point x="463" y="98" type="line"/>
			<point x="200" y="98" type="line"/>
			<point x="236" y="133"/>
			<point x="277" y="179"/>
			<point x="323" y="236" type="curve" smooth="yes"/>
			<point x="368" y="292"/>
			<point x="403" y="347"/>
			<point x="429" y="401" type="curve" smooth="yes"/>
			<point x="440.993" y="430.982"/>
			<point x="450" y="472.781"/>
			<point x="450" y="517" type="curve" smooth="yes"/>
			<point x="450" y="643.928"/>
			<point x="373.868" y="732"/>
			<point x="248" y="732" type="curve" smooth="yes"/>
			<point x="99.4239" y="732"/>
			<point x="35" y="642.482"/>
			<point x="35" y="494" type="curve"/>
			<point x="163" y="494" type="line"/>
			<point x="163" y="574.317"/>
			<point x="175.353" y="627"/>
			<point x="245" y="627" type="curve" smooth="yes"/>
			<point x="296.797" y="627"/>
			<point x="324" y="569.118"/>
			<point x="324" y="517" type="curve" smooth="yes"/>
			<point x="324" y="490"/>
			<point x="319" y="463"/>
			<point x="309" y="437" type="curve" smooth="yes"/>
			<point x="296" y="399"/>
			<point x="257" y="339"/>
			<point x="193" y="259" type="curve" smooth="yes"/>
			<point x="128" y="178"/>
			<point x="76" y="120"/>
			<point x="36" y="85" type="curve"/>
			<point x="36" y="-16" type="line"/>
		</contour>
	</outline>
</glyph>
<glyph name="three" format="2">
	<unicode hex="0033"/>
	<advance width="490"/>
	<outline>
		<contour>
			<point x="465" y="197" type="curve" smooth="yes"/>
			<point x="465" y="231"/>
			<point x="460" y="258"/>
			<point x="451" y="280" type="curve" smooth="yes"/>
			<point x="441" y="301"/>
			<point x="429" y="320"/>
			<point x="413" y="336" type="curve" smooth="yes"/>
			<point x="393" y="353"/>
			<point x="377" y="364"/>
			<point x="366" y="370" type="curve"/>
			<point x="384" y="380"/>
			<point x="398" y="391"/>
			<point x="408" y="401" type="curve" smooth="yes"/>
			<point x="424" y="419"/>
			<point x="436" y="439"/>
			<point x="444" y="463" type="curve" smooth="yes"/>
			<point x="451" y="486"/>
			<point x="455" y="507"/>
			<point x="455" y="526" type="curve" smooth="yes"/>
			<point x="455" y="558"/>
			<point x="450" y="587"/>
			<point x="441" y="612" type="curve" smooth="yes"/>
			<point x="431" y="636"/>
			<point x="415" y="657"/>
			<point x="395" y="676" type="curve" smooth="yes"/>
			<point x="377" y="694"/>
			<point x="353" y="707"/>
			<point x="325" y="716" type="curve" smooth="yes"/>
			<point x="295" y="724"/>
			<point x="268" y="728"/>
			<point x="242" y="730" type="curve" smooth="yes"/>
			<point x="205" y="730"/>
			<point x="173" y="724"/>
			<point x="147" y="713" type="curve" smooth="yes"/>
			<point x="119" y="701"/>
			<point x="97" y="687"/>
			<point x="80" y="671" type="curve" smooth="yes"/>
			<point x="64" y="653"/>
			<point x="52" y="633"/>
			<point x="46" y="611" type="curve" smooth="yes"/>
			<point x="38" y="588"/>
			<point x="35" y="562"/>
			<point x="35" y="532" type="curve"/>
			<point x="159" y="532" type="line"/>
			<point x="162" y="565"/>
			<point x="171" y="589"/>
			<point x="187" y="604" type="curve" smooth="yes"/>
			<point x="201" y="618"/>
			<point x="221" y="626"/>
			<point x="246" y="626" type="curve" smooth="yes"/>
			<point x="265" y="626"/>
			<point x="284" y="618"/>
			<point x="302" y="602" type="curve" smooth="yes"/>
			<point x="320" y="585"/>
			<point x="329" y="560"/>
			<point x="329" y="526" type="curve" smooth="yes"/>
			<point x="329" y="495"/>
			<point x="318" y="470"/>
			<point x="298" y="450" type="curve" smooth="yes"/>
			<point x="277" y="430"/>
			<point x="236" y="420"/>
			<point x="176" y="420" type="curve"/>
			<point x="176" y="317" type="line"/>
			<point x="205" y="317"/>
			<point x="228" y="315"/>
			<point x="245" y="312" type="curve" smooth="yes"/>
			<point x="261" y="308"/>
			<point x="277" y="301"/>
			<point x="291" y="293" type="curve" smooth="yes"/>
			<point x="303" y="285"/>
			<point x="314" y="273"/>
			<point x="324" y="258" type="curve" smooth="yes"/>
			<point x="334" y="242"/>
			<point x="339" y="222"/>
			<point x="339" y="197" type="curve" smooth="yes"/>
			<point x="339" y="159"/>
			<point x="329" y="129"/>
			<point x="309" y="107" type="curve" smooth="yes"/>
			<point x="289" y="84"/>
			<point x="265" y="73"/>
			<point x="239" y="73" type="curve" smooth="yes"/>
			<point x="226" y="73"/>
			<point x="215" y="75"/>
			<point x="206" y="80" type="curve" smooth="yes"/>
			<point x="196" y="84"/>
			<point x="187" y="89"/>
			<point x="181" y="95" type="curve" smooth="yes"/>
			<point x="173" y="102"/>
			<point x="168" y="111"/>
			<point x="164" y="122" type="curve" smooth="yes"/>
			<point x="160" y="132"/>
			<point x="158" y="148"/>
			<point x="158" y="170" type="curve"/>
			<point x="20" y="170" type="line"/>
			<point x="24" y="130"/>
			<point x="31" y="99"/>
			<point x="41" y="77" type="curve" smooth="yes"/>
			<point x="50" y="54"/>
			<point x="63" y="35"/>
			<point x="81" y="20" type="curve" smooth="yes"/>
			<point x="97" y="4"/>
			<point x="120" y="-7"/>
			<point x="148" y="-17" type="curve" smooth="yes"/>
			<point x="175" y="-26"/>
			<point x="206" y="-31"/>
			<point x="242" y="-31" type="curve" smooth="yes"/>
			<point x="279" y="-31"/>
			<point x="313" y="-24"/>
			<point x="343" y="-12" type="curve" smooth="yes"/>
			<point x="373" y="0"/>
			<point x="397" y="18"/>
			<point x="415" y="42" type="curve" smooth="yes"/>
			<point x="431" y="62"/>
			<point x="443" y="87"/>
			<point x="452" y="117" type="curve" smooth="yes"/>
			<point x="460" y="145"/>
			<point x="465" y="172"/>
		</contour>
	</outline>
</glyph>
<glyph name="four" format="2">
	<unicode hex="0034"/>
	<advance width="490"/>
	<outline>
		<contour>
			<point x="487" y="169" type="line"/>
			<point x="487" y="283" type="line"/>
			<point x="387" y="283" type="line"/>
			<point x="387" y="732" type="line"/>
			<point x="283" y="732" type="line"/>
			<point x="4" y="259" type="line"/>
			<point x="4" y="169" type="line"/>
			<point x="265" y="169" type="line"/>
			<point x="265" y="-19" type="line"/>
			<point x="387" y="-19" type="line"/>
			<point x="387" y="169" type="line"/>
		</contour>
		<contour>
			<point x="265" y="283" type="line"/>
			<point x="144" y="283" type="line"/>
			<point x="265" y="488" type="line"/>
		</contour>
	</outline>
</glyph>
<glyph name="five" format="2">
	<unicode hex="0035"/>
	<advance width="509"/>
	<outline>
		<contour>
			<point x="466" y="210" type="curve" smooth="yes"/>
			<point x="466" y="351.217"/>
			<point x="394.332" y="448"/>
			<point x="251" y="448" type="curve" smooth="yes"/>
			<point x="221" y="448"/>
			<point x="195" y="441"/>
			<point x="171" y="427" type="curve"/>
			<point x="182" y="607" type="line"/>
			<point x="429" y="607" type="line"/>
			<point x="429" y="721" type="line"/>
			<point x="64" y="721" type="line"/>
			<point x="45" y="284" type="line"/>
			<point x="162" y="284" type="line"/>
			<point x="177.255" y="317.562"/>
			<point x="199.523" y="343"/>
			<point x="241" y="343" type="curve" smooth="yes"/>
			<point x="305.275" y="343"/>
			<point x="339" y="284.014"/>
			<point x="339" y="211" type="curve" smooth="yes"/>
			<point x="335.777" y="140.092"/>
			<point x="297.267" y="74"/>
			<point x="233" y="74" type="curve" smooth="yes"/>
			<point x="176.76" y="74"/>
			<point x="160" y="105.555"/>
			<point x="160" y="164" type="curve"/>
			<point x="28" y="164" type="line"/>
			<point x="28" y="30.852"/>
			<point x="99.33" y="-31"/>
			<point x="233" y="-31" type="curve" smooth="yes"/>
			<point x="378.01" y="-31"/>
			<point x="466" y="65.7836"/>
		</contour>
	</outline>
</glyph>
<glyph name="six" format="2">
	<unicode hex="0036"/>
	<advance width="524"/>
	<outline>
		<contour>
			<point x="250" y="-31" type="curve" smooth="yes"/>
			<point x="391.875" y="-31"/>
			<point x="467" y="66.5142"/>
			<point x="467" y="211" type="curve" smooth="yes"/>
			<point x="467" y="358.814"/>
			<point x="397.101" y="457"/>
			<point x="249" y="457" type="curve" smooth="yes"/>
			<point x="211.267" y="457"/>
			<point x="168.376" y="433.07"/>
			<point x="149" y="418" type="curve"/>
			<point x="149" y="434" type="line" smooth="yes"/>
			<point x="149" y="504.467"/>
			<point x="179.371" y="627"/>
			<point x="250" y="627" type="curve" smooth="yes"/>
			<point x="305.307" y="627"/>
			<point x="319" y="586.928"/>
			<point x="319" y="529" type="curve"/>
			<point x="455" y="529" type="line"/>
			<point x="455" y="657.227"/>
			<point x="379.944" y="731"/>
			<point x="252" y="731" type="curve" smooth="yes"/>
			<point x="63.5238" y="731"/>
			<point x="24" y="549.721"/>
			<point x="24" y="363" type="curve" smooth="yes"/>
			<point x="24" y="150.927"/>
			<point x="45.4233" y="-31"/>
		</contour>
		<contour>
			<point x="342" y="212" type="curve" smooth="yes"/>
			<point x="342" y="144.851"/>
			<point x="315.019" y="74"/>
			<point x="251" y="74" type="curve" smooth="yes"/>
			<point x="186.282" y="74"/>
			<point x="160" y="145.727"/>
			<point x="160" y="212" type="curve" smooth="yes"/>
			<point x="160" y="278.104"/>
			<point x="186.032" y="352"/>
			<point x="251" y="352" type="curve" smooth="yes"/>
			<point x="315.284" y="352"/>
			<point x="342" y="279.243"/>
		</contour>
	</outline>
</glyph>
<glyph name="seven" format="2">
	<unicode hex="0037"/>
	<advance width="509"/>
	<outline>
		<contour>
			<point x="461" y="623" type="line"/>
			<point x="461" y="717" type="line"/>
			<point x="27" y="717" type="line"/>
			<point x="27" y="601" type="line"/>
			<point x="323" y="601" type="line"/>
			<point x="91" y="-24" type="line"/>
			<point x="222" y="-24" type="line"/>
		</contour>
	</outline>
</glyph>
<glyph name="eight" format="2">
	<unicode hex="0038"/>
	<advance width="490"/>
	<outline>
		<contour>
			<point x="332" y="522" type="curve" smooth="yes"/>
			<point x="332" y="464.849"/>
			<point x="296.718" y="419"/>
			<point x="244" y="419" type="curve" smooth="yes"/>
			<point x="192.025" y="419"/>
			<point x="158" y="466.05"/>
			<point x="158" y="522" type="curve" smooth="yes"/>
			<point x="158" y="577.751"/>
			<point x="190.619" y="628"/>
			<point x="244" y="628" type="curve" smooth="yes"/>
			<point x="297.649" y="628"/>
			<point x="332" y="578.929"/>
		</contour>
		<contour>
			<point x="457" y="522" type="curve" smooth="yes"/>
			<point x="457" y="645.45"/>
			<point x="368.122" y="731"/>
			<point x="244" y="731" type="curve" smooth="yes"/>
			<point x="119.433" y="731"/>
			<point x="33" y="644.58"/>
			<point x="33" y="522" type="curve" smooth="yes"/>
			<point x="33" y="453.465"/>
			<point x="61.5334" y="392.552"/>
			<point x="108" y="366" type="curve"/>
			<point x="55.1993" y="334.32"/>
			<point x="21" y="270.558"/>
			<point x="21" y="191" type="curve" smooth="yes"/>
			<point x="21" y="52.4585"/>
			<point x="105.349" y="-32"/>
			<point x="244" y="-32" type="curve" smooth="yes"/>
			<point x="381.727" y="-32"/>
			<point x="467" y="52.3184"/>
			<point x="467" y="191" type="curve" smooth="yes"/>
			<point x="467" y="272.261"/>
			<point x="430.921" y="332.053"/>
			<point x="380" y="366" type="curve"/>
			<point x="425.386" y="396.257"/>
			<point x="457" y="449.4"/>
		</contour>
		<contour>
			<point x="244" y="75" type="curve" smooth="yes"/>
			<point x="185.546" y="75"/>
			<point x="147" y="128.828"/>
			<point x="147" y="191" type="curve" smooth="yes"/>
			<point x="147" y="253.383"/>
			<point x="185.191" y="312"/>
			<point x="244" y="312" type="curve" smooth="yes"/>
			<point x="302.45" y="312"/>
			<point x="341" y="254.478"/>
			<point x="341" y="191" type="curve" smooth="yes"/>
			<point x="341" y="128.795"/>
			<point x="301.61" y="75"/>
		</contour>
	</outline>
</glyph>
<glyph name="nine" format="2">
	<unicode hex="0039"/>
	<advance width="524"/>
	<outline>
		<contour>
			<point x="240" y="731" type="curve" smooth="yes"/>
			<point x="97.1771" y="731"/>
			<point x="23" y="630.52"/>
			<point x="23" y="487" type="curve" smooth="yes"/>
			<point x="23" y="339.388"/>
			<point x="93.0925" y="243"/>
			<point x="241" y="243" type="curve" smooth="yes"/>
			<point x="277.965" y="243"/>
			<point x="320.224" y="264.379"/>
			<point x="341" y="281" type="curve"/>
			<point x="341" y="264" type="line" smooth="yes"/>
			<point x="341" y="192.636"/>
			<point x="308.917" y="73"/>
			<point x="240" y="73" type="curve" smooth="yes"/>
			<point x="182.703" y="73"/>
			<point x="171" y="111.119"/>
			<point x="171" y="171" type="curve"/>
			<point x="35" y="171" type="line"/>
			<point x="35" y="41.0064"/>
			<point x="108.878" y="-31"/>
			<point x="238" y="-31" type="curve" smooth="yes"/>
			<point x="424.116" y="-31"/>
			<point x="466" y="147.767"/>
			<point x="466" y="335" type="curve" smooth="yes"/>
			<point x="466" y="547.226"/>
			<point x="443.344" y="731"/>
		</contour>
		<contour>
			<point x="148" y="486" type="curve" smooth="yes"/>
			<point x="148" y="552.104"/>
			<point x="174.032" y="626"/>
			<point x="239" y="626" type="curve" smooth="yes"/>
			<point x="303.284" y="626"/>
			<point x="330" y="553.243"/>
			<point x="330" y="486" type="curve" smooth="yes"/>
			<point x="330" y="418.591"/>
			<point x="303.102" y="348"/>
			<point x="239" y="348" type="curve" smooth="yes"/>
			<point x="174.282" y="348"/>
			<point x="148" y="419.727"/>
		</contour>
	</outline>
</glyph>
<glyph name="colon" format="2">
	<unicode hex="003A"/>
	<advance width="362"/>
	<outline>
		<contour>
			<point x="254" y="50" type="line"/>
			<point x="254" y="201" type="line"/>
			<point x="108" y="201" type="line"/>
			<point x="108" y="50" type="line"/>
		</contour>
		<contour>
			<point x="254" y="445" type="line"/>
			<point x="254" y="596" type="line"/>
			<point x="108" y="596" type="line"/>
			<point x="108" y="445" type="line"/>
		</contour>
	</outline>
</glyph>
<glyph name="semicolon" format="2">
	<unicode hex="003B"/>
	<advance width="376"/>
	<outline>
		<contour>
			<point x="259" y="138" type="line"/>
			<point x="117" y="138" type="line"/>
			<point x="90" y="-130" type="line"/>
			<point x="201" y="-130" type="line"/>
		</contour>
		<contour>
			<point x="254" y="366" type="line"/>
			<point x="254" y="517" type="line"/>
			<point x="108" y="517" type="line"/>
			<point x="108" y="366" type="line"/>
		</contour>
	</outline>
</glyph>
<glyph name="less" format="2">
	<unicode hex="003C"/>
	<advance width="544"/>
	<outline>
		<contour>
			<point x="64" y="320" type="line"/>
			<point x="493" y="-70" type="line"/>
			<point x="493" y="75" type="line"/>
			<point x="176" y="362" type="line"/>
			<point x="493" y="649" type="line"/>
			<point x="493" y="794" type="line"/>
			<point x="64" y="404" type="line"/>
		</contour>
	</outline>
</glyph>
<glyph name="equal" format="2">
  <advance width="524"/>
  <unicode hex="003D"/>
  <outline>
    <contour>
      <point x="495" y="414" type="line"/>
      <point x="495" y="523" type="line"/>
      <point x="28" y="523" type="line"/>
      <point x="28" y="414" type="line"/>
    </contour>
    <contour>
      <point x="495" y="202" type="line"/>
      <point x="495" y="311" type="line"/>
      <point x="28" y="311" type="line"/>
      <point x="28" y="202" type="line"/>
    </contour>
  </outline>
</glyph>
<glyph name="greater" format="2">
	<unicode hex="003E"/>
	<advance width="560"/>
	<outline>
		<contour>
			<point x="460" y="320" type="line"/>
			<point x="460" y="404" type="line"/>
			<point x="31" y="794" type="line"/>
			<point x="31" y="649" type="line"/>
			<point x="348" y="362" type="line"/>
			<point x="31" y="75" type="line"/>
			<point x="31" y="-70" type="line"/>
		</contour>
	</outline>
</glyph>
<glyph name="question" format="2">
	<unicode hex="003F"/>
	<advance width="443"/>
	<outline>
		<contour>
			<point x="407" y="569" type="curve" smooth="yes"/>
			<point x="407" y="693.056"/>
			<point x="309" y="764"/>
			<point x="187" y="764" type="curve" smooth="yes"/>
			<point x="114.586" y="764"/>
			<point x="70.3719" y="744.83"/>
			<point x="12" y="726" type="curve"/>
			<point x="12" y="600" type="line"/>
			<point x="83.9135" y="629.703"/>
			<point x="110.689" y="652"/>
			<point x="184" y="652" type="curve" smooth="yes"/>
			<point x="234.831" y="652"/>
			<point x="279" y="617.187"/>
			<point x="279" y="566" type="curve" smooth="yes"/>
			<point x="279" y="419.611"/>
			<point x="106" y="411.916"/>
			<point x="106" y="231" type="curve" smooth="yes"/>
			<point x="106" y="156" type="line"/>
			<point x="233" y="156" type="line"/>
			<point x="233" y="207" type="line" smooth="yes"/>
			<point x="233" y="385.076"/>
			<point x="407" y="394.468"/>
		</contour>
		<contour>
			<point x="244" y="-13" type="line"/>
			<point x="244" y="138" type="line"/>
			<point x="98" y="138" type="line"/>
			<point x="98" y="-13" type="line"/>
		</contour>
	</outline>
</glyph>
<glyph name="at" format="2">
	<unicode hex="0040"/>
	<advance width="890"/>
	<outline>
		<contour>
			<point x="837.545" y="354.255" type="curve" smooth="yes"/>
			<point x="837.545" y="572.077"/>
			<point x="695.385" y="730.379"/>
			<point x="481.375" y="730.379" type="curve" smooth="yes"/>
			<point x="219.875" y="730.379"/>
			<point x="55.6759" y="476.76"/>
			<point x="55.6759" y="216.123" type="curve" smooth="yes"/>
			<point x="55.6759" y="-31.6611"/>
			<point x="207.932" y="-168"/>
			<point x="449" y="-168" type="curve" smooth="yes"/>
			<point x="600.757" y="-168"/>
			<point x="706.075" y="-114.695"/>
			<point x="768" y="-28" type="curve"/>
			<point x="717" y="35" type="line"/>
			<point x="653.617" y="-28.3825"/>
			<point x="577.178" y="-75"/>
			<point x="452" y="-75" type="curve" smooth="yes"/>
			<point x="277.962" y="-75"/>
			<point x="166.265" y="31.0347"/>
			<point x="166.265" y="206.735" type="curve" smooth="yes"/>
			<point x="166.265" y="411.035"/>
			<point x="287.36" y="629"/>
			<point x="496" y="629" type="curve" smooth="yes"/>
			<point x="645.97" y="629"/>
			<point x="738.214" y="496.878"/>
			<point x="738.214" y="345.534" type="curve" smooth="yes"/>
			<point x="738.214" y="241.39"/>
			<point x="676.13" y="81.2546"/>
			<point x="580.623" y="81.2546" type="curve" smooth="yes"/>
			<point x="572.78" y="81.2546"/>
			<point x="568.575" y="85.0377"/>
			<point x="568.575" y="93.5764" type="curve" smooth="yes"/>
			<point x="568.575" y="99.2234"/>
			<point x="570.352" y="106.968"/>
			<point x="574" y="117" type="curve" smooth="yes"/>
			<point x="590" y="166"/>
			<point x="611" y="228"/>
			<point x="638" y="304" type="curve" smooth="yes"/>
			<point x="664" y="379"/>
			<point x="686" y="441"/>
			<point x="702" y="490" type="curve"/>
			<point x="594" y="490" type="line"/>
			<point x="584" y="459" type="line"/>
			<point x="567.058" y="488.648"/>
			<point x="533.682" y="513"/>
			<point x="486" y="513" type="curve" smooth="yes"/>
			<point x="331.114" y="513"/>
			<point x="229.4" y="304.868"/>
			<point x="229.4" y="153.992" type="curve" smooth="yes"/>
			<point x="229.4" y="59.7494"/>
			<point x="280.218" y="-9"/>
			<point x="373" y="-9" type="curve" smooth="yes"/>
			<point x="412.28" y="-9"/>
			<point x="457.966" y="15.708"/>
			<point x="475" y="37" type="curve"/>
			<point x="475" y="4.62578"/>
			<point x="512.184" y="-22.3361"/>
			<point x="553.577" y="-22.3361" type="curve" smooth="yes"/>
			<point x="731.308" y="-22.3361"/>
			<point x="837.545" y="173.015"/>
		</contour>
		<contour>
			<point x="533" y="362" type="curve" smooth="yes"/>
			<point x="533" y="273.768"/>
			<point x="469.588" y="89"/>
			<point x="382" y="89" type="curve" smooth="yes"/>
			<point x="354.48" y="89"/>
			<point x="340.862" y="110.472"/>
			<point x="340.862" y="139.831" type="curve" smooth="yes"/>
			<point x="340.862" y="231.254"/>
			<point x="415.528" y="416"/>
			<point x="497" y="416" type="curve" smooth="yes"/>
			<point x="520.107" y="416"/>
			<point x="533" y="386.511"/>
		</contour>
	</outline>
</glyph>
<glyph name="A" format="2">
	<unicode hex="0041"/>
	<advance width="609"/>
	<outline>
		<contour>
			<point x="581" y="-16" type="line"/>
			<point x="345" y="729" type="line"/>
			<point x="224" y="729" type="line"/>
			<point x="-12" y="-16" type="line"/>
			<point x="119" y="-16" type="line"/>
			<point x="185" y="203" type="line"/>
			<point x="384" y="203" type="line"/>
			<point x="450" y="-16" type="line"/>
		</contour>
		<contour>
			<point x="350" y="316" type="line"/>
			<point x="219" y="316" type="line"/>
			<point x="285" y="533" type="line"/>
		</contour>
	</outline>
</glyph>
<glyph name="B" format="2">
	<unicode hex="0042"/>
	<advance width="550"/>
	<outline>
		<contour>
			<point x="510" y="204" type="curve" smooth="yes"/>
			<point x="510" y="302.389"/>
			<point x="463.817" y="349.768"/>
			<point x="397" y="379" type="curve"/>
			<point x="447.268" y="400.267"/>
			<point x="484" y="450.221"/>
			<point x="484" y="522" type="curve" smooth="yes"/>
			<point x="484" y="659.261"/>
			<point x="389.128" y="729"/>
			<point x="249" y="729" type="curve" smooth="yes"/>
			<point x="44" y="729" type="line"/>
			<point x="44" y="-16" type="line"/>
			<point x="261" y="-16" type="line" smooth="yes"/>
			<point x="408.441" y="-16"/>
			<point x="510" y="55.3523"/>
		</contour>
		<contour>
			<point x="169" y="95" type="line"/>
			<point x="169" y="318" type="line"/>
			<point x="249" y="318" type="line" smooth="yes"/>
			<point x="329.069" y="318"/>
			<point x="384" y="282.046"/>
			<point x="384" y="204" type="curve" smooth="yes"/>
			<point x="384" y="125.58"/>
			<point x="331.996" y="95"/>
			<point x="250" y="95" type="curve" smooth="yes"/>
		</contour>
		<contour>
			<point x="358" y="522" type="curve" smooth="yes"/>
			<point x="358" y="466.627"/>
			<point x="319.65" y="434.729"/>
			<point x="270" y="429" type="curve"/>
			<point x="169" y="429" type="line"/>
			<point x="169" y="618" type="line"/>
			<point x="230" y="618" type="line" smooth="yes"/>
			<point x="306.758" y="618"/>
			<point x="358" y="598.464"/>
		</contour>
	</outline>
</glyph>
<glyph name="C" format="2">
	<unicode hex="0043"/>
	<advance width="573"/>
	<outline>
		<contour>
			<point x="562" y="493" type="line"/>
			<point x="562" y="542"/>
			<point x="555" y="580"/>
			<point x="543" y="608" type="curve" smooth="yes"/>
			<point x="529" y="635"/>
			<point x="512" y="658"/>
			<point x="490" y="678" type="curve" smooth="yes"/>
			<point x="468" y="697"/>
			<point x="443" y="713"/>
			<point x="414" y="725" type="curve" smooth="yes"/>
			<point x="384" y="736"/>
			<point x="353" y="742"/>
			<point x="321" y="742" type="curve" smooth="yes"/>
			<point x="267" y="742"/>
			<point x="221" y="730"/>
			<point x="183" y="708" type="curve" smooth="yes"/>
			<point x="143" y="685"/>
			<point x="111" y="657"/>
			<point x="86" y="623" type="curve" smooth="yes"/>
			<point x="60" y="589"/>
			<point x="41" y="550"/>
			<point x="30" y="506" type="curve" smooth="yes"/>
			<point x="18" y="461"/>
			<point x="13" y="415"/>
			<point x="13" y="367" type="curve" smooth="yes"/>
			<point x="13" y="319"/>
			<point x="18" y="273"/>
			<point x="29" y="227" type="curve" smooth="yes"/>
			<point x="39" y="181"/>
			<point x="57" y="139"/>
			<point x="83" y="101" type="curve" smooth="yes"/>
			<point x="109" y="62"/>
			<point x="142" y="31"/>
			<point x="182" y="8" type="curve" smooth="yes"/>
			<point x="221" y="-16"/>
			<point x="268" y="-28"/>
			<point x="322" y="-28" type="curve" smooth="yes"/>
			<point x="372" y="-28"/>
			<point x="418" y="-22"/>
			<point x="462" y="-10" type="curve" smooth="yes"/>
			<point x="478" y="-4"/>
			<point x="494" y="2"/>
			<point x="510" y="10" type="curve" smooth="yes"/>
			<point x="525" y="17"/>
			<point x="535" y="22"/>
			<point x="539" y="25" type="curve"/>
			<point x="539" y="158" type="line"/>
			<point x="498" y="129"/>
			<point x="463" y="109"/>
			<point x="433" y="99" type="curve" smooth="yes"/>
			<point x="402" y="88"/>
			<point x="372" y="83"/>
			<point x="343" y="83" type="curve" smooth="yes"/>
			<point x="303" y="83"/>
			<point x="270" y="92"/>
			<point x="244" y="112" type="curve" smooth="yes"/>
			<point x="218" y="131"/>
			<point x="197" y="155"/>
			<point x="182" y="185" type="curve" smooth="yes"/>
			<point x="166" y="216"/>
			<point x="155" y="248"/>
			<point x="150" y="282" type="curve" smooth="yes"/>
			<point x="144" y="315"/>
			<point x="141" y="343"/>
			<point x="141" y="367" type="curve" smooth="yes"/>
			<point x="141" y="404"/>
			<point x="146" y="441"/>
			<point x="157" y="478" type="curve" smooth="yes"/>
			<point x="167" y="514"/>
			<point x="180" y="543"/>
			<point x="198" y="567" type="curve" smooth="yes"/>
			<point x="216" y="589"/>
			<point x="235" y="606"/>
			<point x="256" y="616" type="curve" smooth="yes"/>
			<point x="276" y="626"/>
			<point x="298" y="631"/>
			<point x="321" y="631" type="curve" smooth="yes"/>
			<point x="349" y="631"/>
			<point x="374" y="622"/>
			<point x="395" y="604" type="curve" smooth="yes"/>
			<point x="405" y="595"/>
			<point x="413" y="583"/>
			<point x="421" y="569" type="curve" smooth="yes"/>
			<point x="427" y="553"/>
			<point x="431" y="528"/>
			<point x="431" y="493" type="curve"/>
		</contour>
	</outline>
</glyph>
<glyph name="D" format="2">
	<unicode hex="0044"/>
	<advance width="578"/>
	<outline>
		<contour>
			<point x="169" y="616" type="line"/>
			<point x="220" y="616" type="line" smooth="yes"/>
			<point x="373.858" y="616"/>
			<point x="433" y="511.898"/>
			<point x="433" y="355" type="curve" smooth="yes"/>
			<point x="433" y="198.228"/>
			<point x="374.511" y="97"/>
			<point x="220" y="97" type="curve" smooth="yes"/>
			<point x="169" y="97" type="line"/>
		</contour>
		<contour>
			<point x="44" y="729" type="line"/>
			<point x="44" y="-16" type="line"/>
			<point x="212" y="-16" type="line" smooth="yes"/>
			<point x="447.431" y="-16"/>
			<point x="559" y="118.386"/>
			<point x="559" y="355" type="curve" smooth="yes"/>
			<point x="559" y="591.817"/>
			<point x="448.189" y="729"/>
			<point x="212" y="729" type="curve" smooth="yes"/>
		</contour>
	</outline>
</glyph>
<glyph name="E" format="2">
	<unicode hex="0045"/>
	<advance width="513"/>
	<outline>
		<contour>
			<point x="456" y="-16" type="line"/>
			<point x="456" y="97" type="line"/>
			<point x="170" y="97" type="line"/>
			<point x="170" y="316" type="line"/>
			<point x="436" y="316" type="line"/>
			<point x="436" y="429" type="line"/>
			<point x="170" y="429" type="line"/>
			<point x="170" y="616" type="line"/>
			<point x="448" y="616" type="line"/>
			<point x="448" y="729" type="line"/>
			<point x="44" y="729" type="line"/>
			<point x="44" y="-16" type="line"/>
		</contour>
	</outline>
</glyph>
<glyph name="F" format="2">
	<unicode hex="0046"/>
	<advance width="457"/>
	<outline>
		<contour>
			<point x="448" y="616" type="line"/>
			<point x="448" y="729" type="line"/>
			<point x="44" y="729" type="line"/>
			<point x="44" y="-16" type="line"/>
			<point x="170" y="-16" type="line"/>
			<point x="170" y="316" type="line"/>
			<point x="438" y="316" type="line"/>
			<point x="438" y="429" type="line"/>
			<point x="170" y="429" type="line"/>
			<point x="170" y="616" type="line"/>
		</contour>
	</outline>
</glyph>
<glyph name="G" format="2">
	<unicode hex="0047"/>
	<advance width="622"/>
	<outline>
		<contour>
			<point x="562" y="493" type="line"/>
			<point x="562" y="646.96"/>
			<point x="469.329" y="742"/>
			<point x="321" y="742" type="curve" smooth="yes"/>
			<point x="114.181" y="742"/>
			<point x="13" y="574.098"/>
			<point x="13" y="368" type="curve" smooth="yes"/>
			<point x="13" y="156.199"/>
			<point x="110.445" y="-27"/>
			<point x="322" y="-27" type="curve" smooth="yes"/>
			<point x="413" y="-27"/>
			<point x="491" y="-6"/>
			<point x="556" y="35" type="curve"/>
			<point x="556" y="402" type="line"/>
			<point x="277" y="402" type="line"/>
			<point x="277" y="288" type="line"/>
			<point x="430" y="288" type="line"/>
			<point x="430" y="96" type="line"/>
			<point x="404" y="88"/>
			<point x="375" y="84"/>
			<point x="343" y="84" type="curve" smooth="yes"/>
			<point x="197.326" y="84"/>
			<point x="141" y="226.213"/>
			<point x="141" y="368" type="curve" smooth="yes"/>
			<point x="141" y="497.117"/>
			<point x="193.673" y="631"/>
			<point x="321" y="631" type="curve"/>
			<point x="398.546" y="624.538"/>
			<point x="431" y="583.409"/>
			<point x="431" y="493" type="curve"/>
		</contour>
	</outline>
</glyph>
<glyph name="H" format="2">
	<unicode hex="0048"/>
	<advance width="579"/>
	<outline>
		<contour>
			<point x="535" y="-16" type="line"/>
			<point x="535" y="729" type="line"/>
			<point x="409" y="729" type="line"/>
			<point x="409" y="427" type="line"/>
			<point x="170" y="427" type="line"/>
			<point x="170" y="729" type="line"/>
			<point x="44" y="729" type="line"/>
			<point x="44" y="-16" type="line"/>
			<point x="170" y="-16" type="line"/>
			<point x="170" y="314" type="line"/>
			<point x="409" y="314" type="line"/>
			<point x="409" y="-16" type="line"/>
		</contour>
	</outline>
</glyph>
<glyph name="I" format="2">
	<unicode hex="0049"/>
	<advance width="230"/>
	<outline>
		<contour>
			<point x="174" y="-16" type="line"/>
			<point x="174" y="729" type="line"/>
			<point x="48" y="729" type="line"/>
			<point x="48" y="-16" type="line"/>
		</contour>
	</outline>
</glyph>
<glyph name="J" format="2">
  <advance width="343"/>
  <unicode hex="004A"/>
  <outline>
    <contour>
      <point x="299" y="159" type="curve" smooth="yes"/>
      <point x="299" y="729" type="line"/>
      <point x="173" y="729" type="line"/>
      <point x="173" y="175" type="line" smooth="yes"/>
      <point x="173" y="155"/>
      <point x="171" y="139"/>
      <point x="167" y="129" type="curve" smooth="yes"/>
      <point x="162" y="117"/>
      <point x="157" y="109"/>
      <point x="151" y="104" type="curve" smooth="yes"/>
      <point x="143" y="96"/>
      <point x="134" y="91"/>
      <point x="126" y="89" type="curve" smooth="yes"/>
      <point x="117" y="86"/>
      <point x="108" y="85"/>
      <point x="98" y="85" type="curve" smooth="yes"/>
      <point x="85" y="85"/>
      <point x="70" y="86"/>
      <point x="54" y="89" type="curve" smooth="yes"/>
      <point x="37" y="91"/>
      <point x="14" y="99"/>
      <point x="-15" y="111" type="curve"/>
      <point x="-15" y="-8" type="line"/>
      <point x="8" y="-16"/>
      <point x="28" y="-22"/>
      <point x="45" y="-24" type="curve" smooth="yes"/>
      <point x="61" y="-26"/>
      <point x="77" y="-27"/>
      <point x="92" y="-27" type="curve" smooth="yes"/>
      <point x="134" y="-27"/>
      <point x="168" y="-21"/>
      <point x="195" y="-10" type="curve" smooth="yes"/>
      <point x="221" y="2"/>
      <point x="243" y="17"/>
      <point x="259" y="36" type="curve" smooth="yes"/>
      <point x="273" y="52"/>
      <point x="283" y="72"/>
      <point x="290" y="95" type="curve" smooth="yes"/>
      <point x="296" y="117"/>
      <point x="299" y="139"/>
    </contour>
  </outline>
</glyph>
<glyph name="K" format="2">
	<unicode hex="004B"/>
	<advance width="520"/>
	<outline>
		<contour>
			<point x="556" y="-16" type="line"/>
			<point x="242" y="377" type="line"/>
			<point x="533" y="729" type="line"/>
			<point x="382" y="729" type="line"/>
			<point x="168" y="469" type="line"/>
			<point x="168" y="729" type="line"/>
			<point x="44" y="729" type="line"/>
			<point x="44" y="-16" type="line"/>
			<point x="168" y="-16" type="line"/>
			<point x="168" y="271" type="line"/>
			<point x="400" y="-16" type="line"/>
		</contour>
	</outline>
</glyph>
<glyph name="L" format="2">
	<unicode hex="004C"/>
	<advance width="482"/>
	<outline>
		<contour>
			<point x="457" y="-16" type="line"/>
			<point x="457" y="97" type="line"/>
			<point x="170" y="97" type="line"/>
			<point x="170" y="729" type="line"/>
			<point x="44" y="729" type="line"/>
			<point x="44" y="-16" type="line"/>
		</contour>
	</outline>
</glyph>
<glyph name="M" format="2">
	<unicode hex="004D"/>
	<advance width="731"/>
	<outline>
		<contour>
			<point x="687" y="-16" type="line"/>
			<point x="687" y="729" type="line"/>
			<point x="541" y="729" type="line"/>
			<point x="366" y="181" type="line"/>
			<point x="189" y="729" type="line"/>
			<point x="44" y="729" type="line"/>
			<point x="44" y="-16" type="line"/>
			<point x="163" y="-16" type="line"/>
			<point x="163" y="463" type="line"/>
			<point x="317" y="-16" type="line"/>
			<point x="413" y="-16" type="line"/>
			<point x="568" y="463" type="line"/>
			<point x="568" y="-16" type="line"/>
		</contour>
	</outline>
</glyph>
<glyph name="O" format="2">
	<unicode hex="004F"/>
	<advance width="652"/>
	<outline>
		<contour>
			<point x="507" y="356" type="curve" smooth="yes"/>
			<point x="507" y="317"/>
			<point x="502" y="280"/>
			<point x="493" y="245" type="curve" smooth="yes"/>
			<point x="483" y="209"/>
			<point x="469" y="178"/>
			<point x="452" y="153" type="curve" smooth="yes"/>
			<point x="436" y="129"/>
			<point x="416" y="111"/>
			<point x="394" y="100" type="curve" smooth="yes"/>
			<point x="370" y="88"/>
			<point x="347" y="82"/>
			<point x="325" y="82" type="curve" smooth="yes"/>
			<point x="302" y="82"/>
			<point x="279" y="88"/>
			<point x="257" y="100" type="curve" smooth="yes"/>
			<point x="233" y="111"/>
			<point x="214" y="129"/>
			<point x="198" y="153" type="curve" smooth="yes"/>
			<point x="180" y="178"/>
			<point x="167" y="209"/>
			<point x="158" y="245" type="curve" smooth="yes"/>
			<point x="148" y="280"/>
			<point x="143" y="317"/>
			<point x="143" y="356" type="curve" smooth="yes"/>
			<point x="143" y="395"/>
			<point x="148" y="433"/>
			<point x="158" y="469" type="curve" smooth="yes"/>
			<point x="167" y="505"/>
			<point x="180" y="535"/>
			<point x="198" y="561" type="curve" smooth="yes"/>
			<point x="214" y="585"/>
			<point x="233" y="603"/>
			<point x="257" y="615" type="curve" smooth="yes"/>
			<point x="279" y="627"/>
			<point x="302" y="633"/>
			<point x="325" y="633" type="curve" smooth="yes"/>
			<point x="347" y="633"/>
			<point x="370" y="627"/>
			<point x="394" y="615" type="curve" smooth="yes"/>
			<point x="416" y="603"/>
			<point x="436" y="585"/>
			<point x="452" y="561" type="curve" smooth="yes"/>
			<point x="469" y="535"/>
			<point x="483" y="505"/>
			<point x="493" y="469" type="curve" smooth="yes"/>
			<point x="502" y="433"/>
			<point x="507" y="395"/>
		</contour>
		<contour>
			<point x="634" y="356" type="curve" smooth="yes"/>
			<point x="634" y="408"/>
			<point x="627" y="459"/>
			<point x="613" y="507" type="curve" smooth="yes"/>
			<point x="599" y="555"/>
			<point x="578" y="596"/>
			<point x="551" y="632" type="curve" smooth="yes"/>
			<point x="523" y="666"/>
			<point x="490" y="693"/>
			<point x="450" y="713" type="curve" smooth="yes"/>
			<point x="410" y="732"/>
			<point x="368" y="742"/>
			<point x="325" y="742" type="curve" smooth="yes"/>
			<point x="281" y="742"/>
			<point x="240" y="732"/>
			<point x="200" y="713" type="curve" smooth="yes"/>
			<point x="160" y="693"/>
			<point x="126" y="666"/>
			<point x="99" y="632" type="curve" smooth="yes"/>
			<point x="71" y="596"/>
			<point x="51" y="555"/>
			<point x="37" y="507" type="curve" smooth="yes"/>
			<point x="23" y="459"/>
			<point x="16" y="408"/>
			<point x="16" y="356" type="curve" smooth="yes"/>
			<point x="16" y="304"/>
			<point x="23" y="254"/>
			<point x="37" y="206" type="curve" smooth="yes"/>
			<point x="51" y="158"/>
			<point x="71" y="116"/>
			<point x="99" y="82" type="curve" smooth="yes"/>
			<point x="126" y="46"/>
			<point x="160" y="19"/>
			<point x="200" y="1" type="curve" smooth="yes"/>
			<point x="240" y="-17"/>
			<point x="281" y="-27"/>
			<point x="325" y="-27" type="curve" smooth="yes"/>
			<point x="368" y="-27"/>
			<point x="410" y="-17"/>
			<point x="450" y="1" type="curve" smooth="yes"/>
			<point x="490" y="19"/>
			<point x="523" y="46"/>
			<point x="551" y="82" type="curve" smooth="yes"/>
			<point x="578" y="116"/>
			<point x="599" y="158"/>
			<point x="613" y="206" type="curve" smooth="yes"/>
			<point x="627" y="254"/>
			<point x="634" y="304"/>
		</contour>
	</outline>
</glyph>
<glyph name="P" format="2">
	<unicode hex="0050"/>
	<advance width="532"/>
	<outline>
		<contour>
			<point x="503" y="500" type="curve" smooth="yes"/>
			<point x="503" y="652.988"/>
			<point x="393.698" y="729"/>
			<point x="243" y="729" type="curve" smooth="yes"/>
			<point x="44" y="729" type="line"/>
			<point x="44" y="-16" type="line"/>
			<point x="170" y="-16" type="line"/>
			<point x="170" y="273" type="line"/>
			<point x="192" y="273"/>
			<point x="214" y="273"/>
			<point x="236" y="273" type="curve" smooth="yes"/>
			<point x="390.996" y="273"/>
			<point x="503" y="343.792"/>
		</contour>
		<contour>
			<point x="170" y="389" type="curve"/>
			<point x="170" y="617" type="line"/>
			<point x="246" y="617" type="line" smooth="yes"/>
			<point x="321.253" y="617"/>
			<point x="377" y="578.041"/>
			<point x="377" y="500" type="curve" smooth="yes"/>
			<point x="377" y="417.053"/>
			<point x="318.205" y="389"/>
			<point x="233" y="389" type="curve" smooth="yes"/>
			<point x="212" y="389"/>
			<point x="191" y="389"/>
		</contour>
	</outline>
</glyph>
<glyph name="Q" format="2">
	<unicode hex="0051"/>
	<advance width="670"/>
	<outline>
		<contour>
			<point x="550" y="81" type="curve"/>
			<point x="551" y="82" type="line"/>
			<point x="601.412" y="145.482"/>
			<point x="634" y="245.549"/>
			<point x="634" y="356" type="curve" smooth="yes"/>
			<point x="634" y="564.394"/>
			<point x="530.578" y="742"/>
			<point x="325" y="742" type="curve" smooth="yes"/>
			<point x="118.741" y="742"/>
			<point x="16" y="564.39"/>
			<point x="16" y="356" type="curve" smooth="yes"/>
			<point x="16" y="146.933"/>
			<point x="118.655" y="-27"/>
			<point x="325" y="-27" type="curve" smooth="yes"/>
			<point x="352" y="-27"/>
			<point x="379" y="-23"/>
			<point x="405" y="-16" type="curve"/>
			<point x="668" y="-16" type="line"/>
			<point x="668" y="95" type="line"/>
			<point x="626" y="87"/>
			<point x="586" y="82"/>
		</contour>
		<contour>
			<point x="507" y="356" type="curve" smooth="yes"/>
			<point x="507" y="222.445"/>
			<point x="453.698" y="82"/>
			<point x="325" y="82" type="curve" smooth="yes"/>
			<point x="195.534" y="82"/>
			<point x="143" y="223.591"/>
			<point x="143" y="356" type="curve" smooth="yes"/>
			<point x="143" y="488.494"/>
			<point x="194.927" y="633"/>
			<point x="325" y="633" type="curve" smooth="yes"/>
			<point x="454.333" y="633"/>
			<point x="507" y="489.602"/>
		</contour>
	</outline>
</glyph>
<glyph name="R" format="2">
	<unicode hex="0052"/>
	<advance width="558"/>
	<outline>
		<contour>
			<point x="503" y="506" type="curve" smooth="yes"/>
			<point x="503" y="656"/>
			<point x="391" y="729"/>
			<point x="243" y="729" type="curve" smooth="yes"/>
			<point x="44" y="729" type="line"/>
			<point x="44" y="-16" type="line"/>
			<point x="170" y="-16" type="line"/>
			<point x="170" y="283" type="line"/>
			<point x="188" y="283"/>
			<point x="207" y="283"/>
			<point x="225" y="283" type="curve" smooth="yes"/>
			<point x="265" y="283"/>
			<point x="299" y="263"/>
			<point x="326" y="225" type="curve" smooth="yes"/>
			<point x="351" y="188"/>
			<point x="373" y="108"/>
			<point x="392" y="-16" type="curve"/>
			<point x="523" y="-16" type="line"/>
			<point x="507" y="82"/>
			<point x="488" y="163"/>
			<point x="465" y="227" type="curve" smooth="yes"/>
			<point x="446" y="279"/>
			<point x="422" y="312"/>
			<point x="393" y="328" type="curve"/>
			<point x="456" y="347"/>
			<point x="503" y="440"/>
		</contour>
		<contour>
			<point x="170" y="399" type="curve"/>
			<point x="170" y="617" type="line"/>
			<point x="246" y="617" type="line" smooth="yes"/>
			<point x="317" y="617"/>
			<point x="377" y="580"/>
			<point x="377" y="506" type="curve" smooth="yes"/>
			<point x="377" y="426"/>
			<point x="314" y="399"/>
			<point x="233" y="399" type="curve" smooth="yes"/>
			<point x="212" y="399"/>
			<point x="191" y="399"/>
		</contour>
	</outline>
</glyph>
<glyph name="S" format="2">
  <advance width="467"/>
  <unicode hex="0053"/>
  <outline>
    <contour>
      <point x="459" y="195" type="curve" smooth="yes"/>
      <point x="457" y="228"/>
      <point x="452" y="256"/>
      <point x="442" y="278" type="curve" smooth="yes"/>
      <point x="432" y="300"/>
      <point x="418" y="319"/>
      <point x="400" y="336" type="curve" smooth="yes"/>
      <point x="384" y="350"/>
      <point x="365" y="365"/>
      <point x="342" y="381" type="curve" smooth="yes"/>
      <point x="318" y="396"/>
      <point x="283" y="416"/>
      <point x="237" y="441" type="curve" smooth="yes"/>
      <point x="223" y="448"/>
      <point x="210" y="456"/>
      <point x="199" y="464" type="curve" smooth="yes"/>
      <point x="187" y="472"/>
      <point x="177" y="480"/>
      <point x="169" y="490" type="curve" smooth="yes"/>
      <point x="160" y="498"/>
      <point x="153" y="507"/>
      <point x="148" y="516" type="curve" smooth="yes"/>
      <point x="142" y="524"/>
      <point x="139" y="533"/>
      <point x="139" y="545" type="curve" smooth="yes"/>
      <point x="139" y="573"/>
      <point x="148" y="594"/>
      <point x="167" y="610" type="curve" smooth="yes"/>
      <point x="185" y="625"/>
      <point x="207" y="633"/>
      <point x="235" y="633" type="curve" smooth="yes"/>
      <point x="261" y="633"/>
      <point x="289" y="628"/>
      <point x="320" y="620" type="curve" smooth="yes"/>
      <point x="350" y="611"/>
      <point x="382" y="598"/>
      <point x="418" y="580" type="curve"/>
      <point x="418" y="703" type="line"/>
      <point x="388" y="713"/>
      <point x="361" y="721"/>
      <point x="337" y="728" type="curve" smooth="yes"/>
      <point x="323" y="731"/>
      <point x="307" y="734"/>
      <point x="291" y="738" type="curve" smooth="yes"/>
      <point x="274" y="740"/>
      <point x="257" y="742"/>
      <point x="240" y="742" type="curve" smooth="yes"/>
      <point x="173" y="742"/>
      <point x="119" y="725"/>
      <point x="77" y="693" type="curve" smooth="yes"/>
      <point x="34" y="659"/>
      <point x="13" y="608"/>
      <point x="13" y="538" type="curve" smooth="yes"/>
      <point x="13" y="508"/>
      <point x="20" y="481"/>
      <point x="34" y="457" type="curve" smooth="yes"/>
      <point x="47" y="433"/>
      <point x="65" y="412"/>
      <point x="87" y="394" type="curve" smooth="yes"/>
      <point x="107" y="377"/>
      <point x="129" y="362"/>
      <point x="153" y="349" type="curve" smooth="yes"/>
      <point x="176" y="335"/>
      <point x="197" y="323"/>
      <point x="217" y="313" type="curve" smooth="yes"/>
      <point x="244" y="299"/>
      <point x="269" y="282"/>
      <point x="293" y="262" type="curve" smooth="yes"/>
      <point x="303" y="252"/>
      <point x="312" y="241"/>
      <point x="320" y="229" type="curve" smooth="yes"/>
      <point x="327" y="216"/>
      <point x="331" y="200"/>
      <point x="331" y="182" type="curve" smooth="yes"/>
      <point x="331" y="162"/>
      <point x="327" y="147"/>
      <point x="319" y="135" type="curve" smooth="yes"/>
      <point x="310" y="122"/>
      <point x="300" y="112"/>
      <point x="290" y="106" type="curve" smooth="yes"/>
      <point x="278" y="97"/>
      <point x="266" y="91"/>
      <point x="252" y="89" type="curve" smooth="yes"/>
      <point x="238" y="86"/>
      <point x="223" y="85"/>
      <point x="207" y="85" type="curve" smooth="yes"/>
      <point x="192" y="85"/>
      <point x="177" y="86"/>
      <point x="161" y="90" type="curve" smooth="yes"/>
      <point x="144" y="93"/>
      <point x="128" y="97"/>
      <point x="114" y="101" type="curve" smooth="yes"/>
      <point x="88" y="108"/>
      <point x="57" y="120"/>
      <point x="19" y="136" type="curve"/>
      <point x="19" y="8" type="line"/>
      <point x="45" y="-1"/>
      <point x="74" y="-9"/>
      <point x="106" y="-17" type="curve" smooth="yes"/>
      <point x="138" y="-23"/>
      <point x="169" y="-27"/>
      <point x="199" y="-27" type="curve" smooth="yes"/>
      <point x="278" y="-27"/>
      <point x="341" y="-8"/>
      <point x="389" y="28" type="curve" smooth="yes"/>
      <point x="435" y="64"/>
      <point x="459" y="119"/>
    </contour>
  </outline>
</glyph>
<glyph name="T" format="2">
	<unicode hex="0054"/>
	<advance width="530"/>
	<outline>
		<contour>
			<point x="523" y="616" type="line"/>
			<point x="523" y="729" type="line"/>
			<point x="7" y="729" type="line"/>
			<point x="7" y="616" type="line"/>
			<point x="202" y="616" type="line"/>
			<point x="202" y="-16" type="line"/>
			<point x="328" y="-16" type="line"/>
			<point x="328" y="616" type="line"/>
		</contour>
	</outline>
</glyph>
<glyph name="U" format="2">
	<unicode hex="0055"/>
	<advance width="591"/>
	<outline>
		<contour>
			<point x="295" y="86" type="curve" smooth="yes"/>
			<point x="272" y="86"/>
			<point x="253" y="90"/>
			<point x="237" y="100" type="curve" smooth="yes"/>
			<point x="221" y="108"/>
			<point x="208" y="121"/>
			<point x="199" y="137" type="curve" smooth="yes"/>
			<point x="189" y="156"/>
			<point x="181" y="177"/>
			<point x="177" y="200" type="curve" smooth="yes"/>
			<point x="172" y="222"/>
			<point x="170" y="246"/>
			<point x="170" y="274" type="curve" smooth="yes"/>
			<point x="170" y="729" type="line"/>
			<point x="44" y="729" type="line"/>
			<point x="44" y="267" type="line" smooth="yes"/>
			<point x="44" y="237"/>
			<point x="46" y="205"/>
			<point x="52" y="171" type="curve" smooth="yes"/>
			<point x="57" y="136"/>
			<point x="69" y="104"/>
			<point x="88" y="76" type="curve" smooth="yes"/>
			<point x="106" y="46"/>
			<point x="132" y="22"/>
			<point x="166" y="3" type="curve" smooth="yes"/>
			<point x="200" y="-17"/>
			<point x="243" y="-27"/>
			<point x="295" y="-27" type="curve" smooth="yes"/>
			<point x="347" y="-27"/>
			<point x="390" y="-17"/>
			<point x="424" y="3" type="curve" smooth="yes"/>
			<point x="458" y="22"/>
			<point x="484" y="46"/>
			<point x="502" y="76" type="curve" smooth="yes"/>
			<point x="520" y="104"/>
			<point x="533" y="136"/>
			<point x="539" y="170" type="curve" smooth="yes"/>
			<point x="544" y="204"/>
			<point x="547" y="236"/>
			<point x="547" y="267" type="curve" smooth="yes"/>
			<point x="547" y="729" type="line"/>
			<point x="421" y="729" type="line"/>
			<point x="421" y="274" type="line" smooth="yes"/>
			<point x="421" y="246"/>
			<point x="418" y="222"/>
			<point x="414" y="200" type="curve" smooth="yes"/>
			<point x="408" y="177"/>
			<point x="401" y="156"/>
			<point x="391" y="137" type="curve" smooth="yes"/>
			<point x="381" y="121"/>
			<point x="369" y="108"/>
			<point x="353" y="99" type="curve" smooth="yes"/>
			<point x="336" y="89"/>
			<point x="317" y="84"/>
		</contour>
	</outline>
</glyph>
<glyph name="V" format="2">
	<unicode hex="0056"/>
	<advance width="604"/>
	<outline>
		<contour>
			<point x="575" y="729" type="line"/>
			<point x="447" y="729" type="line"/>
			<point x="283" y="185" type="line"/>
			<point x="116" y="729" type="line"/>
			<point x="-10" y="729" type="line"/>
			<point x="221" y="-16" type="line"/>
			<point x="343" y="-16" type="line"/>
		</contour>
	</outline>
</glyph>
<glyph name="W" format="2">
  <advance width="767"/>
  <unicode hex="0057"/>
  <outline>
    <contour>
      <point x="769" y="729" type="line"/>
      <point x="647" y="729" type="line"/>
      <point x="564" y="233" type="line"/>
      <point x="442" y="729" type="line"/>
      <point x="325" y="729" type="line"/>
      <point x="203" y="233" type="line"/>
      <point x="120" y="729" type="line"/>
      <point x="-2" y="729" type="line"/>
      <point x="130" y="-16" type="line"/>
      <point x="259" y="-16" type="line"/>
      <point x="384" y="495" type="line"/>
      <point x="508" y="-16" type="line"/>
      <point x="637" y="-16" type="line"/>
    </contour>
  </outline>
</glyph>
<glyph name="X" format="2">
	<unicode hex="0058"/>
	<advance width="561"/>
	<outline>
		<contour>
			<point x="556" y="-16" type="line"/>
			<point x="339" y="373" type="line"/>
			<point x="536" y="729" type="line"/>
			<point x="398" y="729" type="line"/>
			<point x="270" y="498" type="line"/>
			<point x="141" y="729" type="line"/>
			<point x="3" y="729" type="line"/>
			<point x="201" y="372" type="line"/>
			<point x="-14" y="-16" type="line"/>
			<point x="121" y="-16" type="line"/>
			<point x="269" y="248" type="line"/>
			<point x="418" y="-16" type="line"/>
		</contour>
	</outline>
</glyph>
<glyph name="Y" format="2">
	<unicode hex="0059"/>
	<advance width="561"/>
	<outline>
		<contour>
			<point x="269" y="452" type="line"/>
			<point x="125" y="729" type="line"/>
			<point x="-12" y="729" type="line"/>
			<point x="207" y="321" type="line"/>
			<point x="207" y="-16" type="line"/>
			<point x="333" y="-16" type="line"/>
			<point x="333" y="321" type="line"/>
			<point x="552" y="729" type="line"/>
			<point x="414" y="729" type="line"/>
		</contour>
	</outline>
</glyph>
<glyph name="Z" format="2">
	<unicode hex="005A"/>
	<advance width="520"/>
	<outline>
		<contour>
			<point x="497" y="-16" type="line"/>
			<point x="497" y="97" type="line"/>
			<point x="157" y="97" type="line"/>
			<point x="481" y="630" type="line"/>
			<point x="481" y="729" type="line"/>
			<point x="24" y="729" type="line"/>
			<point x="24" y="616" type="line"/>
			<point x="332" y="616" type="line"/>
			<point x="9" y="80" type="line"/>
			<point x="9" y="-16" type="line"/>
		</contour>
	</outline>
</glyph>
<glyph name="bracketleft" format="2">
	<unicode hex="005B"/>
	<advance width="330"/>
	<outline>
		<contour>
			<point x="306" y="-155" type="line"/>
			<point x="306" y="-51" type="line"/>
			<point x="209" y="-51" type="line"/>
			<point x="209" y="710" type="line"/>
			<point x="306" y="710" type="line"/>
			<point x="306" y="814" type="line"/>
			<point x="86" y="814" type="line"/>
			<point x="86" y="-155" type="line"/>
		</contour>
	</outline>
</glyph>
<glyph name="bracketright" format="2">
  <advance width="318"/>
  <unicode hex="005D"/>
  <outline>
    <contour>
      <point x="233" y="-155" type="line"/>
      <point x="233" y="814" type="line"/>
      <point x="12" y="814" type="line"/>
      <point x="12" y="710" type="line"/>
      <point x="109" y="710" type="line"/>
      <point x="109" y="-51" type="line"/>
      <point x="12" y="-51" type="line"/>
      <point x="12" y="-155" type="line"/>
    </contour>
  </outline>
</glyph>
<glyph name="asciicircum" format="2">
	<unicode hex="005E"/>
	<advance width="439"/>
	<outline>
		<contour>
			<point x="163" y="750" type="line"/>
			<point x="9" y="476" type="line"/>
			<point x="134" y="476" type="line"/>
			<point x="213" y="618" type="line"/>
			<point x="289" y="476" type="line"/>
			<point x="415" y="476" type="line"/>
			<point x="262" y="750" type="line"/>
		</contour>
	</outline>
</glyph>
<glyph name="underscore" format="2">
	<unicode hex="005F"/>
	<advance width="482"/>
	<outline>
		<contour>
			<point x="449" y="-131" type="line"/>
			<point x="449" y="-35" type="line"/>
			<point x="2" y="-35" type="line"/>
			<point x="2" y="-131" type="line"/>
		</contour>
	</outline>
</glyph>
<glyph name="grave" format="2">
	<unicode hex="0060"/>
	<advance width="284"/>
	<outline>
		<contour>
			<point x="227" y="521" type="line"/>
			<point x="158" y="735" type="line"/>
			<point x="17" y="735" type="line"/>
			<point x="114" y="521" type="line"/>
		</contour>
	</outline>
</glyph>
<glyph name="a" format="2">
	<unicode hex="0061"/>
	<advance width="490"/>
	<outline>
		<contour>
			<point x="434" y="-16" type="line"/>
			<point x="434" y="346" type="line" smooth="yes"/>
			<point x="434" y="458.898"/>
			<point x="351.071" y="532"/>
			<point x="231" y="532" type="curve" smooth="yes"/>
			<point x="107.11" y="532"/>
			<point x="26" y="471.133"/>
			<point x="26" y="347" type="curve"/>
			<point x="160" y="347" type="line"/>
			<point x="160" y="399.293"/>
			<point x="183.534" y="427"/>
			<point x="231" y="427" type="curve" smooth="yes"/>
			<point x="282.268" y="427"/>
			<point x="310" y="391.525"/>
			<point x="310" y="342" type="curve" smooth="yes"/>
			<point x="310" y="316" type="line"/>
			<point x="249" y="316" type="line" smooth="yes"/>
			<point x="120.622" y="316"/>
			<point x="14" y="251.217"/>
			<point x="14" y="123" type="curve" smooth="yes"/>
			<point x="14" y="39.0059"/>
			<point x="74.5671" y="-27"/>
			<point x="158" y="-27" type="curve" smooth="yes"/>
			<point x="226" y="-27"/>
			<point x="277" y="-10"/>
			<point x="310" y="24" type="curve"/>
			<point x="310" y="-16" type="line"/>
		</contour>
		<contour>
			<point x="310" y="183" type="line" smooth="yes"/>
			<point x="310" y="123.067"/>
			<point x="253.033" y="78"/>
			<point x="193" y="78" type="curve" smooth="yes"/>
			<point x="158.964" y="78"/>
			<point x="140" y="96.2469"/>
			<point x="140" y="133" type="curve" smooth="yes"/>
			<point x="140" y="204.86"/>
			<point x="240.041" y="216"/>
			<point x="310" y="216" type="curve"/>
		</contour>
	</outline>
</glyph>
<glyph name="b" format="2">
	<unicode hex="0062"/>
	<advance width="500"/>
	<outline>
		<contour>
			<point x="360" y="251" type="curve" smooth="yes"/>
			<point x="360" y="172.478"/>
			<point x="334.724" y="78"/>
			<point x="261" y="78" type="curve" smooth="yes"/>
			<point x="187.353" y="78"/>
			<point x="163" y="174.406"/>
			<point x="163" y="251" type="curve" smooth="yes"/>
			<point x="163" y="322.709"/>
			<point x="191.326" y="426"/>
			<point x="261" y="426" type="curve" smooth="yes"/>
			<point x="335.13" y="426"/>
			<point x="360" y="328.849"/>
		</contour>
		<contour>
			<point x="262" y="-27" type="curve" smooth="yes"/>
			<point x="421.924" y="-27"/>
			<point x="486" y="92.874"/>
			<point x="486" y="256" type="curve" smooth="yes"/>
			<point x="486" y="409.718"/>
			<point x="418.392" y="532"/>
			<point x="266" y="532" type="curve" smooth="yes"/>
			<point x="224" y="532"/>
			<point x="190" y="516"/>
			<point x="162" y="484" type="curve"/>
			<point x="162" y="729" type="line"/>
			<point x="39" y="729" type="line"/>
			<point x="39" y="256" type="line" smooth="yes"/>
			<point x="39" y="93.3628"/>
			<point x="101.621" y="-27"/>
		</contour>
	</outline>
</glyph>
<glyph name="c" format="2">
	<unicode hex="0063"/>
	<advance width="472"/>
	<outline>
		<contour>
			<point x="454" y="322" type="line"/>
			<point x="454" y="454.745"/>
			<point x="379.55" y="532"/>
			<point x="252" y="532" type="curve" smooth="yes"/>
			<point x="94.6885" y="532"/>
			<point x="14" y="418.763"/>
			<point x="14" y="262" type="curve" smooth="yes"/>
			<point x="14" y="91.4762"/>
			<point x="105.233" y="-28.6382"/>
			<point x="274.531" y="-28.6382" type="curve"/>
			<point x="348.097" y="-22.1031"/>
			<point x="382.411" y="-15.5937"/>
			<point x="440" y="18" type="curve"/>
			<point x="440" y="126" type="line"/>
			<point x="385.373" y="95.185"/>
			<point x="347.31" y="79"/>
			<point x="291" y="79" type="curve" smooth="yes"/>
			<point x="186.726" y="79"/>
			<point x="142" y="160.329"/>
			<point x="142" y="261" type="curve" smooth="yes"/>
			<point x="142" y="344.52"/>
			<point x="176.002" y="427"/>
			<point x="249" y="427" type="curve" smooth="yes"/>
			<point x="304.679" y="427"/>
			<point x="325" y="383.255"/>
			<point x="325" y="322" type="curve"/>
		</contour>
	</outline>
</glyph>
<glyph name="d" format="2">
	<unicode hex="0064"/>
	<advance width="500"/>
	<outline>
		<contour>
			<point x="14" y="256" type="curve" smooth="yes"/>
			<point x="14" y="212"/>
			<point x="19" y="172"/>
			<point x="31" y="137" type="curve" smooth="yes"/>
			<point x="41" y="101"/>
			<point x="55" y="73"/>
			<point x="72" y="51" type="curve" smooth="yes"/>
			<point x="90" y="26"/>
			<point x="113" y="7"/>
			<point x="141" y="-7" type="curve" smooth="yes"/>
			<point x="168" y="-20"/>
			<point x="197" y="-27"/>
			<point x="229" y="-27" type="curve" smooth="yes"/>
			<point x="271" y="-27"/>
			<point x="308" y="-11"/>
			<point x="338" y="20" type="curve"/>
			<point x="338" y="-16" type="line"/>
			<point x="461" y="-16" type="line"/>
			<point x="461" y="729" type="line"/>
			<point x="338" y="729" type="line"/>
			<point x="338" y="484" type="line"/>
			<point x="309" y="516"/>
			<point x="274" y="532"/>
			<point x="233" y="532" type="curve" smooth="yes"/>
			<point x="197" y="532"/>
			<point x="164" y="523"/>
			<point x="135" y="507" type="curve" smooth="yes"/>
			<point x="105" y="489"/>
			<point x="82" y="468"/>
			<point x="65" y="443" type="curve" smooth="yes"/>
			<point x="47" y="417"/>
			<point x="35" y="389"/>
			<point x="27" y="357" type="curve" smooth="yes"/>
			<point x="18" y="324"/>
			<point x="14" y="290"/>
		</contour>
		<contour>
			<point x="140" y="251" type="curve" smooth="yes"/>
			<point x="140" y="276"/>
			<point x="143" y="300"/>
			<point x="149" y="323" type="curve" smooth="yes"/>
			<point x="155" y="345"/>
			<point x="163" y="364"/>
			<point x="173" y="381" type="curve" smooth="yes"/>
			<point x="183" y="395"/>
			<point x="194" y="407"/>
			<point x="206" y="415" type="curve" smooth="yes"/>
			<point x="217" y="422"/>
			<point x="228" y="426"/>
			<point x="239" y="426" type="curve" smooth="yes"/>
			<point x="249" y="426"/>
			<point x="260" y="422"/>
			<point x="272" y="414" type="curve" smooth="yes"/>
			<point x="284" y="405"/>
			<point x="294" y="394"/>
			<point x="304" y="380" type="curve" smooth="yes"/>
			<point x="314" y="363"/>
			<point x="322" y="344"/>
			<point x="328" y="322" type="curve" smooth="yes"/>
			<point x="334" y="300"/>
			<point x="337" y="276"/>
			<point x="337" y="251" type="curve" smooth="yes"/>
			<point x="337" y="226"/>
			<point x="334" y="203"/>
			<point x="328" y="181" type="curve" smooth="yes"/>
			<point x="322" y="159"/>
			<point x="314" y="139"/>
			<point x="304" y="123" type="curve" smooth="yes"/>
			<point x="294" y="107"/>
			<point x="284" y="96"/>
			<point x="273" y="89" type="curve" smooth="yes"/>
			<point x="261" y="81"/>
			<point x="249" y="78"/>
			<point x="239" y="78" type="curve" smooth="yes"/>
			<point x="228" y="78"/>
			<point x="217" y="81"/>
			<point x="205" y="89" type="curve" smooth="yes"/>
			<point x="193" y="95"/>
			<point x="182" y="106"/>
			<point x="173" y="122" type="curve" smooth="yes"/>
			<point x="163" y="138"/>
			<point x="155" y="158"/>
			<point x="149" y="181" type="curve" smooth="yes"/>
			<point x="143" y="203"/>
			<point x="140" y="226"/>
		</contour>
	</outline>
</glyph>
<glyph name="e" format="2">
	<unicode hex="0065"/>
	<advance width="504"/>
	<outline>
		<contour>
			<point x="454" y="322" type="line" smooth="yes"/>
			<point x="454" y="454.959"/>
			<point x="379.711" y="532"/>
			<point x="252" y="532" type="curve" smooth="yes"/>
			<point x="94.6885" y="532"/>
			<point x="14" y="418.763"/>
			<point x="14" y="262" type="curve" smooth="yes"/>
			<point x="14" y="91.4762"/>
			<point x="105.233" y="-28.6382"/>
			<point x="274.531" y="-28.6382" type="curve"/>
			<point x="348.097" y="-22.1031"/>
			<point x="382.411" y="-15.5937"/>
			<point x="440" y="18" type="curve"/>
			<point x="440" y="126" type="line"/>
			<point x="385.373" y="95.185"/>
			<point x="347.31" y="79"/>
			<point x="291" y="79" type="curve" smooth="yes"/>
			<point x="199.338" y="79"/>
			<point x="157.121" y="140.15"/>
			<point x="146" y="218" type="curve"/>
			<point x="454" y="218" type="line"/>
		</contour>
		<contour>
			<point x="148" y="322" type="line"/>
			<point x="158.519" y="374.595"/>
			<point x="196.96" y="427"/>
			<point x="249" y="427" type="curve" smooth="yes"/>
			<point x="304.679" y="427"/>
			<point x="325" y="383.255"/>
			<point x="325" y="322" type="curve"/>
		</contour>
	</outline>
</glyph>
<glyph name="f" format="2">
	<unicode hex="0066"/>
	<advance width="364"/>
	<outline>
		<contour>
			<point x="366" y="617" type="curve"/>
			<point x="366" y="727" type="line"/>
			<point x="326.075" y="735.318"/>
			<point x="299.725" y="742"/>
			<point x="259" y="742" type="curve" smooth="yes"/>
			<point x="128.972" y="742"/>
			<point x="81" y="663.68"/>
			<point x="81" y="539" type="curve" smooth="yes"/>
			<point x="81" y="520" type="line"/>
			<point x="6" y="520" type="line"/>
			<point x="6" y="415" type="line"/>
			<point x="81" y="415" type="line"/>
			<point x="81" y="-16" type="line"/>
			<point x="207" y="-16" type="line"/>
			<point x="207" y="415" type="line"/>
			<point x="333" y="415" type="line"/>
			<point x="333" y="520" type="line"/>
			<point x="207" y="520" type="line"/>
			<point x="207" y="552" type="line" smooth="yes"/>
			<point x="207" y="600.858"/>
			<point x="213.705" y="637"/>
			<point x="264" y="637" type="curve" smooth="yes"/>
			<point x="305.258" y="637"/>
			<point x="324.519" y="629.764"/>
		</contour>
	</outline>
</glyph>
<glyph name="g" format="2">
	<unicode hex="0067"/>
	<advance width="500"/>
	<outline>
		<contour>
			<point x="139" y="261" type="curve" smooth="yes"/>
			<point x="139" y="329.935"/>
			<point x="170.737" y="426"/>
			<point x="238" y="426" type="curve" smooth="yes"/>
			<point x="303.873" y="426"/>
			<point x="337" y="330.72"/>
			<point x="337" y="261" type="curve" smooth="yes"/>
			<point x="337" y="190.436"/>
			<point x="303.402" y="98"/>
			<point x="238" y="98" type="curve" smooth="yes"/>
			<point x="171.969" y="98"/>
			<point x="139" y="190.469"/>
		</contour>
		<contour>
			<point x="461" y="68" type="curve"/>
			<point x="461" y="520" type="line"/>
			<point x="338" y="520" type="line"/>
			<point x="338" y="482" type="line"/>
			<point x="311" y="515"/>
			<point x="276" y="532"/>
			<point x="233" y="532" type="curve" smooth="yes"/>
			<point x="89.1234" y="532"/>
			<point x="13" y="408.244"/>
			<point x="13" y="266" type="curve" smooth="yes"/>
			<point x="13" y="116.332"/>
			<point x="81.8108" y="-5"/>
			<point x="228" y="-5" type="curve" smooth="yes"/>
			<point x="271.854" y="-5"/>
			<point x="321.501" y="15.1676"/>
			<point x="337" y="41" type="curve"/>
			<point x="337" y="-36.2955"/>
			<point x="297.913" y="-59"/>
			<point x="220" y="-59" type="curve" smooth="yes"/>
			<point x="150.957" y="-59"/>
			<point x="102.498" y="-41.7906"/>
			<point x="48" y="-10" type="curve"/>
			<point x="48" y="-136" type="line"/>
			<point x="90.4498" y="-156.376"/>
			<point x="153.939" y="-168"/>
			<point x="214" y="-168" type="curve" smooth="yes"/>
			<point x="379.645" y="-168"/>
			<point x="457.191" y="-105.315"/>
		</contour>
	</outline>
</glyph>
<glyph name="i" format="2">
	<unicode hex="0069"/>
	<advance width="226"/>
	<outline>
		<contour>
			<point x="175" y="587" type="line"/>
			<point x="175" y="729" type="line"/>
			<point x="35" y="729" type="line"/>
			<point x="35" y="587" type="line"/>
		</contour>
		<contour>
			<point x="169" y="-16" type="line"/>
			<point x="169" y="520" type="line"/>
			<point x="43" y="520" type="line"/>
			<point x="43" y="-16" type="line"/>
		</contour>
	</outline>
</glyph>
<glyph name="j" format="2">
  <advance width="238"/>
  <unicode hex="006A"/>
  <outline>
    <contour>
      <point x="207" y="587" type="line"/>
      <point x="207" y="729" type="line"/>
      <point x="67" y="729" type="line"/>
      <point x="67" y="587" type="line"/>
    </contour>
    <contour>
      <point x="199" y="34" type="curve" smooth="yes"/>
      <point x="199" y="520" type="line"/>
      <point x="75" y="520" type="line"/>
      <point x="75" y="34" type="line" smooth="yes"/>
      <point x="75" y="-14"/>
      <point x="61" y="-44"/>
      <point x="34" y="-55" type="curve" smooth="yes"/>
      <point x="24" y="-57"/>
      <point x="-2" y="-58"/>
      <point x="-46" y="-57" type="curve"/>
      <point x="-46" y="-168" type="line"/>
      <point x="-2" y="-168"/>
      <point x="33" y="-166"/>
      <point x="63" y="-162" type="curve" smooth="yes"/>
      <point x="91" y="-157"/>
      <point x="117" y="-147"/>
      <point x="139" y="-131" type="curve" smooth="yes"/>
      <point x="159" y="-114"/>
      <point x="175" y="-92"/>
      <point x="185" y="-65" type="curve" smooth="yes"/>
      <point x="193" y="-41"/>
      <point x="197" y="-8"/>
    </contour>
  </outline>
</glyph>
<glyph name="k" format="2">
	<unicode hex="006B"/>
	<advance width="460"/>
	<outline>
		<contour>
			<point x="485" y="-16" type="line"/>
			<point x="235" y="277" type="line"/>
			<point x="482" y="520" type="line"/>
			<point x="324" y="520" type="line"/>
			<point x="162" y="356" type="line"/>
			<point x="162" y="729" type="line"/>
			<point x="39" y="729" type="line"/>
			<point x="39" y="-16" type="line"/>
			<point x="162" y="-16" type="line"/>
			<point x="162" y="182" type="line"/>
			<point x="332" y="-16" type="line"/>
		</contour>
	</outline>
</glyph>
<glyph name="l" format="2">
	<unicode hex="006C"/>
	<advance width="212"/>
	<outline>
		<contour>
			<point x="169" y="-16" type="line"/>
			<point x="169" y="729" type="line"/>
			<point x="43" y="729" type="line"/>
			<point x="43" y="-16" type="line"/>
		</contour>
	</outline>
</glyph>
<glyph name="m" format="2">
	<unicode hex="006D"/>
	<advance width="744"/>
	<outline>
		<contour>
			<point x="677" y="-16" type="line"/>
			<point x="677" y="333" type="line" smooth="yes"/>
			<point x="677" y="450.088"/>
			<point x="622.245" y="532"/>
			<point x="513" y="532" type="curve" smooth="yes"/>
			<point x="456.492" y="532"/>
			<point x="416.545" y="497.817"/>
			<point x="386" y="452" type="curve"/>
			<point x="360.453" y="499.444"/>
			<point x="319.2" y="532"/>
			<point x="251" y="532" type="curve" smooth="yes"/>
			<point x="211.301" y="532"/>
			<point x="181.068" y="505.583"/>
			<point x="160" y="480" type="curve"/>
			<point x="160" y="520" type="line"/>
			<point x="39" y="520" type="line"/>
			<point x="39" y="-16" type="line"/>
			<point x="160" y="-16" type="line"/>
			<point x="160" y="217" type="line" smooth="yes"/>
			<point x="160" y="288.236"/>
			<point x="175.069" y="416"/>
			<point x="244" y="416" type="curve" smooth="yes"/>
			<point x="297.744" y="416"/>
			<point x="299.003" y="348.101"/>
			<point x="299.003" y="291.286" type="curve" smooth="yes"/>
			<point x="299" y="-16" type="line"/>
			<point x="417" y="-16" type="line"/>
			<point x="417" y="213" type="line" smooth="yes"/>
			<point x="417" y="292.225"/>
			<point x="434.487" y="416"/>
			<point x="504" y="416" type="curve" smooth="yes"/>
			<point x="554.419" y="416"/>
			<point x="556.007" y="349.214"/>
			<point x="556.007" y="293.966" type="curve" smooth="yes"/>
			<point x="556" y="-16" type="line"/>
		</contour>
	</outline>
</glyph>
<glyph name="n" format="2">
	<unicode hex="006E"/>
	<advance width="500"/>
	<outline>
		<contour>
			<point x="461" y="-16" type="line"/>
			<point x="461" y="338" type="line" smooth="yes"/>
			<point x="461" y="460.839"/>
			<point x="394.399" y="532"/>
			<point x="272" y="532" type="curve" smooth="yes"/>
			<point x="227.934" y="532"/>
			<point x="181.744" y="502.326"/>
			<point x="162" y="476" type="curve"/>
			<point x="162" y="520" type="line"/>
			<point x="39" y="520" type="line"/>
			<point x="39" y="-16" type="line"/>
			<point x="162" y="-16" type="line"/>
			<point x="162" y="217" type="line" smooth="yes"/>
			<point x="162" y="303.821"/>
			<point x="192.038" y="422"/>
			<point x="268" y="422" type="curve" smooth="yes"/>
			<point x="322.942" y="422"/>
			<point x="337" y="370.51"/>
			<point x="337" y="316" type="curve" smooth="yes"/>
			<point x="337" y="-16" type="line"/>
		</contour>
	</outline>
</glyph>
<glyph name="o" format="2">
	<unicode hex="006F"/>
	<advance width="500"/>
	<outline>
		<contour>
			<point x="250" y="77" type="curve" smooth="yes"/>
			<point x="323.993" y="77"/>
			<point x="360.255" y="163.56"/>
			<point x="360.255" y="250.709" type="curve" smooth="yes"/>
			<point x="360.255" y="339.052"/>
			<point x="322.993" y="428"/>
			<point x="250" y="428" type="curve" smooth="yes"/>
			<point x="169" y="428"/>
			<point x="142" y="334"/>
			<point x="142" y="251" type="curve" smooth="yes"/>
			<point x="142" y="168"/>
			<point x="170" y="77"/>
		</contour>
		<contour>
			<point x="250" y="532" type="curve" smooth="yes"/>
			<point x="404.301" y="532"/>
			<point x="485.179" y="387.986"/>
			<point x="485.179" y="246.153" type="curve" smooth="yes"/>
			<point x="485.179" y="108.55"/>
			<point x="409.055" y="-27"/>
			<point x="250" y="-27" type="curve" smooth="yes"/>
			<point x="95" y="-27"/>
			<point x="14" y="95"/>
			<point x="14" y="251" type="curve" smooth="yes"/>
			<point x="14" y="406"/>
			<point x="96" y="532"/>
		</contour>
	</outline>
</glyph>
<glyph name="p" format="2">
	<unicode hex="0070"/>
	<advance width="500"/>
	<outline>
		<contour>
			<point x="486" y="258" type="curve" smooth="yes"/>
			<point x="486" y="293"/>
			<point x="481" y="326"/>
			<point x="473" y="358" type="curve" smooth="yes"/>
			<point x="464" y="389"/>
			<point x="451" y="417"/>
			<point x="435" y="443" type="curve" smooth="yes"/>
			<point x="417" y="468"/>
			<point x="393" y="489"/>
			<point x="365" y="507" type="curve" smooth="yes"/>
			<point x="335" y="523"/>
			<point x="303" y="532"/>
			<point x="267" y="532" type="curve" smooth="yes"/>
			<point x="227" y="532"/>
			<point x="192" y="514"/>
			<point x="162" y="479" type="curve"/>
			<point x="162" y="520" type="line"/>
			<point x="39" y="520" type="line"/>
			<point x="39" y="-168" type="line"/>
			<point x="162" y="-168" type="line"/>
			<point x="162" y="24" type="line"/>
			<point x="192" y="-7"/>
			<point x="229" y="-23"/>
			<point x="271" y="-23" type="curve" smooth="yes"/>
			<point x="302" y="-23"/>
			<point x="332" y="-16"/>
			<point x="360" y="-3" type="curve" smooth="yes"/>
			<point x="387" y="10"/>
			<point x="410" y="29"/>
			<point x="428" y="55" type="curve" smooth="yes"/>
			<point x="445" y="77"/>
			<point x="459" y="105"/>
			<point x="470" y="140" type="curve" smooth="yes"/>
			<point x="480" y="174"/>
			<point x="486" y="214"/>
		</contour>
		<contour>
			<point x="360" y="253" type="curve" smooth="yes"/>
			<point x="360" y="228"/>
			<point x="357" y="205"/>
			<point x="351" y="184" type="curve" smooth="yes"/>
			<point x="345" y="162"/>
			<point x="337" y="142"/>
			<point x="327" y="126" type="curve" smooth="yes"/>
			<point x="317" y="110"/>
			<point x="307" y="99"/>
			<point x="295" y="93" type="curve" smooth="yes"/>
			<point x="283" y="85"/>
			<point x="271" y="82"/>
			<point x="261" y="82" type="curve" smooth="yes"/>
			<point x="250" y="82"/>
			<point x="239" y="85"/>
			<point x="228" y="93" type="curve" smooth="yes"/>
			<point x="216" y="100"/>
			<point x="205" y="111"/>
			<point x="196" y="127" type="curve" smooth="yes"/>
			<point x="186" y="143"/>
			<point x="178" y="162"/>
			<point x="172" y="184" type="curve" smooth="yes"/>
			<point x="166" y="205"/>
			<point x="163" y="228"/>
			<point x="163" y="253" type="curve" smooth="yes"/>
			<point x="163" y="278"/>
			<point x="166" y="301"/>
			<point x="172" y="323" type="curve" smooth="yes"/>
			<point x="178" y="344"/>
			<point x="186" y="363"/>
			<point x="196" y="380" type="curve" smooth="yes"/>
			<point x="205" y="394"/>
			<point x="216" y="405"/>
			<point x="228" y="414" type="curve" smooth="yes"/>
			<point x="240" y="422"/>
			<point x="251" y="426"/>
			<point x="261" y="426" type="curve" smooth="yes"/>
			<point x="271" y="426"/>
			<point x="283" y="422"/>
			<point x="295" y="415" type="curve" smooth="yes"/>
			<point x="306" y="407"/>
			<point x="317" y="395"/>
			<point x="327" y="381" type="curve" smooth="yes"/>
			<point x="337" y="364"/>
			<point x="345" y="345"/>
			<point x="351" y="324" type="curve" smooth="yes"/>
			<point x="357" y="302"/>
			<point x="360" y="278"/>
		</contour>
	</outline>
</glyph>
<glyph name="q" format="2">
	<unicode hex="0071"/>
	<advance width="500"/>
	<outline>
		<contour>
			<point x="14" y="258" type="curve" smooth="yes"/>
			<point x="14" y="104.44"/>
			<point x="79.7333" y="-23"/>
			<point x="229" y="-23" type="curve" smooth="yes"/>
			<point x="271" y="-23"/>
			<point x="307" y="-7"/>
			<point x="338" y="24" type="curve"/>
			<point x="338" y="-168" type="line"/>
			<point x="461" y="-168" type="line"/>
			<point x="461" y="520" type="line"/>
			<point x="338" y="520" type="line"/>
			<point x="338" y="479" type="line"/>
			<point x="307" y="514"/>
			<point x="272" y="532"/>
			<point x="233" y="532" type="curve" smooth="yes"/>
			<point x="85.8532" y="532"/>
			<point x="14" y="404.301"/>
		</contour>
		<contour>
			<point x="140" y="253" type="curve" smooth="yes"/>
			<point x="140" y="325.992"/>
			<point x="169.543" y="426"/>
			<point x="239" y="426" type="curve" smooth="yes"/>
			<point x="306.967" y="426"/>
			<point x="337" y="323.805"/>
			<point x="337" y="253" type="curve" smooth="yes"/>
			<point x="337" y="180.092"/>
			<point x="306.991" y="82"/>
			<point x="239" y="82" type="curve" smooth="yes"/>
			<point x="169.209" y="82"/>
			<point x="140" y="178.991"/>
		</contour>
	</outline>
</glyph>
<glyph name="r" format="2">
	<unicode hex="0072"/>
	<advance width="350"/>
	<outline>
		<contour>
			<point x="350" y="412" type="curve"/>
			<point x="350" y="532" type="line"/>
			<point x="256.816" y="530.588"/>
			<point x="200.977" y="506.973"/>
			<point x="161" y="459" type="curve"/>
			<point x="161" y="520" type="line"/>
			<point x="39" y="520" type="line"/>
			<point x="39" y="-16" type="line"/>
			<point x="161" y="-16" type="line"/>
			<point x="161" y="209" type="line" smooth="yes"/>
			<point x="161" y="349.774"/>
			<point x="208.707" y="412"/>
		</contour>
	</outline>
</glyph>
<glyph name="s" format="2">
	<unicode hex="0073"/>
	<advance width="409"/>
	<outline>
		<contour>
			<point x="386" y="134" type="curve" smooth="yes"/>
			<point x="386" y="322"/>
			<point x="136" y="291"/>
			<point x="136" y="382" type="curve" smooth="yes"/>
			<point x="136" y="414.029"/>
			<point x="166.438" y="428"/>
			<point x="201" y="428" type="curve" smooth="yes"/>
			<point x="266.744" y="428"/>
			<point x="302.771" y="409.403"/>
			<point x="358" y="381" type="curve"/>
			<point x="358" y="503" type="line"/>
			<point x="301" y="522"/>
			<point x="249" y="532"/>
			<point x="203" y="532" type="curve" smooth="yes"/>
			<point x="96.2126" y="532"/>
			<point x="14" y="477.682"/>
			<point x="14" y="374" type="curve" smooth="yes"/>
			<point x="14" y="195"/>
			<point x="262" y="221"/>
			<point x="262" y="129" type="curve" smooth="yes"/>
			<point x="262" y="88.6604"/>
			<point x="222.151" y="79"/>
			<point x="171" y="79" type="curve" smooth="yes"/>
			<point x="114.567" y="79"/>
			<point x="54.7866" y="105.902"/>
			<point x="12" y="133" type="curve"/>
			<point x="12" y="4" type="line"/>
			<point x="78" y="-16"/>
			<point x="131" y="-27"/>
			<point x="171" y="-27" type="curve" smooth="yes"/>
			<point x="292.241" y="-27"/>
			<point x="386" y="14.0268"/>
		</contour>
	</outline>
</glyph>
<glyph name="t" format="2">
  <advance width="330"/>
  <unicode hex="0074"/>
  <outline>
    <contour>
      <point x="320" y="415" type="line"/>
      <point x="320" y="520" type="line"/>
      <point x="199" y="520" type="line"/>
      <point x="199" y="689" type="line"/>
      <point x="75" y="624" type="line"/>
      <point x="75" y="520" type="line"/>
      <point x="6" y="520" type="line"/>
      <point x="6" y="415" type="line"/>
      <point x="75" y="415" type="line"/>
      <point x="75" y="108" type="line" smooth="yes"/>
      <point x="75" y="67"/>
      <point x="87" y="34"/>
      <point x="113" y="10" type="curve" smooth="yes"/>
      <point x="138" y="-14"/>
      <point x="176" y="-27"/>
      <point x="227" y="-27" type="curve" smooth="yes"/>
      <point x="255" y="-27"/>
      <point x="285" y="-24"/>
      <point x="318" y="-20" type="curve"/>
      <point x="318" y="88" type="line"/>
      <point x="285" y="81"/>
      <point x="261" y="78"/>
      <point x="246" y="79" type="curve" smooth="yes"/>
      <point x="233" y="79"/>
      <point x="224" y="80"/>
      <point x="219" y="83" type="curve" smooth="yes"/>
      <point x="213" y="85"/>
      <point x="208" y="89"/>
      <point x="206" y="96" type="curve" smooth="yes"/>
      <point x="201" y="106"/>
      <point x="199" y="116"/>
      <point x="199" y="128" type="curve" smooth="yes"/>
      <point x="199" y="139"/>
      <point x="199" y="152"/>
      <point x="199" y="167" type="curve" smooth="yes"/>
      <point x="199" y="415" type="line"/>
    </contour>
  </outline>
</glyph>
<glyph name="u" format="2">
	<unicode hex="0075"/>
	<advance width="500"/>
	<outline>
		<contour>
			<point x="39" y="520" type="line"/>
			<point x="39" y="164" type="line" smooth="yes"/>
			<point x="39" y="40.7024"/>
			<point x="104.713" y="-28"/>
			<point x="228" y="-28" type="curve" smooth="yes"/>
			<point x="270.953" y="-28"/>
			<point x="320.2" y="1.28847"/>
			<point x="338" y="27" type="curve"/>
			<point x="338" y="-16" type="line"/>
			<point x="461" y="-16" type="line"/>
			<point x="461" y="520" type="line"/>
			<point x="338" y="520" type="line"/>
			<point x="338" y="285" type="line" smooth="yes"/>
			<point x="338" y="196.906"/>
			<point x="305.939" y="82"/>
			<point x="232" y="82" type="curve" smooth="yes"/>
			<point x="175.647" y="82"/>
			<point x="163" y="131.479"/>
			<point x="163" y="187" type="curve" smooth="yes"/>
			<point x="163" y="520" type="line"/>
		</contour>
	</outline>
</glyph>
<glyph name="v" format="2">
	<unicode hex="0076"/>
	<advance width="502"/>
	<outline>
		<contour>
			<point x="479" y="520" type="line"/>
			<point x="358" y="520" type="line"/>
			<point x="243" y="172" type="line"/>
			<point x="118" y="520" type="line"/>
			<point x="-10" y="520" type="line"/>
			<point x="191" y="-16" type="line"/>
			<point x="296" y="-16" type="line"/>
		</contour>
	</outline>
</glyph>
<glyph name="w" format="2">
	<unicode hex="0077"/>
	<advance width="684"/>
	<outline>
		<contour>
			<point x="644" y="520" type="line"/>
			<point x="526" y="520" type="line"/>
			<point x="457" y="207" type="line"/>
			<point x="365" y="520" type="line"/>
			<point x="275" y="520" type="line"/>
			<point x="184" y="209" type="line"/>
			<point x="116" y="520" type="line"/>
			<point x="-5" y="520" type="line"/>
			<point x="122" y="-16" type="line"/>
			<point x="227" y="-16" type="line"/>
			<point x="320" y="301" type="line"/>
			<point x="415" y="-16" type="line"/>
			<point x="522" y="-16" type="line"/>
		</contour>
	</outline>
</glyph>
<glyph name="x" format="2">
	<unicode hex="0078"/>
	<advance width="483"/>
	<outline>
		<contour>
			<point x="480" y="-16" type="line"/>
			<point x="301" y="265" type="line"/>
			<point x="464" y="520" type="line"/>
			<point x="327" y="520" type="line"/>
			<point x="233" y="374" type="line"/>
			<point x="140" y="520" type="line"/>
			<point x="3" y="520" type="line"/>
			<point x="165" y="266" type="line"/>
			<point x="-16" y="-16" type="line"/>
			<point x="122" y="-16" type="line"/>
			<point x="233" y="155" type="line"/>
			<point x="342" y="-16" type="line"/>
		</contour>
	</outline>
</glyph>
<glyph name="z" format="2">
	<unicode hex="007A"/>
	<advance width="449"/>
	<outline>
		<contour>
			<point x="411" y="-16" type="line"/>
			<point x="411" y="89" type="line"/>
			<point x="157" y="89" type="line"/>
			<point x="399" y="424" type="line"/>
			<point x="399" y="520" type="line"/>
			<point x="26" y="520" type="line"/>
			<point x="26" y="415" type="line"/>
			<point x="254" y="415" type="line"/>
			<point x="9" y="73" type="line"/>
			<point x="9" y="-16" type="line"/>
		</contour>
	</outline>
</glyph>
<glyph name="braceleft" format="2">
	<unicode hex="007B"/>
	<advance width="406"/>
	<outline>
		<contour>
			<point x="87" y="293" type="line"/>
			<point x="121" y="282"/>
			<point x="146" y="269"/>
			<point x="161" y="255" type="curve" smooth="yes"/>
			<point x="175" y="239"/>
			<point x="183" y="220"/>
			<point x="183" y="197" type="curve" smooth="yes"/>
			<point x="183" y="181"/>
			<point x="180" y="163"/>
			<point x="175" y="142" type="curve" smooth="yes"/>
			<point x="169" y="120"/>
			<point x="166" y="102"/>
			<point x="164" y="88" type="curve" smooth="yes"/>
			<point x="161" y="68"/>
			<point x="160" y="46"/>
			<point x="160" y="24" type="curve" smooth="yes"/>
			<point x="160" y="1"/>
			<point x="165" y="-21"/>
			<point x="175" y="-45" type="curve" smooth="yes"/>
			<point x="185" y="-66"/>
			<point x="198" y="-84"/>
			<point x="212" y="-100" type="curve" smooth="yes"/>
			<point x="226" y="-114"/>
			<point x="241" y="-126"/>
			<point x="258" y="-135" type="curve" smooth="yes"/>
			<point x="275" y="-143"/>
			<point x="293" y="-149"/>
			<point x="312" y="-155" type="curve" smooth="yes"/>
			<point x="330" y="-160"/>
			<point x="356" y="-161"/>
			<point x="388" y="-158" type="curve"/>
			<point x="388" y="-88" type="line"/>
			<point x="354" y="-78"/>
			<point x="331" y="-66"/>
			<point x="320" y="-52" type="curve" smooth="yes"/>
			<point x="308" y="-36"/>
			<point x="300" y="-21"/>
			<point x="296" y="-6" type="curve" smooth="yes"/>
			<point x="290" y="15"/>
			<point x="289" y="36"/>
			<point x="292" y="56" type="curve" smooth="yes"/>
			<point x="294" y="76"/>
			<point x="296" y="96"/>
			<point x="300" y="117" type="curve" smooth="yes"/>
			<point x="303" y="137"/>
			<point x="304" y="159"/>
			<point x="303" y="183" type="curve" smooth="yes"/>
			<point x="301" y="206"/>
			<point x="296" y="227"/>
			<point x="288" y="245" type="curve" smooth="yes"/>
			<point x="273" y="275"/>
			<point x="258" y="296"/>
			<point x="243" y="309" type="curve" smooth="yes"/>
			<point x="227" y="321"/>
			<point x="218" y="328"/>
			<point x="216" y="330" type="curve"/>
			<point x="218" y="331"/>
			<point x="227" y="338"/>
			<point x="243" y="351" type="curve" smooth="yes"/>
			<point x="258" y="363"/>
			<point x="273" y="385"/>
			<point x="288" y="415" type="curve" smooth="yes"/>
			<point x="296" y="433"/>
			<point x="301" y="453"/>
			<point x="303" y="477" type="curve" smooth="yes"/>
			<point x="304" y="500"/>
			<point x="303" y="522"/>
			<point x="300" y="543" type="curve" smooth="yes"/>
			<point x="296" y="563"/>
			<point x="294" y="584"/>
			<point x="292" y="604" type="curve" smooth="yes"/>
			<point x="289" y="624"/>
			<point x="290" y="644"/>
			<point x="296" y="665" type="curve" smooth="yes"/>
			<point x="300" y="681"/>
			<point x="308" y="696"/>
			<point x="320" y="712" type="curve" smooth="yes"/>
			<point x="331" y="726"/>
			<point x="354" y="738"/>
			<point x="388" y="748" type="curve"/>
			<point x="388" y="818" type="line"/>
			<point x="356" y="821"/>
			<point x="330" y="820"/>
			<point x="312" y="815" type="curve" smooth="yes"/>
			<point x="293" y="809"/>
			<point x="275" y="803"/>
			<point x="258" y="795" type="curve" smooth="yes"/>
			<point x="241" y="786"/>
			<point x="226" y="774"/>
			<point x="212" y="760" type="curve" smooth="yes"/>
			<point x="198" y="744"/>
			<point x="185" y="726"/>
			<point x="175" y="705" type="curve" smooth="yes"/>
			<point x="165" y="681"/>
			<point x="160" y="658"/>
			<point x="160" y="636" type="curve" smooth="yes"/>
			<point x="160" y="613"/>
			<point x="161" y="592"/>
			<point x="164" y="572" type="curve" smooth="yes"/>
			<point x="166" y="557"/>
			<point x="169" y="539"/>
			<point x="175" y="518" type="curve" smooth="yes"/>
			<point x="180" y="496"/>
			<point x="183" y="478"/>
			<point x="183" y="462" type="curve" smooth="yes"/>
			<point x="183" y="439"/>
			<point x="175" y="420"/>
			<point x="161" y="406" type="curve" smooth="yes"/>
			<point x="146" y="390"/>
			<point x="121" y="377"/>
			<point x="87" y="367" type="curve"/>
		</contour>
	</outline>
</glyph>
<glyph name="bar" format="2">
  <advance width="303"/>
  <unicode hex="007C"/>
  <outline>
    <contour>
      <point x="209" y="-142" type="line"/>
      <point x="209" y="801" type="line"/>
      <point x="94" y="801" type="line"/>
      <point x="94" y="-142" type="line"/>
    </contour>
  </outline>
</glyph>
<glyph name="braceright" format="2">
	<unicode hex="007D"/>
	<advance width="406"/>
	<outline>
		<contour>
			<point x="319" y="293" type="curve"/>
			<point x="319" y="367" type="line"/>
			<point x="265.252" y="382.357"/>
			<point x="223" y="404.038"/>
			<point x="223" y="462" type="curve" smooth="yes"/>
			<point x="223" y="520.143"/>
			<point x="246" y="572.144"/>
			<point x="246" y="636" type="curve" smooth="yes"/>
			<point x="246" y="742.087"/>
			<point x="157.84" y="819.688"/>
			<point x="51.0996" y="819.688" type="curve" smooth="yes"/>
			<point x="41.0156" y="819.688"/>
			<point x="30" y="819.125"/>
			<point x="18" y="818" type="curve"/>
			<point x="18" y="748" type="line"/>
			<point x="85.849" y="728.044"/>
			<point x="115.766" y="696.381"/>
			<point x="115.766" y="619.518" type="curve" smooth="yes"/>
			<point x="115.766" y="579.23"/>
			<point x="102.686" y="545.98"/>
			<point x="102.686" y="505.066" type="curve" smooth="yes"/>
			<point x="102.686" y="427.076"/>
			<point x="139.17" y="346.943"/>
			<point x="190" y="330" type="curve"/>
			<point x="142.634" y="298.423"/>
			<point x="102.686" y="242.552"/>
			<point x="102.686" y="154.206" type="curve" smooth="yes"/>
			<point x="102.686" y="113.05"/>
			<point x="115.766" y="80.2135"/>
			<point x="115.766" y="40.3165" type="curve" smooth="yes"/>
			<point x="115.766" y="-36.3528"/>
			<point x="85.802" y="-68.0582"/>
			<point x="18" y="-88" type="curve"/>
			<point x="18" y="-158" type="line"/>
			<point x="30" y="-159.125"/>
			<point x="41.0156" y="-159.688"/>
			<point x="51.0996" y="-159.688" type="curve" smooth="yes"/>
			<point x="157.861" y="-159.688"/>
			<point x="246" y="-82.2238"/>
			<point x="246" y="24" type="curve" smooth="yes"/>
			<point x="246" y="87.0992"/>
			<point x="223" y="138.567"/>
			<point x="223" y="197" type="curve" smooth="yes"/>
			<point x="223" y="256.101"/>
			<point x="263.884" y="275.678"/>
		</contour>
	</outline>
</glyph>
<glyph name="asciitilde" format="2">
	<unicode hex="007E"/>
	<advance width="524"/>
	<outline>
		<contour>
			<point x="508" y="450" type="curve"/>
			<point x="395" y="450" type="line"/>
			<point x="395" y="389.288"/>
			<point x="392.648" y="341"/>
			<point x="356" y="341" type="curve" smooth="yes"/>
			<point x="311" y="341"/>
			<point x="277" y="464"/>
			<point x="165" y="464" type="curve" smooth="yes"/>
			<point x="55.7032" y="464"/>
			<point x="17" y="366.708"/>
			<point x="17" y="245" type="curve"/>
			<point x="129" y="245" type="line"/>
			<point x="129" y="304.8"/>
			<point x="130.742" y="356"/>
			<point x="166" y="356" type="curve" smooth="yes"/>
			<point x="212" y="356"/>
			<point x="236" y="233"/>
			<point x="358" y="233" type="curve" smooth="yes"/>
			<point x="472.1" y="233"/>
			<point x="508" y="324.09"/>
		</contour>
	</outline>
</glyph>
<glyph name="uni0081" format="2">
	<unicode hex="0081"/>
	<advance width="964"/>
	<outline>
		<contour>
			<point x="899" y="389" type="line"/>
			<point x="899" y="442" type="line"/>
			<point x="758" y="442" type="line"/>
			<point x="808" y="714" type="line"/>
			<point x="739" y="714" type="line"/>
			<point x="688" y="442" type="line"/>
			<point x="553" y="442" type="line"/>
			<point x="532.792" y="522.833"/>
			<point x="500.491" y="618.07"/>
			<point x="490" y="702" type="curve" smooth="yes"/>
			<point x="488" y="710"/>
			<point x="487" y="714"/>
			<point x="487" y="714" type="curve"/>
			<point x="404" y="714" type="line"/>
			<point x="342" y="442" type="line"/>
			<point x="209" y="442" type="line"/>
			<point x="154" y="714" type="line"/>
			<point x="86" y="714" type="line"/>
			<point x="140" y="442" type="line"/>
			<point x="9" y="442" type="line"/>
			<point x="9" y="389" type="line"/>
			<point x="151" y="389" type="line"/>
			<point x="221" y="40" type="line"/>
			<point x="314" y="40" type="line"/>
			<point x="395" y="389" type="line"/>
			<point x="504" y="389" type="line"/>
			<point x="590" y="40" type="line"/>
			<point x="684" y="40" type="line"/>
			<point x="748" y="389" type="line"/>
		</contour>
		<contour>
			<point x="490" y="442" type="curve"/>
			<point x="407" y="442" type="line"/>
			<point x="447" y="612" type="line"/>
			<point x="449" y="612" type="line"/>
			<point x="460.326" y="561.032"/>
			<point x="478.671" y="492.979"/>
		</contour>
		<contour>
			<point x="678" y="389" type="line"/>
			<point x="631" y="135" type="line"/>
			<point x="629" y="135" type="line"/>
			<point x="602.967" y="213.101"/>
			<point x="586.184" y="308.267"/>
			<point x="566" y="389" type="curve"/>
		</contour>
		<contour>
			<point x="330" y="389" type="line"/>
			<point x="273" y="139" type="line"/>
			<point x="271" y="139" type="line"/>
			<point x="220" y="389" type="line"/>
		</contour>
	</outline>
</glyph>
<glyph name="uni0085" format="2">
	<unicode hex="0085"/>
	<advance width="858"/>
	<outline>
		<contour>
			<point x="765" y="392" type="line"/>
			<point x="665" y="392" type="line"/>
			<point x="665" y="292" type="line"/>
			<point x="765" y="292" type="line"/>
		</contour>
		<contour>
			<point x="479" y="392" type="line"/>
			<point x="379" y="392" type="line"/>
			<point x="379" y="292" type="line"/>
			<point x="479" y="292" type="line"/>
		</contour>
		<contour>
			<point x="193" y="392" type="line"/>
			<point x="93" y="392" type="line"/>
			<point x="93" y="292" type="line"/>
			<point x="193" y="292" type="line"/>
		</contour>
	</outline>
</glyph>
<glyph name="exclamdown" format="2">
  <advance width="838"/>
  <unicode hex="00A1"/>
  <outline>
    <contour>
      <point x="477" y="-86" type="line"/>
      <point x="470" y="505" type="line"/>
      <point x="367" y="505" type="line"/>
      <point x="360" y="-86" type="line"/>
    </contour>
    <contour>
      <point x="484" y="749" type="line"/>
      <point x="354" y="749" type="line"/>
      <point x="354" y="617" type="line"/>
      <point x="484" y="617" type="line"/>
    </contour>
  </outline>
</glyph>
<glyph name="currency" format="2">
  <advance width="678"/>
  <unicode hex="00A4"/>
  <outline>
    <contour>
      <point x="101" y="332" type="curve" smooth="yes"/>
      <point x="101" y="274"/>
      <point x="116" y="225"/>
      <point x="148" y="183" type="curve"/>
      <point x="70" y="101" type="line"/>
      <point x="131" y="43" type="line"/>
      <point x="208" y="124" type="line"/>
      <point x="248" y="95"/>
      <point x="293" y="81"/>
      <point x="343" y="81" type="curve" smooth="yes"/>
      <point x="393" y="81"/>
      <point x="438" y="95"/>
      <point x="478" y="124" type="curve"/>
      <point x="555" y="43" type="line"/>
      <point x="616" y="101" type="line"/>
      <point x="539" y="184" type="line"/>
      <point x="569" y="226"/>
      <point x="585" y="275"/>
      <point x="585" y="332" type="curve" smooth="yes"/>
      <point x="585" y="388"/>
      <point x="569" y="438"/>
      <point x="539" y="480" type="curve"/>
      <point x="616" y="562" type="line"/>
      <point x="556" y="620" type="line"/>
      <point x="479" y="539" type="line"/>
      <point x="438" y="568"/>
      <point x="393" y="583"/>
      <point x="343" y="583" type="curve" smooth="yes"/>
      <point x="293" y="583"/>
      <point x="247" y="568"/>
      <point x="207" y="539" type="curve"/>
      <point x="130" y="620" type="line"/>
      <point x="70" y="562" type="line"/>
      <point x="147" y="479" type="line"/>
      <point x="116" y="437"/>
      <point x="101" y="388"/>
    </contour>
    <contour>
      <point x="187" y="332" type="curve" smooth="yes"/>
      <point x="187" y="382"/>
      <point x="202" y="422"/>
      <point x="234" y="454" type="curve" smooth="yes"/>
      <point x="265" y="485"/>
      <point x="301" y="501"/>
      <point x="343" y="501" type="curve" smooth="yes"/>
      <point x="384" y="501"/>
      <point x="420" y="485"/>
      <point x="452" y="454" type="curve" smooth="yes"/>
      <point x="483" y="422"/>
      <point x="499" y="382"/>
      <point x="499" y="332" type="curve" smooth="yes"/>
      <point x="499" y="282"/>
      <point x="483" y="241"/>
      <point x="452" y="210" type="curve" smooth="yes"/>
      <point x="420" y="178"/>
      <point x="384" y="163"/>
      <point x="343" y="163" type="curve" smooth="yes"/>
      <point x="301" y="163"/>
      <point x="265" y="178"/>
      <point x="234" y="210" type="curve" smooth="yes"/>
      <point x="202" y="241"/>
      <point x="187" y="282"/>
    </contour>
  </outline>
</glyph>
<glyph name="section" format="2">
	<unicode hex="00A7"/>
	<advance width="347"/>
	<outline>
		<contour>
			<point x="317" y="266" type="curve" smooth="yes"/>
			<point x="323" y="292"/>
			<point x="322" y="319"/>
			<point x="312" y="347" type="curve" smooth="yes"/>
			<point x="301" y="374"/>
			<point x="289" y="398"/>
			<point x="277" y="419" type="curve" smooth="yes"/>
			<point x="263" y="438"/>
			<point x="248" y="456"/>
			<point x="232" y="473" type="curve" smooth="yes"/>
			<point x="215" y="489"/>
			<point x="200" y="505"/>
			<point x="186" y="521" type="curve" smooth="yes"/>
			<point x="171" y="537"/>
			<point x="159" y="554"/>
			<point x="151" y="570" type="curve" smooth="yes"/>
			<point x="142" y="586"/>
			<point x="138" y="603"/>
			<point x="138" y="623" type="curve" smooth="yes"/>
			<point x="138" y="643"/>
			<point x="141" y="657"/>
			<point x="149" y="665" type="curve" smooth="yes"/>
			<point x="155" y="672"/>
			<point x="163" y="676"/>
			<point x="171" y="678" type="curve" smooth="yes"/>
			<point x="175" y="678"/>
			<point x="179" y="678"/>
			<point x="183" y="678" type="curve" smooth="yes"/>
			<point x="185" y="677"/>
			<point x="189" y="676"/>
			<point x="194" y="674" type="curve"/>
			<point x="191" y="662"/>
			<point x="191" y="650"/>
			<point x="195" y="638" type="curve" smooth="yes"/>
			<point x="197" y="624"/>
			<point x="203" y="613"/>
			<point x="211" y="605" type="curve" smooth="yes"/>
			<point x="219" y="595"/>
			<point x="229" y="589"/>
			<point x="243" y="586" type="curve" smooth="yes"/>
			<point x="256" y="582"/>
			<point x="269" y="587"/>
			<point x="283" y="601" type="curve" smooth="yes"/>
			<point x="294" y="612"/>
			<point x="299" y="627"/>
			<point x="298" y="645" type="curve" smooth="yes"/>
			<point x="296" y="662"/>
			<point x="289" y="678"/>
			<point x="278" y="694" type="curve" smooth="yes"/>
			<point x="266" y="708"/>
			<point x="252" y="721"/>
			<point x="234" y="732" type="curve" smooth="yes"/>
			<point x="215" y="742"/>
			<point x="194" y="748"/>
			<point x="170" y="748" type="curve" smooth="yes"/>
			<point x="135" y="747"/>
			<point x="106" y="734"/>
			<point x="83" y="709" type="curve" smooth="yes"/>
			<point x="59" y="683"/>
			<point x="47" y="646"/>
			<point x="49" y="598" type="curve" smooth="yes"/>
			<point x="49" y="578"/>
			<point x="51" y="560"/>
			<point x="56" y="544" type="curve" smooth="yes"/>
			<point x="60" y="528"/>
			<point x="65" y="514"/>
			<point x="71" y="503" type="curve" smooth="yes"/>
			<point x="79" y="489"/>
			<point x="83" y="481"/>
			<point x="85" y="480" type="curve" smooth="yes"/>
			<point x="85" y="478"/>
			<point x="86" y="477"/>
			<point x="86" y="477" type="curve"/>
			<point x="82" y="475"/>
			<point x="76" y="471"/>
			<point x="68" y="465" type="curve" smooth="yes"/>
			<point x="60" y="459"/>
			<point x="50" y="447"/>
			<point x="40" y="430" type="curve" smooth="yes"/>
			<point x="32" y="410"/>
			<point x="30" y="392"/>
			<point x="32" y="374" type="curve" smooth="yes"/>
			<point x="33" y="355"/>
			<point x="37" y="337"/>
			<point x="44" y="319" type="curve" smooth="yes"/>
			<point x="53" y="301"/>
			<point x="63" y="284"/>
			<point x="74" y="270" type="curve" smooth="yes"/>
			<point x="84" y="254"/>
			<point x="96" y="240"/>
			<point x="108" y="226" type="curve" smooth="yes"/>
			<point x="120" y="210"/>
			<point x="132" y="195"/>
			<point x="146" y="181" type="curve" smooth="yes"/>
			<point x="158" y="165"/>
			<point x="170" y="150"/>
			<point x="180" y="135" type="curve" smooth="yes"/>
			<point x="187" y="121"/>
			<point x="193" y="107"/>
			<point x="198" y="93" type="curve" smooth="yes"/>
			<point x="202" y="78"/>
			<point x="203" y="62"/>
			<point x="200" y="45" type="curve" smooth="yes"/>
			<point x="197" y="31"/>
			<point x="192" y="23"/>
			<point x="186" y="19" type="curve" smooth="yes"/>
			<point x="179" y="14"/>
			<point x="172" y="11"/>
			<point x="165" y="11" type="curve" smooth="yes"/>
			<point x="161" y="10"/>
			<point x="159" y="10"/>
			<point x="157" y="12" type="curve" smooth="yes"/>
			<point x="154" y="12"/>
			<point x="152" y="13"/>
			<point x="151" y="14" type="curve" smooth="yes"/>
			<point x="152" y="19"/>
			<point x="152" y="27"/>
			<point x="151" y="38" type="curve" smooth="yes"/>
			<point x="149" y="48"/>
			<point x="145" y="58"/>
			<point x="141" y="66" type="curve" smooth="yes"/>
			<point x="135" y="74"/>
			<point x="128" y="82"/>
			<point x="119" y="89" type="curve" smooth="yes"/>
			<point x="109" y="95"/>
			<point x="97" y="97"/>
			<point x="83" y="94" type="curve" smooth="yes"/>
			<point x="67" y="90"/>
			<point x="57" y="81"/>
			<point x="54" y="67" type="curve" smooth="yes"/>
			<point x="50" y="52"/>
			<point x="49" y="38"/>
			<point x="52" y="24" type="curve" smooth="yes"/>
			<point x="55" y="9"/>
			<point x="62" y="-5"/>
			<point x="74" y="-20" type="curve" smooth="yes"/>
			<point x="85" y="-34"/>
			<point x="100" y="-45"/>
			<point x="119" y="-53" type="curve" smooth="yes"/>
			<point x="135" y="-59"/>
			<point x="153" y="-62"/>
			<point x="172" y="-62" type="curve" smooth="yes"/>
			<point x="190" y="-61"/>
			<point x="208" y="-56"/>
			<point x="225" y="-47" type="curve" smooth="yes"/>
			<point x="240" y="-39"/>
			<point x="254" y="-27"/>
			<point x="267" y="-11" type="curve" smooth="yes"/>
			<point x="279" y="5"/>
			<point x="288" y="24"/>
			<point x="293" y="47" type="curve" smooth="yes"/>
			<point x="298" y="71"/>
			<point x="300" y="94"/>
			<point x="298" y="115" type="curve" smooth="yes"/>
			<point x="296" y="135"/>
			<point x="292" y="153"/>
			<point x="287" y="169" type="curve" smooth="yes"/>
			<point x="281" y="183"/>
			<point x="276" y="194"/>
			<point x="274" y="200" type="curve" smooth="yes"/>
			<point x="270" y="205"/>
			<point x="269" y="208"/>
			<point x="269" y="208" type="curve"/>
			<point x="273" y="210"/>
			<point x="281" y="215"/>
			<point x="292" y="224" type="curve" smooth="yes"/>
			<point x="302" y="232"/>
			<point x="310" y="246"/>
		</contour>
		<contour>
			<point x="209" y="347" type="curve" smooth="yes"/>
			<point x="215" y="337"/>
			<point x="221" y="328"/>
			<point x="225" y="319" type="curve" smooth="yes"/>
			<point x="229" y="309"/>
			<point x="231" y="299"/>
			<point x="232" y="291" type="curve" smooth="yes"/>
			<point x="232" y="283"/>
			<point x="230" y="278"/>
			<point x="228" y="275" type="curve" smooth="yes"/>
			<point x="225" y="271"/>
			<point x="220" y="269"/>
			<point x="214" y="269" type="curve" smooth="yes"/>
			<point x="209" y="269"/>
			<point x="200" y="273"/>
			<point x="188" y="283" type="curve" smooth="yes"/>
			<point x="174" y="292"/>
			<point x="159" y="308"/>
			<point x="143" y="332" type="curve" smooth="yes"/>
			<point x="135" y="341"/>
			<point x="129" y="352"/>
			<point x="125" y="364" type="curve" smooth="yes"/>
			<point x="121" y="375"/>
			<point x="119" y="384"/>
			<point x="119" y="391" type="curve" smooth="yes"/>
			<point x="119" y="399"/>
			<point x="120" y="405"/>
			<point x="123" y="409" type="curve" smooth="yes"/>
			<point x="125" y="411"/>
			<point x="129" y="412"/>
			<point x="136" y="411" type="curve" smooth="yes"/>
			<point x="144" y="409"/>
			<point x="154" y="403"/>
			<point x="167" y="393" type="curve" smooth="yes"/>
			<point x="179" y="382"/>
			<point x="193" y="367"/>
		</contour>
	</outline>
</glyph>
<glyph name="copyright" format="2">
	<unicode hex="00A9"/>
	<advance width="838"/>
	<outline>
		<contour>
			<point x="602" y="436" type="line"/>
			<point x="602" y="554.266"/>
			<point x="534.397" y="628"/>
			<point x="420" y="628" type="curve" smooth="yes"/>
			<point x="264.765" y="628"/>
			<point x="189" y="500.128"/>
			<point x="189" y="345" type="curve" smooth="yes"/>
			<point x="189" y="187.483"/>
			<point x="263.87" y="46"/>
			<point x="419" y="46" type="curve" smooth="yes"/>
			<point x="490.769" y="46"/>
			<point x="539.524" y="60.1948"/>
			<point x="585" y="85" type="curve"/>
			<point x="585" y="198" type="line"/>
			<point x="530.704" y="155.77"/>
			<point x="505.324" y="134"/>
			<point x="437" y="134" type="curve" smooth="yes"/>
			<point x="330.502" y="134"/>
			<point x="287" y="239.695"/>
			<point x="287" y="345" type="curve" smooth="yes"/>
			<point x="287" y="439.542"/>
			<point x="325.705" y="540"/>
			<point x="420" y="540" type="curve"/>
			<point x="478.929" y="534.107"/>
			<point x="502" y="506.851"/>
			<point x="502" y="436" type="curve"/>
		</contour>
		<contour>
			<point x="834" y="331" type="curve" smooth="yes"/>
			<point x="834" y="572.066"/>
			<point x="658.809" y="756"/>
			<point x="419" y="756" type="curve" smooth="yes"/>
			<point x="178.507" y="756"/>
			<point x="4" y="572.64"/>
			<point x="4" y="331" type="curve" smooth="yes"/>
			<point x="4" y="89.0035"/>
			<point x="177.9" y="-92"/>
			<point x="419" y="-92" type="curve" smooth="yes"/>
			<point x="659.629" y="-92"/>
			<point x="834" y="88.5857"/>
		</contour>
		<contour>
			<point x="748" y="331" type="curve" smooth="yes"/>
			<point x="748" y="134.415"/>
			<point x="612.506" y="-10"/>
			<point x="419" y="-10" type="curve" smooth="yes"/>
			<point x="224.755" y="-10"/>
			<point x="90" y="135.678"/>
			<point x="90" y="331" type="curve" smooth="yes"/>
			<point x="90" y="525.517"/>
			<point x="225.046" y="674"/>
			<point x="419" y="674" type="curve" smooth="yes"/>
			<point x="612.808" y="674"/>
			<point x="748" y="525.757"/>
		</contour>
	</outline>
</glyph>
<glyph name="ordfeminine" format="2">
	<unicode hex="00AA"/>
	<advance width="611"/>
	<outline>
		<contour>
			<point x="87" y="175" type="line"/>
			<point x="516" y="175" type="line"/>
			<point x="516" y="272" type="line"/>
			<point x="87" y="272" type="line"/>
		</contour>
		<contour>
			<point x="367" y="293" type="line"/>
			<point x="476" y="293" type="line"/>
			<point x="476" y="590" type="line" smooth="yes"/>
			<point x="476" y="676.163"/>
			<point x="401.842" y="739"/>
			<point x="311" y="739" type="curve" smooth="yes"/>
			<point x="212.907" y="739"/>
			<point x="142" y="686.464"/>
			<point x="142" y="588" type="curve"/>
			<point x="260" y="588" type="line"/>
			<point x="260" y="631.78"/>
			<point x="270.624" y="643"/>
			<point x="311" y="643" type="curve" smooth="yes"/>
			<point x="348.513" y="643"/>
			<point x="367" y="622.687"/>
			<point x="367" y="587" type="curve" smooth="yes"/>
			<point x="367" y="573" type="line"/>
			<point x="249.091" y="573"/>
			<point x="133" y="526.425"/>
			<point x="133" y="408" type="curve" smooth="yes"/>
			<point x="133" y="334.694"/>
			<point x="191.186" y="284"/>
			<point x="263" y="284" type="curve" smooth="yes"/>
			<point x="309.972" y="284"/>
			<point x="347.447" y="297.447"/>
			<point x="367" y="317" type="curve"/>
		</contour>
		<contour>
			<point x="367" y="455" type="line" smooth="yes"/>
			<point x="367" y="415.257"/>
			<point x="330.117" y="380"/>
			<point x="290" y="380" type="curve" smooth="yes"/>
			<point x="262.955" y="380"/>
			<point x="246" y="389.777"/>
			<point x="246" y="418" type="curve" smooth="yes"/>
			<point x="246" y="473.539"/>
			<point x="311.725" y="484"/>
			<point x="367" y="484" type="curve"/>
		</contour>
	</outline>
</glyph>
<glyph name="uni00AD" format="2">
	<unicode hex="00AD"/>
	<advance width="392"/>
	<outline>
		<contour>
			<point x="341" y="395" type="line"/>
			<point x="25" y="395" type="line"/>
			<point x="25" y="289" type="line"/>
			<point x="341" y="289" type="line"/>
		</contour>
	</outline>
</glyph>
<glyph name="registered" format="2">
	<unicode hex="00AE"/>
	<advance width="838"/>
	<outline>
		<contour>
			<point x="608" y="449" type="curve" smooth="yes"/>
			<point x="608" y="481"/>
			<point x="602" y="507"/>
			<point x="591" y="529" type="curve" smooth="yes"/>
			<point x="579" y="549"/>
			<point x="563" y="567"/>
			<point x="543" y="582" type="curve" smooth="yes"/>
			<point x="524" y="594"/>
			<point x="504" y="603"/>
			<point x="482" y="609" type="curve" smooth="yes"/>
			<point x="460" y="615"/>
			<point x="436" y="618"/>
			<point x="411" y="618" type="curve" smooth="yes"/>
			<point x="262" y="618" type="line"/>
			<point x="262" y="55" type="line"/>
			<point x="359" y="55" type="line"/>
			<point x="359" y="279" type="line"/>
			<point x="364" y="279" type="line"/>
			<point x="399" y="279" type="line" smooth="yes"/>
			<point x="429" y="279"/>
			<point x="454" y="265"/>
			<point x="474" y="237" type="curve" smooth="yes"/>
			<point x="492" y="209"/>
			<point x="509" y="149"/>
			<point x="524" y="55" type="curve"/>
			<point x="614" y="55" type="line"/>
			<point x="593" y="39"/>
			<point x="570" y="26"/>
			<point x="546" y="16" type="curve" smooth="yes"/>
			<point x="506" y="-1"/>
			<point x="463" y="-10"/>
			<point x="419" y="-10" type="curve" smooth="yes"/>
			<point x="374" y="-10"/>
			<point x="332" y="-1"/>
			<point x="292" y="16" type="curve" smooth="yes"/>
			<point x="252" y="33"/>
			<point x="217" y="56"/>
			<point x="187" y="86" type="curve" smooth="yes"/>
			<point x="157" y="116"/>
			<point x="134" y="152"/>
			<point x="117" y="194" type="curve" smooth="yes"/>
			<point x="99" y="234"/>
			<point x="90" y="280"/>
			<point x="90" y="331" type="curve" smooth="yes"/>
			<point x="90" y="382"/>
			<point x="99" y="428"/>
			<point x="117" y="470" type="curve" smooth="yes"/>
			<point x="134" y="510"/>
			<point x="157" y="546"/>
			<point x="187" y="576" type="curve" smooth="yes"/>
			<point x="217" y="606"/>
			<point x="252" y="630"/>
			<point x="292" y="648" type="curve" smooth="yes"/>
			<point x="332" y="665"/>
			<point x="374" y="674"/>
			<point x="419" y="674" type="curve" smooth="yes"/>
			<point x="463" y="674"/>
			<point x="506" y="665"/>
			<point x="546" y="648" type="curve" smooth="yes"/>
			<point x="586" y="630"/>
			<point x="620" y="606"/>
			<point x="650" y="576" type="curve" smooth="yes"/>
			<point x="680" y="546"/>
			<point x="704" y="510"/>
			<point x="722" y="470" type="curve" smooth="yes"/>
			<point x="739" y="428"/>
			<point x="748" y="382"/>
			<point x="748" y="331" type="curve" smooth="yes"/>
			<point x="748" y="280"/>
			<point x="739" y="234"/>
			<point x="722" y="194" type="curve" smooth="yes"/>
			<point x="704" y="152"/>
			<point x="680" y="116"/>
			<point x="650" y="86" type="curve" smooth="yes"/>
			<point x="641" y="77"/>
			<point x="632" y="69"/>
			<point x="622" y="61" type="curve"/>
			<point x="610" y="133"/>
			<point x="596" y="194"/>
			<point x="580" y="242" type="curve" smooth="yes"/>
			<point x="561" y="289"/>
			<point x="547" y="315"/>
			<point x="538" y="319" type="curve" smooth="yes"/>
			<point x="536" y="318"/>
			<point x="539" y="320"/>
			<point x="545" y="325" type="curve" smooth="yes"/>
			<point x="563" y="337"/>
			<point x="579" y="354"/>
			<point x="591" y="376" type="curve" smooth="yes"/>
			<point x="602" y="398"/>
			<point x="608" y="422"/>
		</contour>
		<contour>
			<point x="834" y="331" type="curve" smooth="yes"/>
			<point x="834" y="393"/>
			<point x="823" y="449"/>
			<point x="801" y="500" type="curve" smooth="yes"/>
			<point x="779" y="550"/>
			<point x="749" y="594"/>
			<point x="711" y="632" type="curve" smooth="yes"/>
			<point x="673" y="670"/>
			<point x="630" y="700"/>
			<point x="580" y="723" type="curve" smooth="yes"/>
			<point x="530" y="745"/>
			<point x="476" y="756"/>
			<point x="419" y="756" type="curve" smooth="yes"/>
			<point x="361" y="756"/>
			<point x="308" y="745"/>
			<point x="258" y="723" type="curve" smooth="yes"/>
			<point x="208" y="700"/>
			<point x="164" y="670"/>
			<point x="126" y="632" type="curve" smooth="yes"/>
			<point x="88" y="594"/>
			<point x="59" y="550"/>
			<point x="37" y="500" type="curve" smooth="yes"/>
			<point x="15" y="449"/>
			<point x="4" y="393"/>
			<point x="4" y="331" type="curve" smooth="yes"/>
			<point x="4" y="269"/>
			<point x="15" y="213"/>
			<point x="37" y="163" type="curve" smooth="yes"/>
			<point x="59" y="112"/>
			<point x="88" y="68"/>
			<point x="126" y="30" type="curve" smooth="yes"/>
			<point x="164" y="-7"/>
			<point x="208" y="-37"/>
			<point x="258" y="-59" type="curve" smooth="yes"/>
			<point x="308" y="-81"/>
			<point x="361" y="-92"/>
			<point x="419" y="-92" type="curve" smooth="yes"/>
			<point x="476" y="-92"/>
			<point x="530" y="-81"/>
			<point x="580" y="-59" type="curve" smooth="yes"/>
			<point x="630" y="-37"/>
			<point x="673" y="-7"/>
			<point x="711" y="30" type="curve" smooth="yes"/>
			<point x="749" y="68"/>
			<point x="779" y="112"/>
			<point x="801" y="163" type="curve" smooth="yes"/>
			<point x="823" y="213"/>
			<point x="834" y="269"/>
		</contour>
		<contour>
			<point x="359" y="371" type="line"/>
			<point x="359" y="529" type="line"/>
			<point x="415" y="529" type="line" smooth="yes"/>
			<point x="425" y="529"/>
			<point x="437" y="527"/>
			<point x="449" y="524" type="curve" smooth="yes"/>
			<point x="461" y="520"/>
			<point x="471" y="516"/>
			<point x="481" y="511" type="curve" smooth="yes"/>
			<point x="488" y="505"/>
			<point x="495" y="497"/>
			<point x="502" y="487" type="curve" smooth="yes"/>
			<point x="508" y="477"/>
			<point x="511" y="464"/>
			<point x="511" y="449" type="curve" smooth="yes"/>
			<point x="511" y="435"/>
			<point x="508" y="423"/>
			<point x="502" y="412" type="curve" smooth="yes"/>
			<point x="495" y="400"/>
			<point x="488" y="392"/>
			<point x="482" y="388" type="curve" smooth="yes"/>
			<point x="472" y="382"/>
			<point x="462" y="377"/>
			<point x="450" y="375" type="curve" smooth="yes"/>
			<point x="438" y="372"/>
			<point x="423" y="371"/>
			<point x="406" y="371" type="curve" smooth="yes"/>
			<point x="364" y="371" type="line"/>
		</contour>
	</outline>
</glyph>
<glyph name="degree" format="2">
	<unicode hex="00B0"/>
	<advance width="255"/>
	<outline>
		<contour>
			<point x="154" y="670" type="curve" smooth="yes"/>
			<point x="154" y="653.629"/>
			<point x="141.959" y="643"/>
			<point x="128" y="643" type="curve" smooth="yes"/>
			<point x="112.676" y="643"/>
			<point x="102" y="654.697"/>
			<point x="102" y="670" type="curve" smooth="yes"/>
			<point x="102" y="684.392"/>
			<point x="111.641" y="697"/>
			<point x="128" y="697" type="curve" smooth="yes"/>
			<point x="143.006" y="697"/>
			<point x="154" y="685.469"/>
		</contour>
		<contour>
			<point x="244" y="670" type="curve" smooth="yes"/>
			<point x="244" y="732.104"/>
			<point x="190.558" y="785"/>
			<point x="128" y="785" type="curve" smooth="yes"/>
			<point x="64.5698" y="785"/>
			<point x="12" y="732.106"/>
			<point x="12" y="670" type="curve" smooth="yes"/>
			<point x="12" y="606.534"/>
			<point x="64.5704" y="555"/>
			<point x="128" y="555" type="curve" smooth="yes"/>
			<point x="190.566" y="555"/>
			<point x="244" y="606.539"/>
		</contour>
	</outline>
</glyph>
<glyph name="plusminus" format="2">
	<unicode hex="00B1"/>
	<advance width="631"/>
	<outline>
		<contour>
			<point x="561" y="366" type="line"/>
			<point x="561" y="463" type="line"/>
			<point x="348" y="463" type="line"/>
			<point x="348" y="652" type="line"/>
			<point x="244" y="652" type="line"/>
			<point x="244" y="463" type="line"/>
			<point x="31" y="463" type="line"/>
			<point x="31" y="366" type="line"/>
			<point x="244" y="366" type="line"/>
			<point x="244" y="173" type="line"/>
			<point x="348" y="173" type="line"/>
			<point x="348" y="366" type="line"/>
		</contour>
		<contour>
			<point x="561" y="38" type="line"/>
			<point x="561" y="134" type="line"/>
			<point x="31" y="134" type="line"/>
			<point x="31" y="38" type="line"/>
		</contour>
	</outline>
</glyph>
<glyph name="uni00B2" format="2">
	<unicode hex="00B2"/>
	<advance width="348"/>
	<outline>
		<contour>
			<point x="49" y="393" type="curve"/>
			<point x="49" y="317" type="line"/>
			<point x="304" y="317" type="line"/>
			<point x="304" y="409" type="line"/>
			<point x="182" y="409" type="line"/>
			<point x="194" y="422"/>
			<point x="212" y="443"/>
			<point x="234" y="472" type="curve" smooth="yes"/>
			<point x="256" y="500"/>
			<point x="273" y="531"/>
			<point x="286" y="563" type="curve" smooth="yes"/>
			<point x="290" y="574"/>
			<point x="293" y="587"/>
			<point x="295" y="601" type="curve" smooth="yes"/>
			<point x="296" y="614"/>
			<point x="297" y="625"/>
			<point x="297" y="635" type="curve" smooth="yes"/>
			<point x="297" y="674"/>
			<point x="285" y="706"/>
			<point x="261" y="732" type="curve" smooth="yes"/>
			<point x="237" y="756"/>
			<point x="207" y="769"/>
			<point x="171" y="769" type="curve" smooth="yes"/>
			<point x="146" y="769"/>
			<point x="126" y="764"/>
			<point x="110" y="754" type="curve" smooth="yes"/>
			<point x="93" y="744"/>
			<point x="80" y="732"/>
			<point x="71" y="718" type="curve" smooth="yes"/>
			<point x="61" y="703"/>
			<point x="55" y="688"/>
			<point x="52" y="674" type="curve" smooth="yes"/>
			<point x="48" y="659"/>
			<point x="46" y="639"/>
			<point x="46" y="615" type="curve"/>
			<point x="142" y="615" type="line"/>
			<point x="141" y="642"/>
			<point x="144" y="660"/>
			<point x="150" y="669" type="curve" smooth="yes"/>
			<point x="155" y="677"/>
			<point x="162" y="681"/>
			<point x="171" y="681" type="curve" smooth="yes"/>
			<point x="181" y="681"/>
			<point x="189" y="676"/>
			<point x="195" y="668" type="curve" smooth="yes"/>
			<point x="201" y="658"/>
			<point x="204" y="648"/>
			<point x="204" y="638" type="curve" smooth="yes"/>
			<point x="204" y="632"/>
			<point x="203" y="624"/>
			<point x="202" y="615" type="curve" smooth="yes"/>
			<point x="200" y="605"/>
			<point x="199" y="597"/>
			<point x="198" y="593" type="curve" smooth="yes"/>
			<point x="186" y="558"/>
			<point x="162" y="520"/>
			<point x="128" y="479" type="curve" smooth="yes"/>
			<point x="93" y="437"/>
			<point x="73" y="414"/>
			<point x="67" y="410" type="curve" smooth="yes"/>
			<point x="64" y="408"/>
			<point x="62" y="406"/>
			<point x="61" y="405" type="curve" smooth="yes"/>
			<point x="59" y="403"/>
			<point x="55" y="399"/>
		</contour>
	</outline>
</glyph>
<glyph name="uni00B3" format="2">
	<unicode hex="00B3"/>
	<advance width="371"/>
	<outline>
		<contour>
			<point x="262" y="549" type="curve"/>
			<point x="280" y="531"/>
			<point x="304" y="497"/>
			<point x="304" y="453" type="curve" smooth="yes"/>
			<point x="304" y="372"/>
			<point x="252" y="310"/>
			<point x="171" y="310" type="curve" smooth="yes"/>
			<point x="83" y="310"/>
			<point x="42" y="365"/>
			<point x="35" y="449" type="curve"/>
			<point x="138" y="449" type="line"/>
			<point x="138" y="416"/>
			<point x="141" y="401"/>
			<point x="169" y="401" type="curve" smooth="yes"/>
			<point x="196" y="401"/>
			<point x="206" y="421"/>
			<point x="206" y="451" type="curve" smooth="yes"/>
			<point x="206" y="503"/>
			<point x="183" y="505"/>
			<point x="127" y="505" type="curve"/>
			<point x="127" y="595" type="line"/>
			<point x="136.483" y="595"/>
			<point x="144.895" y="594.851"/>
			<point x="152.325" y="594.851" type="curve" smooth="yes"/>
			<point x="187.987" y="594.851"/>
			<point x="201" y="598.276"/>
			<point x="201" y="638" type="curve" smooth="yes"/>
			<point x="201" y="660"/>
			<point x="192" y="678"/>
			<point x="172" y="678" type="curve" smooth="yes"/>
			<point x="143" y="678"/>
			<point x="142" y="661"/>
			<point x="136" y="631" type="curve"/>
			<point x="46" y="631" type="line"/>
			<point x="46" y="715"/>
			<point x="88" y="768"/>
			<point x="170" y="768" type="curve" smooth="yes"/>
			<point x="246" y="768"/>
			<point x="298" y="715"/>
			<point x="298" y="638" type="curve" smooth="yes"/>
			<point x="298" y="602"/>
			<point x="280" y="558"/>
		</contour>
	</outline>
</glyph>
<glyph name="acute" format="2">
	<unicode hex="00B4"/>
	<advance width="838"/>
	<outline>
		<contour>
			<point x="517" y="744" type="line"/>
			<point x="393" y="744" type="line"/>
			<point x="326" y="544" type="line"/>
			<point x="423" y="544" type="line"/>
		</contour>
	</outline>
</glyph>
<glyph name="paragraph" format="2">
	<unicode hex="00B6"/>
	<advance width="838"/>
	<outline>
		<contour>
			<point x="357" y="727" type="line" smooth="yes"/>
			<point x="307" y="727"/>
			<point x="265" y="707"/>
			<point x="229" y="668" type="curve" smooth="yes"/>
			<point x="192" y="628"/>
			<point x="174" y="579"/>
			<point x="174" y="523" type="curve" smooth="yes"/>
			<point x="174" y="465"/>
			<point x="191" y="416"/>
			<point x="225" y="376" type="curve" smooth="yes"/>
			<point x="259" y="335"/>
			<point x="301" y="315"/>
			<point x="351" y="315" type="curve"/>
			<point x="351" y="-162" type="line"/>
			<point x="427" y="-162" type="line"/>
			<point x="427" y="654" type="line"/>
			<point x="478" y="654" type="line"/>
			<point x="478" y="-162" type="line"/>
			<point x="555" y="-162" type="line"/>
			<point x="555" y="727" type="line"/>
		</contour>
	</outline>
</glyph>
<glyph name="periodcentered" format="2">
	<unicode hex="00B7"/>
	<advance width="259"/>
	<outline>
		<contour>
			<point x="194" y="406" type="line"/>
			<point x="66" y="406" type="line"/>
			<point x="66" y="274" type="line"/>
			<point x="194" y="274" type="line"/>
		</contour>
	</outline>
</glyph>
<glyph name="cedilla" format="2">
	<unicode hex="00B8"/>
	<advance width="280"/>
	<outline>
		<contour>
			<point x="262" y="48" type="line"/>
			<point x="155" y="48" type="line"/>
			<point x="155" y="-69" type="line" smooth="yes"/>
			<point x="153" y="-79"/>
			<point x="148" y="-87"/>
			<point x="142" y="-91" type="curve" smooth="yes"/>
			<point x="135" y="-94"/>
			<point x="125" y="-96"/>
			<point x="111" y="-96" type="curve" smooth="yes"/>
			<point x="101" y="-96"/>
			<point x="91" y="-94"/>
			<point x="81" y="-91" type="curve" smooth="yes"/>
			<point x="71" y="-87"/>
			<point x="56" y="-80"/>
			<point x="37" y="-68" type="curve"/>
			<point x="7" y="-124" type="line"/>
			<point x="31" y="-139"/>
			<point x="53" y="-150"/>
			<point x="73" y="-157" type="curve" smooth="yes"/>
			<point x="92" y="-163"/>
			<point x="113" y="-166"/>
			<point x="137" y="-166" type="curve" smooth="yes"/>
			<point x="171" y="-166"/>
			<point x="201" y="-157"/>
			<point x="226" y="-139" type="curve" smooth="yes"/>
			<point x="250" y="-121"/>
			<point x="262" y="-96"/>
			<point x="262" y="-66" type="curve" smooth="yes"/>
		</contour>
	</outline>
</glyph>
<glyph name="uni00B9" format="2">
	<unicode hex="00B9"/>
	<advance width="361"/>
	<outline>
		<contour>
			<point x="133" y="637" type="line"/>
			<point x="133" y="315" type="line"/>
			<point x="228" y="315" type="line"/>
			<point x="228" y="766" type="line"/>
			<point x="156" y="766" type="line"/>
			<point x="73" y="706" type="line"/>
			<point x="73" y="594" type="line"/>
		</contour>
	</outline>
</glyph>
<glyph name="ordmasculine" format="2">
	<unicode hex="00BA"/>
	<advance width="611"/>
	<outline>
		<contour>
			<point x="87" y="172" type="line"/>
			<point x="516" y="172" type="line"/>
			<point x="516" y="269" type="line"/>
			<point x="87" y="269" type="line"/>
		</contour>
		<contour>
			<point x="303" y="288" type="curve" smooth="yes"/>
			<point x="363" y="288"/>
			<point x="409" y="309"/>
			<point x="443" y="351" type="curve" smooth="yes"/>
			<point x="476" y="392"/>
			<point x="493" y="446"/>
			<point x="493" y="512" type="curve" smooth="yes"/>
			<point x="493" y="578"/>
			<point x="476" y="632"/>
			<point x="443" y="675" type="curve" smooth="yes"/>
			<point x="409" y="717"/>
			<point x="361" y="739"/>
			<point x="301" y="739" type="curve" smooth="yes"/>
			<point x="269" y="739"/>
			<point x="241" y="732"/>
			<point x="217" y="720" type="curve" smooth="yes"/>
			<point x="193" y="706"/>
			<point x="173" y="689"/>
			<point x="158" y="668" type="curve" smooth="yes"/>
			<point x="142" y="646"/>
			<point x="130" y="622"/>
			<point x="123" y="596" type="curve" smooth="yes"/>
			<point x="115" y="569"/>
			<point x="112" y="541"/>
			<point x="112" y="511" type="curve" smooth="yes"/>
			<point x="112" y="441"/>
			<point x="129" y="387"/>
			<point x="165" y="348" type="curve" smooth="yes"/>
			<point x="199" y="308"/>
			<point x="245" y="288"/>
		</contour>
		<contour>
			<point x="226" y="511" type="curve" smooth="yes"/>
			<point x="226" y="530"/>
			<point x="227" y="548"/>
			<point x="231" y="565" type="curve" smooth="yes"/>
			<point x="233" y="581"/>
			<point x="238" y="595"/>
			<point x="244" y="607" type="curve" smooth="yes"/>
			<point x="250" y="619"/>
			<point x="257" y="628"/>
			<point x="267" y="634" type="curve" smooth="yes"/>
			<point x="275" y="640"/>
			<point x="286" y="643"/>
			<point x="300" y="643" type="curve" smooth="yes"/>
			<point x="326" y="643"/>
			<point x="346" y="630"/>
			<point x="359" y="606" type="curve" smooth="yes"/>
			<point x="371" y="580"/>
			<point x="378" y="549"/>
			<point x="378" y="512" type="curve" smooth="yes"/>
			<point x="378" y="474"/>
			<point x="372" y="443"/>
			<point x="360" y="420" type="curve" smooth="yes"/>
			<point x="347" y="396"/>
			<point x="328" y="384"/>
			<point x="303" y="384" type="curve" smooth="yes"/>
			<point x="277" y="384"/>
			<point x="257" y="396"/>
			<point x="245" y="420" type="curve" smooth="yes"/>
			<point x="232" y="443"/>
			<point x="226" y="473"/>
		</contour>
	</outline>
</glyph>
<glyph name="onequarter" format="2">
	<unicode hex="00BC"/>
	<advance width="838"/>
	<outline>
		<contour>
			<point x="134" y="-88" type="line"/>
			<point x="753" y="714" type="line"/>
			<point x="676" y="774" type="line"/>
			<point x="57" y="-28" type="line"/>
		</contour>
		<contour>
			<point x="176" y="627" type="line"/>
			<point x="176" y="305" type="line"/>
			<point x="277" y="305" type="line"/>
			<point x="277" y="756" type="line"/>
			<point x="202" y="756" type="line"/>
			<point x="116" y="697" type="line"/>
			<point x="116" y="584" type="line"/>
		</contour>
		<contour>
			<point x="589" y="24" type="line"/>
			<point x="589" y="-82" type="line"/>
			<point x="688" y="-82" type="line"/>
			<point x="688" y="24" type="line"/>
			<point x="744" y="24" type="line"/>
			<point x="744" y="119" type="line"/>
			<point x="688" y="119" type="line"/>
			<point x="688" y="369" type="line"/>
			<point x="598" y="369" type="line"/>
			<point x="451" y="94" type="line"/>
			<point x="451" y="24" type="line"/>
		</contour>
		<contour>
			<point x="589" y="173" type="line"/>
			<point x="589" y="119" type="line"/>
			<point x="561" y="119" type="line"/>
		</contour>
	</outline>
</glyph>
<glyph name="onehalf" format="2">
	<unicode hex="00BD"/>
	<advance width="838"/>
	<outline>
		<contour>
			<point x="134" y="-88" type="line"/>
			<point x="753" y="714" type="line"/>
			<point x="676" y="774" type="line"/>
			<point x="57" y="-28" type="line"/>
		</contour>
		<contour>
			<point x="176" y="627" type="line"/>
			<point x="176" y="305" type="line"/>
			<point x="277" y="305" type="line"/>
			<point x="277" y="756" type="line"/>
			<point x="202" y="756" type="line"/>
			<point x="116" y="697" type="line"/>
			<point x="116" y="584" type="line"/>
		</contour>
		<contour>
			<point x="471" y="-3" type="curve"/>
			<point x="471" y="-83" type="line"/>
			<point x="732" y="-83" type="line"/>
			<point x="732" y="12" type="line"/>
			<point x="616" y="12" type="line"/>
			<point x="616" y="12"/>
			<point x="628" y="28"/>
			<point x="651" y="58" type="curve" smooth="yes"/>
			<point x="675" y="89"/>
			<point x="696" y="125"/>
			<point x="714" y="166" type="curve" smooth="yes"/>
			<point x="717" y="177"/>
			<point x="720" y="189"/>
			<point x="722" y="202" type="curve" smooth="yes"/>
			<point x="724" y="214"/>
			<point x="725" y="225"/>
			<point x="725" y="235" type="curve" smooth="yes"/>
			<point x="725" y="274"/>
			<point x="712" y="306"/>
			<point x="686" y="332" type="curve" smooth="yes"/>
			<point x="659" y="356"/>
			<point x="629" y="369"/>
			<point x="595" y="369" type="curve" smooth="yes"/>
			<point x="570" y="369"/>
			<point x="549" y="364"/>
			<point x="533" y="354" type="curve" smooth="yes"/>
			<point x="515" y="344"/>
			<point x="502" y="332"/>
			<point x="492" y="318" type="curve" smooth="yes"/>
			<point x="483" y="303"/>
			<point x="477" y="288"/>
			<point x="474" y="274" type="curve" smooth="yes"/>
			<point x="470" y="259"/>
			<point x="468" y="239"/>
			<point x="468" y="215" type="curve"/>
			<point x="573" y="215" type="line"/>
			<point x="571" y="243"/>
			<point x="573" y="261"/>
			<point x="578" y="268" type="curve" smooth="yes"/>
			<point x="582" y="274"/>
			<point x="588" y="278"/>
			<point x="595" y="278" type="curve" smooth="yes"/>
			<point x="604" y="278"/>
			<point x="611" y="274"/>
			<point x="616" y="267" type="curve" smooth="yes"/>
			<point x="620" y="259"/>
			<point x="622" y="249"/>
			<point x="622" y="239" type="curve" smooth="yes"/>
			<point x="622" y="232"/>
			<point x="621" y="224"/>
			<point x="620" y="214" type="curve" smooth="yes"/>
			<point x="618" y="203"/>
			<point x="616" y="196"/>
			<point x="615" y="193" type="curve" smooth="yes"/>
			<point x="604" y="162"/>
			<point x="586" y="130"/>
			<point x="561" y="98" type="curve" smooth="yes"/>
			<point x="525" y="52"/>
			<point x="495" y="19"/>
		</contour>
	</outline>
</glyph>
<glyph name="threequarters" format="2">
  <advance width="838"/>
  <unicode hex="00BE"/>
  <outline>
    <contour>
      <point x="134" y="-88" type="line"/>
      <point x="753" y="714" type="line"/>
      <point x="676" y="774" type="line"/>
      <point x="57" y="-28" type="line"/>
    </contour>
    <contour>
      <point x="589" y="24" type="line"/>
      <point x="589" y="-82" type="line"/>
      <point x="688" y="-82" type="line"/>
      <point x="688" y="24" type="line"/>
      <point x="744" y="24" type="line"/>
      <point x="744" y="119" type="line"/>
      <point x="688" y="119" type="line"/>
      <point x="688" y="369" type="line"/>
      <point x="598" y="369" type="line"/>
      <point x="451" y="94" type="line"/>
      <point x="451" y="24" type="line"/>
    </contour>
    <contour>
      <point x="282" y="550" type="curve" smooth="yes"/>
      <point x="282" y="550"/>
      <point x="288" y="557"/>
      <point x="302" y="573" type="curve" smooth="yes"/>
      <point x="314" y="588"/>
      <point x="321" y="610"/>
      <point x="321" y="638" type="curve" smooth="yes"/>
      <point x="321" y="658"/>
      <point x="317" y="676"/>
      <point x="310" y="692" type="curve" smooth="yes"/>
      <point x="302" y="708"/>
      <point x="292" y="721"/>
      <point x="280" y="733" type="curve" smooth="yes"/>
      <point x="268" y="744"/>
      <point x="254" y="753"/>
      <point x="238" y="759" type="curve" smooth="yes"/>
      <point x="222" y="765"/>
      <point x="206" y="768"/>
      <point x="190" y="768" type="curve" smooth="yes"/>
      <point x="168" y="768"/>
      <point x="149" y="764"/>
      <point x="133" y="757" type="curve" smooth="yes"/>
      <point x="116" y="749"/>
      <point x="103" y="738"/>
      <point x="93" y="726" type="curve" smooth="yes"/>
      <point x="83" y="716"/>
      <point x="76" y="704"/>
      <point x="71" y="690" type="curve" smooth="yes"/>
      <point x="65" y="676"/>
      <point x="63" y="656"/>
      <point x="63" y="631" type="curve"/>
      <point x="159" y="631" type="line"/>
      <point x="163" y="651"/>
      <point x="167" y="664"/>
      <point x="172" y="670" type="curve" smooth="yes"/>
      <point x="176" y="675"/>
      <point x="183" y="678"/>
      <point x="192" y="678" type="curve" smooth="yes"/>
      <point x="199" y="678"/>
      <point x="205" y="674"/>
      <point x="211" y="668" type="curve" smooth="yes"/>
      <point x="216" y="661"/>
      <point x="219" y="651"/>
      <point x="219" y="638" type="curve" smooth="yes"/>
      <point x="219" y="621"/>
      <point x="214" y="610"/>
      <point x="206" y="604" type="curve" smooth="yes"/>
      <point x="197" y="598"/>
      <point x="177" y="595"/>
      <point x="145" y="595" type="curve"/>
      <point x="145" y="505" type="line"/>
      <point x="176" y="505"/>
      <point x="197" y="502"/>
      <point x="208" y="496" type="curve" smooth="yes"/>
      <point x="218" y="489"/>
      <point x="223" y="474"/>
      <point x="223" y="452" type="curve" smooth="yes"/>
      <point x="223" y="434"/>
      <point x="220" y="422"/>
      <point x="214" y="414" type="curve" smooth="yes"/>
      <point x="208" y="405"/>
      <point x="199" y="401"/>
      <point x="189" y="401" type="curve" smooth="yes"/>
      <point x="179" y="401"/>
      <point x="172" y="404"/>
      <point x="168" y="410" type="curve" smooth="yes"/>
      <point x="164" y="416"/>
      <point x="161" y="429"/>
      <point x="161" y="449" type="curve"/>
      <point x="52" y="449" type="line"/>
      <point x="57" y="403"/>
      <point x="71" y="368"/>
      <point x="93" y="345" type="curve" smooth="yes"/>
      <point x="114" y="321"/>
      <point x="147" y="310"/>
      <point x="191" y="310" type="curve" smooth="yes"/>
      <point x="235" y="310"/>
      <point x="269" y="324"/>
      <point x="293" y="353" type="curve" smooth="yes"/>
      <point x="316" y="381"/>
      <point x="328" y="414"/>
      <point x="328" y="453" type="curve" smooth="yes"/>
      <point x="328" y="484"/>
      <point x="320" y="508"/>
      <point x="306" y="525" type="curve" smooth="yes"/>
      <point x="290" y="541"/>
      <point x="282" y="549"/>
    </contour>
    <contour>
      <point x="589" y="173" type="line"/>
      <point x="589" y="119" type="line"/>
      <point x="561" y="119" type="line"/>
    </contour>
  </outline>
</glyph>
<glyph name="questiondown" format="2">
	<unicode hex="00BF"/>
	<advance width="838"/>
	<outline>
		<contour>
			<point x="191" y="109" type="curve" smooth="yes"/>
			<point x="191" y="-7.46447"/>
			<point x="286.576" y="-77"/>
			<point x="403" y="-77" type="curve" smooth="yes"/>
			<point x="467.155" y="-77"/>
			<point x="511.777" y="-61.7714"/>
			<point x="562" y="-47" type="curve"/>
			<point x="562" y="64" type="line"/>
			<point x="505.289" y="44.3691"/>
			<point x="471.299" y="21"/>
			<point x="405" y="21" type="curve" smooth="yes"/>
			<point x="354.468" y="21"/>
			<point x="305" y="60.0271"/>
			<point x="305" y="112" type="curve" smooth="yes"/>
			<point x="305" y="256.085"/>
			<point x="475" y="278.717"/>
			<point x="475" y="455" type="curve" smooth="yes"/>
			<point x="475" y="537" type="line"/>
			<point x="368" y="537" type="line"/>
			<point x="368" y="476" type="line" smooth="yes"/>
			<point x="368" y="295.171"/>
			<point x="191" y="283.211"/>
		</contour>
		<contour>
			<point x="354" y="749" type="line"/>
			<point x="354" y="617" type="line"/>
			<point x="485" y="617" type="line"/>
			<point x="485" y="749" type="line"/>
		</contour>
	</outline>
</glyph>
<glyph name="AE" format="2">
	<unicode hex="00C6"/>
	<advance width="751"/>
	<outline>
		<contour>
			<point x="-22" y="-13" type="line"/>
			<point x="92" y="-13" type="line"/>
			<point x="173" y="202" type="line"/>
			<point x="339" y="202" type="line"/>
			<point x="339" y="-13" type="line"/>
			<point x="726" y="-13" type="line"/>
			<point x="726" y="92" type="line"/>
			<point x="452" y="92" type="line"/>
			<point x="452" y="321" type="line"/>
			<point x="708" y="321" type="line"/>
			<point x="708" y="425" type="line"/>
			<point x="452" y="425" type="line"/>
			<point x="452" y="621" type="line"/>
			<point x="718" y="621" type="line"/>
			<point x="718" y="726" type="line"/>
			<point x="255" y="726" type="line"/>
		</contour>
		<contour>
			<point x="323" y="603" type="line"/>
			<point x="339" y="603" type="line"/>
			<point x="339" y="306" type="line"/>
			<point x="213" y="306" type="line"/>
		</contour>
	</outline>
</glyph>
<glyph name="Eth" format="2">
  <advance width="627"/>
  <unicode hex="00D0"/>
  <outline>
    <contour>
      <point x="105" y="318" type="line"/>
      <point x="105" y="-13" type="line"/>
      <point x="267" y="-13" type="line" smooth="yes"/>
      <point x="311" y="-13"/>
      <point x="353" y="-8"/>
      <point x="393" y="1" type="curve" smooth="yes"/>
      <point x="423" y="9"/>
      <point x="450" y="24"/>
      <point x="476" y="44" type="curve" smooth="yes"/>
      <point x="501" y="64"/>
      <point x="523" y="89"/>
      <point x="542" y="119" type="curve" smooth="yes"/>
      <point x="562" y="148"/>
      <point x="577" y="182"/>
      <point x="589" y="221" type="curve" smooth="yes"/>
      <point x="599" y="259"/>
      <point x="605" y="305"/>
      <point x="605" y="359" type="curve" smooth="yes"/>
      <point x="605" y="449"/>
      <point x="589" y="522"/>
      <point x="558" y="577" type="curve" smooth="yes"/>
      <point x="526" y="631"/>
      <point x="485" y="671"/>
      <point x="435" y="695" type="curve" smooth="yes"/>
      <point x="393" y="715"/>
      <point x="341" y="726"/>
      <point x="277" y="726" type="curve" smooth="yes"/>
      <point x="105" y="726" type="line"/>
      <point x="105" y="412" type="line"/>
      <point x="3" y="412" type="line"/>
      <point x="3" y="318" type="line"/>
    </contour>
    <contour>
      <point x="217" y="318" type="line"/>
      <point x="411" y="318" type="line"/>
      <point x="411" y="412" type="line"/>
      <point x="217" y="412" type="line"/>
      <point x="217" y="621" type="line"/>
      <point x="263" y="621" type="line" smooth="yes"/>
      <point x="300" y="620"/>
      <point x="331" y="617"/>
      <point x="356" y="612" type="curve" smooth="yes"/>
      <point x="372" y="608"/>
      <point x="389" y="601"/>
      <point x="405" y="591" type="curve" smooth="yes"/>
      <point x="420" y="579"/>
      <point x="434" y="564"/>
      <point x="447" y="544" type="curve" smooth="yes"/>
      <point x="459" y="524"/>
      <point x="470" y="499"/>
      <point x="479" y="469" type="curve" smooth="yes"/>
      <point x="487" y="439"/>
      <point x="492" y="402"/>
      <point x="493" y="358" type="curve" smooth="yes"/>
      <point x="493" y="315"/>
      <point x="488" y="279"/>
      <point x="480" y="250" type="curve" smooth="yes"/>
      <point x="470" y="220"/>
      <point x="459" y="194"/>
      <point x="447" y="173" type="curve" smooth="yes"/>
      <point x="435" y="155"/>
      <point x="421" y="139"/>
      <point x="405" y="126" type="curve" smooth="yes"/>
      <point x="389" y="112"/>
      <point x="375" y="104"/>
      <point x="363" y="102" type="curve" smooth="yes"/>
      <point x="332" y="94"/>
      <point x="302" y="91"/>
      <point x="272" y="92" type="curve" smooth="yes"/>
      <point x="217" y="92" type="line"/>
    </contour>
  </outline>
</glyph>
<glyph name="multiply" format="2">
	<unicode hex="00D7"/>
	<advance width="631"/>
	<outline>
		<contour>
			<point x="477" y="617" type="line"/>
			<point x="294" y="410" type="line"/>
			<point x="111" y="617" type="line"/>
			<point x="39" y="550" type="line"/>
			<point x="228" y="336" type="line"/>
			<point x="39" y="122" type="line"/>
			<point x="111" y="54" type="line"/>
			<point x="294" y="261" type="line"/>
			<point x="477" y="54" type="line"/>
			<point x="549" y="122" type="line"/>
			<point x="360" y="336" type="line"/>
			<point x="549" y="550" type="line"/>
		</contour>
	</outline>
</glyph>
<glyph name="Oslash" format="2">
	<unicode hex="00D8"/>
	<advance width="676"/>
	<outline>
		<contour>
			<point x="520" y="357" type="curve" smooth="yes"/>
			<point x="520" y="318"/>
			<point x="515" y="281"/>
			<point x="506" y="245" type="curve" smooth="yes"/>
			<point x="496" y="208"/>
			<point x="483" y="177"/>
			<point x="466" y="152" type="curve" smooth="yes"/>
			<point x="449" y="128"/>
			<point x="429" y="109"/>
			<point x="406" y="97" type="curve" smooth="yes"/>
			<point x="382" y="83"/>
			<point x="358" y="77"/>
			<point x="334" y="77" type="curve" smooth="yes"/>
			<point x="310" y="77"/>
			<point x="286" y="83"/>
			<point x="262" y="97" type="curve" smooth="yes"/>
			<point x="255" y="100"/>
			<point x="248" y="104"/>
			<point x="242" y="109" type="curve"/>
			<point x="500" y="490" type="line"/>
			<point x="506" y="470" type="line" smooth="yes"/>
			<point x="515" y="433"/>
			<point x="520" y="395"/>
		</contour>
		<contour>
			<point x="451" y="581" type="curve"/>
			<point x="183" y="185" type="line"/>
			<point x="174" y="203"/>
			<point x="167" y="223"/>
			<point x="162" y="245" type="curve" smooth="yes"/>
			<point x="152" y="281"/>
			<point x="148" y="318"/>
			<point x="148" y="357" type="curve" smooth="yes"/>
			<point x="148" y="395"/>
			<point x="152" y="433"/>
			<point x="162" y="470" type="curve" smooth="yes"/>
			<point x="171" y="506"/>
			<point x="184" y="536"/>
			<point x="202" y="562" type="curve" smooth="yes"/>
			<point x="218" y="586"/>
			<point x="238" y="604"/>
			<point x="262" y="618" type="curve" smooth="yes"/>
			<point x="286" y="630"/>
			<point x="310" y="637"/>
			<point x="334" y="637" type="curve" smooth="yes"/>
			<point x="358" y="637"/>
			<point x="382" y="630"/>
			<point x="406" y="618" type="curve" smooth="yes"/>
			<point x="422" y="608"/>
			<point x="437" y="596"/>
		</contour>
		<contour>
			<point x="636" y="357" type="curve" smooth="yes"/>
			<point x="636" y="409"/>
			<point x="628" y="458"/>
			<point x="614" y="505" type="curve" smooth="yes"/>
			<point x="603" y="539"/>
			<point x="589" y="569"/>
			<point x="573" y="597" type="curve"/>
			<point x="630" y="681" type="line"/>
			<point x="555" y="735" type="line"/>
			<point x="512" y="671" type="line"/>
			<point x="494" y="685"/>
			<point x="475" y="698"/>
			<point x="455" y="709" type="curve" smooth="yes"/>
			<point x="417" y="728"/>
			<point x="376" y="738"/>
			<point x="334" y="738" type="curve" smooth="yes"/>
			<point x="291" y="738"/>
			<point x="251" y="728"/>
			<point x="213" y="709" type="curve" smooth="yes"/>
			<point x="175" y="689"/>
			<point x="142" y="662"/>
			<point x="115" y="628" type="curve" smooth="yes"/>
			<point x="88" y="592"/>
			<point x="68" y="551"/>
			<point x="54" y="505" type="curve" smooth="yes"/>
			<point x="39" y="458"/>
			<point x="32" y="409"/>
			<point x="32" y="357" type="curve" smooth="yes"/>
			<point x="32" y="305"/>
			<point x="39" y="255"/>
			<point x="54" y="209" type="curve" smooth="yes"/>
			<point x="68" y="161"/>
			<point x="88" y="120"/>
			<point x="115" y="86" type="curve"/>
			<point x="116" y="85" type="line"/>
			<point x="61" y="4" type="line"/>
			<point x="138" y="-45" type="line"/>
			<point x="183" y="22" type="line"/>
			<point x="193" y="15"/>
			<point x="203" y="9"/>
			<point x="213" y="5" type="curve" smooth="yes"/>
			<point x="251" y="-14"/>
			<point x="291" y="-24"/>
			<point x="334" y="-24" type="curve" smooth="yes"/>
			<point x="376" y="-24"/>
			<point x="417" y="-14"/>
			<point x="455" y="5" type="curve" smooth="yes"/>
			<point x="493" y="23"/>
			<point x="525" y="50"/>
			<point x="553" y="86" type="curve" smooth="yes"/>
			<point x="579" y="120"/>
			<point x="599" y="161"/>
			<point x="614" y="209" type="curve" smooth="yes"/>
			<point x="628" y="255"/>
			<point x="636" y="305"/>
		</contour>
	</outline>
</glyph>
<glyph name="Thorn" format="2">
  <advance width="525"/>
  <unicode hex="00DE"/>
  <outline>
    <contour>
      <point x="166" y="726" type="line"/>
      <point x="53" y="726" type="line"/>
      <point x="53" y="-13" type="line"/>
      <point x="166" y="-13" type="line"/>
      <point x="166" y="117" type="line"/>
      <point x="271" y="117" type="line" smooth="yes"/>
      <point x="294" y="117"/>
      <point x="320" y="121"/>
      <point x="349" y="129" type="curve" smooth="yes"/>
      <point x="377" y="136"/>
      <point x="403" y="148"/>
      <point x="426" y="165" type="curve" smooth="yes"/>
      <point x="448" y="182"/>
      <point x="467" y="205"/>
      <point x="482" y="233" type="curve" smooth="yes"/>
      <point x="496" y="261"/>
      <point x="504" y="295"/>
      <point x="504" y="335" type="curve" smooth="yes"/>
      <point x="504" y="372"/>
      <point x="496" y="405"/>
      <point x="482" y="434" type="curve" smooth="yes"/>
      <point x="467" y="462"/>
      <point x="448" y="485"/>
      <point x="424" y="503" type="curve" smooth="yes"/>
      <point x="397" y="521"/>
      <point x="368" y="534"/>
      <point x="336" y="544" type="curve" smooth="yes"/>
      <point x="303" y="553"/>
      <point x="271" y="558"/>
      <point x="241" y="558" type="curve" smooth="yes"/>
      <point x="166" y="558" type="line"/>
    </contour>
    <contour>
      <point x="166" y="456" type="line"/>
      <point x="260" y="456" type="line" smooth="yes"/>
      <point x="275" y="456"/>
      <point x="290" y="454"/>
      <point x="306" y="450" type="curve" smooth="yes"/>
      <point x="321" y="445"/>
      <point x="335" y="438"/>
      <point x="347" y="428" type="curve" smooth="yes"/>
      <point x="359" y="418"/>
      <point x="369" y="406"/>
      <point x="377" y="392" type="curve" smooth="yes"/>
      <point x="385" y="376"/>
      <point x="389" y="358"/>
      <point x="389" y="337" type="curve" smooth="yes"/>
      <point x="387" y="292"/>
      <point x="374" y="261"/>
      <point x="350" y="245" type="curve" smooth="yes"/>
      <point x="325" y="228"/>
      <point x="293" y="220"/>
      <point x="255" y="220" type="curve" smooth="yes"/>
      <point x="166" y="220" type="line"/>
    </contour>
  </outline>
</glyph>
<glyph name="germandbls" format="2">
	<unicode hex="00DF"/>
	<advance width="574"/>
	<outline>
		<contour>
			<point x="258" y="326" type="line" smooth="yes"/>
			<point x="343.475" y="326"/>
			<point x="394.134" y="288.176"/>
			<point x="398" y="207" type="curve"/>
			<point x="391.772" y="113.58"/>
			<point x="343.835" y="90"/>
			<point x="244" y="90" type="curve" smooth="yes"/>
			<point x="203" y="90" type="line"/>
			<point x="203" y="-13" type="line"/>
			<point x="265" y="-13" type="line" smooth="yes"/>
			<point x="411.228" y="-13"/>
			<point x="512" y="56.819"/>
			<point x="512" y="205" type="curve" smooth="yes"/>
			<point x="512" y="302.32"/>
			<point x="464.601" y="356.35"/>
			<point x="398" y="383" type="curve"/>
			<point x="441.32" y="397.44"/>
			<point x="486" y="475.182"/>
			<point x="486" y="545" type="curve" smooth="yes"/>
			<point x="482.222" y="671.56"/>
			<point x="398.089" y="739"/>
			<point x="273" y="739" type="curve" smooth="yes"/>
			<point x="136.237" y="739"/>
			<point x="62" y="631.459"/>
			<point x="62" y="492" type="curve" smooth="yes"/>
			<point x="62" y="-13" type="line"/>
			<point x="174" y="-13" type="line"/>
			<point x="174" y="484" type="line" smooth="yes"/>
			<point x="174" y="569.609"/>
			<point x="193.631" y="636"/>
			<point x="272" y="636" type="curve" smooth="yes"/>
			<point x="333.441" y="636"/>
			<point x="374" y="603.006"/>
			<point x="374" y="540" type="curve" smooth="yes"/>
			<point x="374" y="446.254"/>
			<point x="316.101" y="428"/>
			<point x="223" y="428" type="curve" smooth="yes"/>
			<point x="208" y="428" type="line"/>
			<point x="208" y="326" type="line"/>
		</contour>
	</outline>
</glyph>
<glyph name="ae" format="2">
	<unicode hex="00E6"/>
	<advance width="727"/>
	<outline>
		<contour>
			<point x="698" y="290" type="line" smooth="yes"/>
			<point x="698" y="432.741"/>
			<point x="659.816" y="529"/>
			<point x="518" y="529" type="curve" smooth="yes"/>
			<point x="463.595" y="529"/>
			<point x="385.03" y="495.059"/>
			<point x="370" y="465" type="curve"/>
			<point x="354.694" y="495.612"/>
			<point x="279.881" y="529"/>
			<point x="226" y="529" type="curve" smooth="yes"/>
			<point x="110.445" y="529"/>
			<point x="38" y="467.298"/>
			<point x="38" y="352" type="curve"/>
			<point x="158" y="352" type="line"/>
			<point x="158" y="407.859"/>
			<point x="174.839" y="432"/>
			<point x="226" y="432" type="curve" smooth="yes"/>
			<point x="279.939" y="432"/>
			<point x="300" y="394.012"/>
			<point x="300" y="343" type="curve" smooth="yes"/>
			<point x="300" y="310" type="line"/>
			<point x="158.114" y="310"/>
			<point x="27" y="268.555"/>
			<point x="27" y="124" type="curve" smooth="yes"/>
			<point x="27" y="40.3162"/>
			<point x="83.9135" y="-24"/>
			<point x="166" y="-24" type="curve" smooth="yes"/>
			<point x="252.386" y="-24"/>
			<point x="337.203" y="14.2073"/>
			<point x="357" y="67" type="curve"/>
			<point x="379.579" y="16.8238"/>
			<point x="467.767" y="-24"/>
			<point x="549" y="-24" type="curve" smooth="yes"/>
			<point x="605.234" y="-24"/>
			<point x="636.906" y="-16.1764"/>
			<point x="685" y="1" type="curve"/>
			<point x="685" y="97" type="line"/>
			<point x="631.21" y="80.0135"/>
			<point x="611.745" y="73"/>
			<point x="569" y="73" type="curve" smooth="yes"/>
			<point x="464.682" y="73"/>
			<point x="417.086" y="122.628"/>
			<point x="411" y="220" type="curve"/>
			<point x="698" y="220" type="line"/>
		</contour>
		<contour>
			<point x="300" y="184" type="line" smooth="yes"/>
			<point x="300" y="127.106"/>
			<point x="254.902" y="73"/>
			<point x="200" y="73" type="curve" smooth="yes"/>
			<point x="160.162" y="73"/>
			<point x="141" y="88.7422"/>
			<point x="141" y="134" type="curve" smooth="yes"/>
			<point x="141" y="208.694"/>
			<point x="226.697" y="221"/>
			<point x="300" y="221" type="curve"/>
		</contour>
		<contour>
			<point x="514" y="432" type="curve" smooth="yes"/>
			<point x="574.29" y="432"/>
			<point x="583" y="376.866"/>
			<point x="583" y="316" type="curve"/>
			<point x="411" y="316" type="line"/>
			<point x="414.802" y="373.025"/>
			<point x="452.477" y="432"/>
		</contour>
	</outline>
</glyph>
<glyph name="eth" format="2">
	<unicode hex="00F0"/>
	<advance width="516"/>
	<outline>
		<contour>
			<point x="308" y="670" type="line"/>
			<point x="289" y="684"/>
			<point x="262" y="697"/>
			<point x="228" y="709" type="curve" smooth="yes"/>
			<point x="192" y="721"/>
			<point x="147" y="729"/>
			<point x="93" y="735" type="curve"/>
			<point x="93" y="641" type="line"/>
			<point x="129" y="634"/>
			<point x="158" y="627"/>
			<point x="181" y="621" type="curve" smooth="yes"/>
			<point x="203" y="614"/>
			<point x="214" y="610"/>
			<point x="216" y="609" type="curve"/>
			<point x="119" y="548" type="line"/>
			<point x="156" y="481" type="line"/>
			<point x="154" y="480"/>
			<point x="152" y="479"/>
			<point x="151" y="479" type="curve" smooth="yes"/>
			<point x="122" y="464"/>
			<point x="98" y="444"/>
			<point x="79" y="420" type="curve" smooth="yes"/>
			<point x="59" y="396"/>
			<point x="45" y="368"/>
			<point x="35" y="338" type="curve" smooth="yes"/>
			<point x="25" y="307"/>
			<point x="20" y="274"/>
			<point x="20" y="238" type="curve" smooth="yes"/>
			<point x="20" y="153"/>
			<point x="41" y="88"/>
			<point x="83" y="44" type="curve" smooth="yes"/>
			<point x="125" y="-1"/>
			<point x="180" y="-24"/>
			<point x="250" y="-24" type="curve" smooth="yes"/>
			<point x="320" y="-24"/>
			<point x="376" y="0"/>
			<point x="418" y="47" type="curve" smooth="yes"/>
			<point x="459" y="94"/>
			<point x="480" y="157"/>
			<point x="480" y="236" type="curve" smooth="yes"/>
			<point x="480" y="237" type="line" smooth="yes"/>
			<point x="480" y="325"/>
			<point x="470" y="401"/>
			<point x="450" y="465" type="curve" smooth="yes"/>
			<point x="429" y="528"/>
			<point x="405" y="575"/>
			<point x="378" y="605" type="curve"/>
			<point x="464" y="662" type="line"/>
			<point x="420" y="741" type="line"/>
		</contour>
		<contour>
			<point x="212" y="498" type="curve"/>
			<point x="287" y="547" type="line"/>
			<point x="292" y="542"/>
			<point x="301" y="531"/>
			<point x="313" y="514" type="curve" smooth="yes"/>
			<point x="324" y="496"/>
			<point x="331" y="484"/>
			<point x="333" y="478" type="curve"/>
			<point x="330" y="479"/>
			<point x="322" y="483"/>
			<point x="310" y="489" type="curve" smooth="yes"/>
			<point x="290" y="497"/>
			<point x="270" y="501"/>
			<point x="248" y="501" type="curve" smooth="yes"/>
			<point x="236" y="501"/>
			<point x="224" y="500"/>
		</contour>
		<contour>
			<point x="134" y="238" type="curve" smooth="yes"/>
			<point x="134" y="288"/>
			<point x="143" y="329"/>
			<point x="162" y="359" type="curve" smooth="yes"/>
			<point x="180" y="389"/>
			<point x="208" y="404"/>
			<point x="247" y="404" type="curve" smooth="yes"/>
			<point x="267" y="404"/>
			<point x="284" y="400"/>
			<point x="298" y="392" type="curve" smooth="yes"/>
			<point x="312" y="384"/>
			<point x="323" y="372"/>
			<point x="333" y="358" type="curve" smooth="yes"/>
			<point x="343" y="342"/>
			<point x="351" y="324"/>
			<point x="357" y="304" type="curve" smooth="yes"/>
			<point x="362" y="283"/>
			<point x="365" y="261"/>
			<point x="365" y="239" type="curve" smooth="yes"/>
			<point x="365" y="215"/>
			<point x="362" y="193"/>
			<point x="357" y="172" type="curve" smooth="yes"/>
			<point x="351" y="150"/>
			<point x="344" y="132"/>
			<point x="334" y="118" type="curve" smooth="yes"/>
			<point x="324" y="103"/>
			<point x="312" y="92"/>
			<point x="299" y="85" type="curve" smooth="yes"/>
			<point x="285" y="77"/>
			<point x="269" y="73"/>
			<point x="251" y="73" type="curve" smooth="yes"/>
			<point x="212" y="73"/>
			<point x="183" y="88"/>
			<point x="164" y="119" type="curve" smooth="yes"/>
			<point x="144" y="149"/>
			<point x="134" y="189"/>
		</contour>
	</outline>
</glyph>
<glyph name="divide" format="2">
  <advance width="590"/>
  <unicode hex="00F7"/>
  <outline>
    <contour>
      <point x="374" y="572" type="curve" smooth="yes"/>
      <point x="374" y="593"/>
      <point x="366" y="612"/>
      <point x="351" y="628" type="curve" smooth="yes"/>
      <point x="335" y="643"/>
      <point x="316" y="651"/>
      <point x="294" y="651" type="curve" smooth="yes"/>
      <point x="272" y="651"/>
      <point x="253" y="643"/>
      <point x="238" y="628" type="curve" smooth="yes"/>
      <point x="222" y="612"/>
      <point x="214" y="593"/>
      <point x="214" y="572" type="curve" smooth="yes"/>
      <point x="214" y="550"/>
      <point x="222" y="532"/>
      <point x="238" y="517" type="curve" smooth="yes"/>
      <point x="253" y="501"/>
      <point x="272" y="493"/>
      <point x="294" y="493" type="curve" smooth="yes"/>
      <point x="316" y="493"/>
      <point x="335" y="501"/>
      <point x="351" y="517" type="curve" smooth="yes"/>
      <point x="366" y="532"/>
      <point x="374" y="550"/>
    </contour>
    <contour>
      <point x="566" y="392" type="line"/>
      <point x="22" y="392" type="line"/>
      <point x="22" y="292" type="line"/>
      <point x="566" y="292" type="line"/>
    </contour>
    <contour>
      <point x="374" y="111" type="curve" smooth="yes"/>
      <point x="374" y="132"/>
      <point x="366" y="151"/>
      <point x="351" y="167" type="curve" smooth="yes"/>
      <point x="335" y="182"/>
      <point x="316" y="190"/>
      <point x="294" y="190" type="curve" smooth="yes"/>
      <point x="272" y="190"/>
      <point x="253" y="182"/>
      <point x="238" y="167" type="curve" smooth="yes"/>
      <point x="222" y="151"/>
      <point x="214" y="132"/>
      <point x="214" y="111" type="curve" smooth="yes"/>
      <point x="214" y="89"/>
      <point x="222" y="71"/>
      <point x="238" y="56" type="curve" smooth="yes"/>
      <point x="253" y="40"/>
      <point x="272" y="32"/>
      <point x="294" y="32" type="curve" smooth="yes"/>
      <point x="316" y="32"/>
      <point x="335" y="40"/>
      <point x="351" y="56" type="curve" smooth="yes"/>
      <point x="366" y="71"/>
      <point x="374" y="89"/>
    </contour>
  </outline>
</glyph>
<glyph name="oslash" format="2">
	<unicode hex="00F8"/>
	<advance width="533"/>
	<outline>
		<contour>
			<point x="378" y="252" type="curve" smooth="yes"/>
			<point x="378" y="227"/>
			<point x="375" y="203"/>
			<point x="369" y="180" type="curve" smooth="yes"/>
			<point x="363" y="156"/>
			<point x="354" y="135"/>
			<point x="344" y="119" type="curve" smooth="yes"/>
			<point x="333" y="104"/>
			<point x="320" y="93"/>
			<point x="306" y="85" type="curve" smooth="yes"/>
			<point x="291" y="77"/>
			<point x="276" y="73"/>
			<point x="262" y="73" type="curve" smooth="yes"/>
			<point x="250" y="73"/>
			<point x="239" y="75"/>
			<point x="227" y="80" type="curve"/>
			<point x="374" y="301" type="line"/>
			<point x="376" y="285"/>
			<point x="378" y="268"/>
		</contour>
		<contour>
			<point x="330" y="402" type="curve"/>
			<point x="163" y="153" type="line"/>
			<point x="160" y="161"/>
			<point x="157" y="170"/>
			<point x="155" y="180" type="curve" smooth="yes"/>
			<point x="149" y="203"/>
			<point x="146" y="227"/>
			<point x="146" y="252" type="curve" smooth="yes"/>
			<point x="146" y="276"/>
			<point x="149" y="301"/>
			<point x="155" y="325" type="curve" smooth="yes"/>
			<point x="161" y="349"/>
			<point x="169" y="369"/>
			<point x="180" y="386" type="curve" smooth="yes"/>
			<point x="190" y="400"/>
			<point x="202" y="412"/>
			<point x="218" y="420" type="curve" smooth="yes"/>
			<point x="232" y="428"/>
			<point x="247" y="432"/>
			<point x="262" y="432" type="curve" smooth="yes"/>
			<point x="276" y="432"/>
			<point x="291" y="428"/>
			<point x="306" y="420" type="curve" smooth="yes"/>
			<point x="314" y="415"/>
			<point x="322" y="409"/>
		</contour>
		<contour>
			<point x="493" y="252" type="curve" smooth="yes"/>
			<point x="493" y="289"/>
			<point x="487" y="325"/>
			<point x="477" y="360" type="curve" smooth="yes"/>
			<point x="469" y="380"/>
			<point x="461" y="399"/>
			<point x="451" y="417" type="curve"/>
			<point x="497" y="486" type="line"/>
			<point x="422" y="540" type="line"/>
			<point x="387" y="488" type="line"/>
			<point x="377" y="495"/>
			<point x="366" y="502"/>
			<point x="355" y="508" type="curve" smooth="yes"/>
			<point x="325" y="522"/>
			<point x="294" y="529"/>
			<point x="262" y="529" type="curve" smooth="yes"/>
			<point x="229" y="529"/>
			<point x="198" y="522"/>
			<point x="169" y="508" type="curve" smooth="yes"/>
			<point x="139" y="493"/>
			<point x="114" y="473"/>
			<point x="94" y="448" type="curve" smooth="yes"/>
			<point x="73" y="423"/>
			<point x="57" y="394"/>
			<point x="47" y="360" type="curve" smooth="yes"/>
			<point x="36" y="325"/>
			<point x="31" y="289"/>
			<point x="31" y="252" type="curve" smooth="yes"/>
			<point x="31" y="214"/>
			<point x="36" y="179"/>
			<point x="47" y="145" type="curve" smooth="yes"/>
			<point x="57" y="111"/>
			<point x="73" y="81"/>
			<point x="94" y="56" type="curve" smooth="yes"/>
			<point x="94" y="55"/>
			<point x="95" y="54"/>
			<point x="96" y="53" type="curve" smooth="yes"/>
			<point x="52" y="-13" type="line"/>
			<point x="130" y="-65" type="line"/>
			<point x="171" y="-4" type="line"/>
			<point x="199" y="-17"/>
			<point x="230" y="-24"/>
			<point x="262" y="-24" type="curve" smooth="yes"/>
			<point x="294" y="-24"/>
			<point x="325" y="-17"/>
			<point x="355" y="-3" type="curve" smooth="yes"/>
			<point x="384" y="11"/>
			<point x="409" y="30"/>
			<point x="430" y="56" type="curve" smooth="yes"/>
			<point x="450" y="81"/>
			<point x="465" y="111"/>
			<point x="477" y="145" type="curve" smooth="yes"/>
			<point x="487" y="179"/>
			<point x="493" y="214"/>
		</contour>
	</outline>
</glyph>
<glyph name="thorn" format="2">
	<unicode hex="00FE"/>
	<advance width="544"/>
	<outline>
		<contour>
			<point x="69" y="-165" type="line"/>
			<point x="177" y="-165" type="line"/>
			<point x="177" y="10" type="line"/>
			<point x="208" y="-4"/>
			<point x="236.815" y="-21"/>
			<point x="276" y="-21" type="curve" smooth="yes"/>
			<point x="422.782" y="-21"/>
			<point x="498" y="92.1797"/>
			<point x="498" y="251" type="curve" smooth="yes"/>
			<point x="498" y="397.702"/>
			<point x="438.41" y="529"/>
			<point x="292" y="529" type="curve" smooth="yes"/>
			<point x="238.615" y="529"/>
			<point x="209.057" y="504.314"/>
			<point x="177" y="481" type="curve"/>
			<point x="177" y="726" type="line"/>
			<point x="69" y="726" type="line"/>
		</contour>
		<contour>
			<point x="381" y="246" type="curve" smooth="yes"/>
			<point x="381" y="160.921"/>
			<point x="351.152" y="75"/>
			<point x="277" y="75" type="curve" smooth="yes"/>
			<point x="203.708" y="75"/>
			<point x="179" y="158.833"/>
			<point x="179" y="234" type="curve" smooth="yes"/>
			<point x="179" y="316.906"/>
			<point x="203.706" y="429"/>
			<point x="284" y="429" type="curve" smooth="yes"/>
			<point x="364.877" y="429"/>
			<point x="381" y="327.505"/>
		</contour>
	</outline>
</glyph>
<glyph name="dcroat" format="2">
	<unicode hex="0111"/>
	<advance width="542"/>
	<outline>
		<contour>
			<point x="340" y="544" type="line"/>
			<point x="124" y="544" type="line"/>
			<point x="124" y="638" type="line"/>
			<point x="340" y="638" type="line"/>
			<point x="340" y="726" type="line"/>
			<point x="446" y="726" type="line"/>
			<point x="446" y="638" type="line"/>
			<point x="533" y="638" type="line"/>
			<point x="533" y="544" type="line"/>
			<point x="446" y="544" type="line"/>
			<point x="446" y="-13" type="line"/>
			<point x="340" y="-13" type="line"/>
			<point x="340" y="26" type="line"/>
			<point x="321" y="1"/>
			<point x="268" y="-24"/>
			<point x="218" y="-24" type="curve" smooth="yes"/>
			<point x="84" y="-24"/>
			<point x="25" y="103"/>
			<point x="25" y="239" type="curve" smooth="yes"/>
			<point x="25" y="391"/>
			<point x="89" y="517"/>
			<point x="231" y="517" type="curve" smooth="yes"/>
			<point x="286" y="517"/>
			<point x="315" y="486"/>
			<point x="340" y="466" type="curve"/>
		</contour>
		<contour>
			<point x="141" y="236" type="curve" smooth="yes"/>
			<point x="141" y="163"/>
			<point x="165" y="71"/>
			<point x="236" y="71" type="curve" smooth="yes"/>
			<point x="300.368" y="71"/>
			<point x="333.378" y="159.256"/>
			<point x="333.378" y="247.004" type="curve" smooth="yes"/>
			<point x="333.378" y="333.75"/>
			<point x="301.118" y="420"/>
			<point x="235" y="420" type="curve" smooth="yes"/>
			<point x="159" y="420"/>
			<point x="141" y="328"/>
		</contour>
	</outline>
</glyph>
<glyph name="Hbar" format="2">
	<unicode hex="0126"/>
	<advance width="699"/>
	<outline>
		<contour>
			<point x="100" y="479" type="line"/>
			<point x="100" y="-13" type="line"/>
			<point x="213" y="-13" type="line"/>
			<point x="213" y="315" type="line"/>
			<point x="455" y="315" type="line"/>
			<point x="455" y="-13" type="line"/>
			<point x="568" y="-13" type="line"/>
			<point x="568" y="479" type="line"/>
			<point x="651" y="479" type="line"/>
			<point x="651" y="573" type="line"/>
			<point x="568" y="573" type="line"/>
			<point x="568" y="726" type="line"/>
			<point x="455" y="726" type="line"/>
			<point x="455" y="573" type="line"/>
			<point x="213" y="573" type="line"/>
			<point x="213" y="726" type="line"/>
			<point x="100" y="726" type="line"/>
			<point x="100" y="573" type="line"/>
			<point x="3" y="573" type="line"/>
			<point x="3" y="479" type="line"/>
		</contour>
		<contour>
			<point x="213" y="419" type="line"/>
			<point x="213" y="479" type="line"/>
			<point x="455" y="479" type="line"/>
			<point x="455" y="419" type="line"/>
		</contour>
	</outline>
</glyph>
<glyph name="hbar" format="2">
	<unicode hex="0127"/>
	<advance width="538"/>
	<outline>
		<contour>
			<point x="88" y="538" type="line"/>
			<point x="88" y="-13" type="line"/>
			<point x="194" y="-13" type="line"/>
			<point x="194" y="214" type="line" smooth="yes"/>
			<point x="194" y="297.589"/>
			<point x="233.149" y="419"/>
			<point x="310" y="419" type="curve" smooth="yes"/>
			<point x="356.49" y="419"/>
			<point x="374" y="369.954"/>
			<point x="374" y="324" type="curve" smooth="yes"/>
			<point x="374" y="-13" type="line"/>
			<point x="481" y="-13" type="line"/>
			<point x="481" y="361" type="line" smooth="yes"/>
			<point x="481" y="458.866"/>
			<point x="416.898" y="521"/>
			<point x="322" y="521" type="curve" smooth="yes"/>
			<point x="261.563" y="521"/>
			<point x="220.409" y="486.954"/>
			<point x="194" y="453" type="curve"/>
			<point x="194" y="538" type="line"/>
			<point x="410" y="538" type="line"/>
			<point x="410" y="632" type="line"/>
			<point x="194" y="632" type="line"/>
			<point x="194" y="726" type="line"/>
			<point x="88" y="726" type="line"/>
			<point x="88" y="632" type="line"/>
			<point x="2" y="632" type="line"/>
			<point x="2" y="538" type="line"/>
		</contour>
	</outline>
</glyph>
<glyph name="dotlessi" format="2">
	<unicode hex="0131"/>
	<advance width="223"/>
	<outline>
		<contour>
			<point x="50" y="-13" type="line"/>
			<point x="162" y="-13" type="line"/>
			<point x="162" y="517" type="line"/>
			<point x="50" y="517" type="line"/>
		</contour>
	</outline>
</glyph>
<glyph name="IJ" format="2">
  <advance width="597"/>
  <unicode hex="0132"/>
  <outline>
    <contour>
      <point x="64" y="-13" type="line"/>
      <point x="179" y="-13" type="line"/>
      <point x="179" y="726" type="line"/>
      <point x="64" y="726" type="line"/>
    </contour>
    <contour>
      <point x="531" y="726" type="line"/>
      <point x="418" y="726" type="line"/>
      <point x="418" y="173" type="line" smooth="yes"/>
      <point x="418" y="152"/>
      <point x="416" y="136"/>
      <point x="412" y="126" type="curve" smooth="yes"/>
      <point x="408" y="114"/>
      <point x="403" y="106"/>
      <point x="398" y="101" type="curve" smooth="yes"/>
      <point x="392" y="95"/>
      <point x="386" y="90"/>
      <point x="380" y="88" type="curve" smooth="yes"/>
      <point x="374" y="85"/>
      <point x="367" y="83"/>
      <point x="360" y="82" type="curve" smooth="yes"/>
      <point x="356" y="80"/>
      <point x="353" y="80"/>
      <point x="350" y="80" type="curve" smooth="yes"/>
      <point x="346" y="80"/>
      <point x="342" y="80"/>
      <point x="338" y="80" type="curve" smooth="yes"/>
      <point x="324" y="80"/>
      <point x="310" y="82"/>
      <point x="295" y="86" type="curve" smooth="yes"/>
      <point x="279" y="89"/>
      <point x="257" y="96"/>
      <point x="230" y="108" type="curve"/>
      <point x="230" y="-7" type="line"/>
      <point x="268" y="-19"/>
      <point x="302" y="-24"/>
      <point x="334" y="-24" type="curve" smooth="yes"/>
      <point x="372" y="-23"/>
      <point x="404" y="-17"/>
      <point x="430" y="-7" type="curve" smooth="yes"/>
      <point x="455" y="4"/>
      <point x="476" y="19"/>
      <point x="492" y="38" type="curve" smooth="yes"/>
      <point x="506" y="56"/>
      <point x="517" y="77"/>
      <point x="523" y="99" type="curve" smooth="yes"/>
      <point x="528" y="121"/>
      <point x="531" y="142"/>
      <point x="531" y="162" type="curve" smooth="yes"/>
    </contour>
  </outline>
</glyph>
<glyph name="ij" format="2">
	<unicode hex="0133"/>
	<advance width="422"/>
	<outline>
		<contour>
			<point x="57" y="-13" type="line"/>
			<point x="170" y="-13" type="line"/>
			<point x="170" y="517" type="line"/>
			<point x="57" y="517" type="line"/>
		</contour>
		<contour>
			<point x="50" y="591" type="line"/>
			<point x="176" y="591" type="line"/>
			<point x="176" y="726" type="line"/>
			<point x="50" y="726" type="line"/>
		</contour>
		<contour>
			<point x="127" y="-167" type="line"/>
			<point x="281.602" y="-167"/>
			<point x="358" y="-114.976"/>
			<point x="358" y="40" type="curve" smooth="yes"/>
			<point x="358" y="517" type="line"/>
			<point x="247" y="517" type="line"/>
			<point x="247" y="22" type="line" smooth="yes"/>
			<point x="247" y="-61.7731"/>
			<point x="207.47" y="-63"/>
			<point x="127" y="-63" type="curve"/>
		</contour>
		<contour>
			<point x="237" y="591" type="line"/>
			<point x="364" y="591" type="line"/>
			<point x="364" y="726" type="line"/>
			<point x="237" y="726" type="line"/>
		</contour>
	</outline>
</glyph>
<glyph name="kgreenlandic" format="2">
	<unicode hex="0138"/>
	<advance width="473"/>
	<outline>
		<contour>
			<point x="41" y="-13" type="line"/>
			<point x="144" y="-13" type="line"/>
			<point x="144" y="172" type="line"/>
			<point x="312" y="-13" type="line"/>
			<point x="457" y="-13" type="line"/>
			<point x="197" y="266" type="line"/>
			<point x="431" y="517" type="line"/>
			<point x="294" y="517" type="line"/>
			<point x="144" y="351" type="line"/>
			<point x="144" y="517" type="line"/>
			<point x="41" y="517" type="line"/>
		</contour>
	</outline>
</glyph>
<glyph name="Lslash" format="2">
	<unicode hex="0141"/>
	<advance width="512"/>
	<outline>
		<contour>
			<point x="113" y="294" type="line"/>
			<point x="113" y="-13" type="line"/>
			<point x="511" y="-13" type="line"/>
			<point x="511" y="92" type="line"/>
			<point x="225" y="92" type="line"/>
			<point x="225" y="383" type="line"/>
			<point x="388" y="512" type="line"/>
			<point x="336" y="590" type="line"/>
			<point x="225" y="503" type="line"/>
			<point x="225" y="726" type="line"/>
			<point x="113" y="726" type="line"/>
			<point x="113" y="415" type="line"/>
			<point x="-12" y="316" type="line"/>
			<point x="39" y="236" type="line"/>
		</contour>
	</outline>
</glyph>
<glyph name="lslash" format="2">
	<unicode hex="0142"/>
	<advance width="482"/>
	<outline>
		<contour>
			<point x="157" y="-13" type="line"/>
			<point x="266" y="-13" type="line"/>
			<point x="266" y="377" type="line"/>
			<point x="443" y="564" type="line"/>
			<point x="381" y="632" type="line"/>
			<point x="266" y="511" type="line"/>
			<point x="266" y="726" type="line"/>
			<point x="157" y="726" type="line"/>
			<point x="157" y="396" type="line"/>
			<point x="-3" y="227" type="line"/>
			<point x="63" y="162" type="line"/>
			<point x="157" y="261" type="line"/>
		</contour>
	</outline>
</glyph>
<glyph name="Eng" format="2">
  <advance width="599"/>
  <unicode hex="014A"/>
  <outline>
    <contour>
      <point x="533" y="726" type="line"/>
      <point x="423" y="726" type="line"/>
      <point x="423" y="202" type="line"/>
      <point x="182" y="726" type="line"/>
      <point x="56" y="726" type="line"/>
      <point x="56" y="-13" type="line"/>
      <point x="166" y="-13" type="line"/>
      <point x="166" y="511" type="line"/>
      <point x="407" y="-13" type="line"/>
      <point x="423" y="-13" type="line"/>
      <point x="423" y="-20" type="line" smooth="yes"/>
      <point x="423" y="-32"/>
      <point x="414" y="-43"/>
      <point x="396" y="-54" type="curve" smooth="yes"/>
      <point x="378" y="-64"/>
      <point x="360" y="-69"/>
      <point x="342" y="-67" type="curve" smooth="yes"/>
      <point x="326" y="-65"/>
      <point x="311" y="-63"/>
      <point x="296" y="-61" type="curve" smooth="yes"/>
      <point x="280" y="-57"/>
      <point x="259" y="-50"/>
      <point x="232" y="-39" type="curve"/>
      <point x="232" y="-152" type="line"/>
      <point x="254" y="-160"/>
      <point x="273" y="-165"/>
      <point x="287" y="-167" type="curve" smooth="yes"/>
      <point x="300" y="-168"/>
      <point x="316" y="-169"/>
      <point x="336" y="-169" type="curve" smooth="yes"/>
      <point x="374" y="-169"/>
      <point x="406" y="-163"/>
      <point x="432" y="-153" type="curve" smooth="yes"/>
      <point x="457" y="-142"/>
      <point x="477" y="-127"/>
      <point x="493" y="-109" type="curve" smooth="yes"/>
      <point x="507" y="-93"/>
      <point x="517" y="-77"/>
      <point x="524" y="-62" type="curve" smooth="yes"/>
      <point x="530" y="-46"/>
      <point x="533" y="-28"/>
      <point x="533" y="-10" type="curve" smooth="yes"/>
    </contour>
  </outline>
</glyph>
<glyph name="eng" format="2">
	<unicode hex="014B"/>
	<advance width="505"/>
	<outline>
		<contour>
			<point x="218" y="-167" type="line"/>
			<point x="257" y="-167"/>
			<point x="289" y="-164"/>
			<point x="314" y="-160" type="curve" smooth="yes"/>
			<point x="338" y="-155"/>
			<point x="360" y="-144"/>
			<point x="378" y="-128" type="curve" smooth="yes"/>
			<point x="398" y="-112"/>
			<point x="413" y="-91"/>
			<point x="425" y="-65" type="curve" smooth="yes"/>
			<point x="435" y="-37"/>
			<point x="441" y="-3"/>
			<point x="441" y="38" type="curve" smooth="yes"/>
			<point x="441" y="358" type="line" smooth="yes"/>
			<point x="439" y="412"/>
			<point x="424" y="455"/>
			<point x="396" y="485" type="curve" smooth="yes"/>
			<point x="367" y="514"/>
			<point x="330" y="529"/>
			<point x="286" y="529" type="curve" smooth="yes"/>
			<point x="246" y="529"/>
			<point x="213" y="518"/>
			<point x="189" y="497" type="curve" smooth="yes"/>
			<point x="163" y="475"/>
			<point x="151" y="465"/>
			<point x="153" y="469" type="curve" smooth="yes"/>
			<point x="153" y="517" type="line"/>
			<point x="50" y="517" type="line"/>
			<point x="50" y="-13" type="line"/>
			<point x="153" y="-13" type="line"/>
			<point x="153" y="208" type="line" smooth="yes"/>
			<point x="153" y="221"/>
			<point x="153" y="233"/>
			<point x="155" y="244" type="curve" smooth="yes"/>
			<point x="156" y="254"/>
			<point x="158" y="266"/>
			<point x="160" y="280" type="curve" smooth="yes"/>
			<point x="170" y="323"/>
			<point x="185" y="358"/>
			<point x="206" y="385" type="curve" smooth="yes"/>
			<point x="226" y="411"/>
			<point x="247" y="423"/>
			<point x="268" y="421" type="curve" smooth="yes"/>
			<point x="286" y="419"/>
			<point x="300" y="414"/>
			<point x="309" y="407" type="curve" smooth="yes"/>
			<point x="317" y="399"/>
			<point x="323" y="390"/>
			<point x="327" y="378" type="curve" smooth="yes"/>
			<point x="332" y="364"/>
			<point x="335" y="348"/>
			<point x="336" y="332" type="curve" smooth="yes"/>
			<point x="336" y="314"/>
			<point x="337" y="297"/>
			<point x="337" y="280" type="curve" smooth="yes"/>
			<point x="337" y="20" type="line" smooth="yes"/>
			<point x="337" y="-6"/>
			<point x="333" y="-24"/>
			<point x="326" y="-35" type="curve" smooth="yes"/>
			<point x="318" y="-45"/>
			<point x="311" y="-52"/>
			<point x="304" y="-57" type="curve" smooth="yes"/>
			<point x="294" y="-60"/>
			<point x="283" y="-62"/>
			<point x="271" y="-63" type="curve" smooth="yes"/>
			<point x="259" y="-63"/>
			<point x="241" y="-63"/>
			<point x="218" y="-63" type="curve"/>
		</contour>
	</outline>
</glyph>
<glyph name="OE" format="2">
  <advance width="822"/>
  <unicode hex="0152"/>
  <outline>
    <contour>
      <point x="410" y="-13" type="line"/>
      <point x="797" y="-13" type="line"/>
      <point x="797" y="92" type="line"/>
      <point x="522" y="92" type="line"/>
      <point x="522" y="319" type="line"/>
      <point x="778" y="319" type="line"/>
      <point x="778" y="423" type="line"/>
      <point x="522" y="423" type="line"/>
      <point x="522" y="621" type="line"/>
      <point x="789" y="621" type="line"/>
      <point x="789" y="726" type="line"/>
      <point x="410" y="726" type="line"/>
      <point x="410" y="715" type="line"/>
      <point x="405" y="717"/>
      <point x="393" y="722"/>
      <point x="375" y="729" type="curve" smooth="yes"/>
      <point x="356" y="735"/>
      <point x="335" y="739"/>
      <point x="311" y="739" type="curve" smooth="yes"/>
      <point x="263" y="739"/>
      <point x="220" y="728"/>
      <point x="184" y="706" type="curve" smooth="yes"/>
      <point x="146" y="683"/>
      <point x="116" y="654"/>
      <point x="92" y="620" type="curve" smooth="yes"/>
      <point x="66" y="584"/>
      <point x="48" y="544"/>
      <point x="36" y="500" type="curve" smooth="yes"/>
      <point x="24" y="455"/>
      <point x="18" y="408"/>
      <point x="18" y="358" type="curve" smooth="yes"/>
      <point x="18" y="304"/>
      <point x="24" y="255"/>
      <point x="36" y="211" type="curve" smooth="yes"/>
      <point x="48" y="166"/>
      <point x="66" y="126"/>
      <point x="91" y="91" type="curve" smooth="yes"/>
      <point x="115" y="55"/>
      <point x="146" y="27"/>
      <point x="184" y="7" type="curve" smooth="yes"/>
      <point x="220" y="-13"/>
      <point x="263" y="-24"/>
      <point x="311" y="-24" type="curve" smooth="yes"/>
      <point x="329" y="-24"/>
      <point x="348" y="-21"/>
      <point x="368" y="-16" type="curve" smooth="yes"/>
      <point x="388" y="-10"/>
      <point x="402" y="-5"/>
      <point x="410" y="-1" type="curve"/>
    </contour>
    <contour>
      <point x="311" y="77" type="curve" smooth="yes"/>
      <point x="285" y="77"/>
      <point x="261" y="84"/>
      <point x="241" y="99" type="curve" smooth="yes"/>
      <point x="219" y="113"/>
      <point x="201" y="133"/>
      <point x="185" y="159" type="curve" smooth="yes"/>
      <point x="169" y="186"/>
      <point x="157" y="217"/>
      <point x="148" y="251" type="curve" smooth="yes"/>
      <point x="138" y="285"/>
      <point x="134" y="321"/>
      <point x="134" y="359" type="curve" smooth="yes"/>
      <point x="134" y="399"/>
      <point x="138" y="437"/>
      <point x="148" y="472" type="curve" smooth="yes"/>
      <point x="156" y="506"/>
      <point x="169" y="536"/>
      <point x="186" y="562" type="curve" smooth="yes"/>
      <point x="202" y="586"/>
      <point x="220" y="604"/>
      <point x="241" y="618" type="curve" smooth="yes"/>
      <point x="261" y="631"/>
      <point x="284" y="638"/>
      <point x="310" y="638" type="curve" smooth="yes"/>
      <point x="328" y="638"/>
      <point x="347" y="633"/>
      <point x="365" y="623" type="curve" smooth="yes"/>
      <point x="383" y="612"/>
      <point x="398" y="600"/>
      <point x="410" y="588" type="curve"/>
      <point x="410" y="122" type="line"/>
      <point x="398" y="110"/>
      <point x="383" y="99"/>
      <point x="366" y="91" type="curve" smooth="yes"/>
      <point x="348" y="81"/>
      <point x="329" y="77"/>
    </contour>
  </outline>
</glyph>
